{
.appVersion = "1342";
DisplayStrings = (
"/gcommaaccent/dcaron",
"/T_h/space/c_h/space/c_t/space/f_f/space/f_f_i/space/f_f_l/space/f_j/space/fi/space/fl/space/s_t \012Th/space ch/space ct/space ff/space ffi/space ffl/space fj/space fi/space fl/space st"
);
classes = (
{
automatic = 1;

glyphs = (
{
glyphname = .notdef;
layers = (
{
layerId = "F85E8FEC-B3CD-4A54-BF30-AB1986ECE904";
paths = (
{
closed = 1;
nodes = (
"634 1365 LINE",
"90 1365 LINE",
"90 0 LINE",
"634 0 LINE"
);
},
{
closed = 1;
nodes = (
"566 1297 LINE",
"566 68 LINE",
"158 68 LINE",
"158 1297 LINE"
);
}
);
width = 724;
},
{
layerId = "C6C96970-2BBD-4A47-8C90-C83F37B7F23D";
paths = (
{
closed = 1;
nodes = (
"646 1365 LINE",
"102 1365 LINE",
"102 0 LINE",
"646 0 LINE"
);
},
{
closed = 1;
nodes = (
"538 1257 LINE",
"538 108 LINE",
"210 108 LINE",
"210 1257 LINE"
);
}
);
width = 748;
}
);
},
{
glyphname = A;
layers = (
{
anchors = (
{
name = bottom;
position = "{714, 0}";
},
{
name = ogonek;
position = "{1342, 0}";
},
{
name = top;
position = "{714, 1446}";
}
);
background = {
paths = (
{
closed = 1;
nodes = (
"86 0 LINE",
"295 0 LINE",
"394 282 LINE",
"1039 282 LINE",
"1137 0 LINE",
"1342 0 LINE",
"802 1446 LINE",
"625 1446 LINE"
);
},
{
closed = 1;
nodes = (
"442 425 LINE",
"719 1216 LINE",
"993 425 LINE"
);
}
);
};
layerId = "F85E8FEC-B3CD-4A54-BF30-AB1986ECE904";
paths = (
{
closed = 1;
nodes = (
"295 0 LINE",
"734 1258 LINE",
"704 1259 LINE",
"1137 0 LINE",
"1342 0 LINE",
"802 1446 LINE",
"625 1446 LINE",
"86 0 LINE"
);
},
{
closed = 1;
nodes = (
"1123 282 LINE",
"1077 430 LINE",
"354 430 LINE",
"306 282 LINE"
);
}
);
width = 1428;
},
{
anchors = (
{
name = bottom;
position = "{756, 0}";
},
{
name = ogonek;
position = "{1442, 0}";
},
{
name = top;
position = "{756, 1476}";
}
);
background = {
paths = (
{
closed = 1;
nodes = (
"70 0 LINE",
"380 0 LINE",
"466 281 LINE",
"1044 281 LINE",
"1127 0 LINE",
"1442 0 LINE",
"950 1476 LINE",
"556 1476 LINE"
);
},
{
closed = 1;
nodes = (
"525 479 LINE",
"760 1255 LINE",
"987 479 LINE"
);
}
);
};
layerId = "C6C96970-2BBD-4A47-8C90-C83F37B7F23D";
paths = (
{
closed = 1;
nodes = (
"380 0 LINE",
"773 1298 LINE",
"747 1298 LINE",
"1127 0 LINE",
"1442 0 LINE",
"950 1476 LINE",
"556 1476 LINE",
"70 0 LINE"
);
},
{
closed = 1;
nodes = (
"1161 281 LINE",
"1104 511 LINE",
"410 511 LINE",
"351 281 LINE"
);
}
);
width = 1512;
}
);
leftKerningGroup = A;
rightKerningGroup = A;
unicode = 0041;
},
{
glyphname = Aacute;
layers = (
{
background = {
paths = (
{
closed = 1;
nodes = (
"1006 1972 LINE",
"781 1972 LINE",
"661 1631 LINE",
"767 1631 LINE"
);
},
{
closed = 1;
nodes = (
"394 282 LINE",
"1039 282 LINE",
"1137 0 LINE",
"1342 0 LINE",
"802 1446 LINE",
"625 1446 LINE",
"86 0 LINE",
"295 0 LINE"
);
},
{
closed = 1;
nodes = (
"993 425 LINE",
"442 425 LINE",
"719 1216 LINE"
);
}
);
};
components = (
{
name = A;
},
{
name = acutecomb.case;
transform = "{1, 0, 0, 1, 714, 0}";
}
);
layerId = "F85E8FEC-B3CD-4A54-BF30-AB1986ECE904";
width = 1428;
},
{
background = {
paths = (
{
closed = 1;
nodes = (
"1064 2050 LINE",
"796 2050 LINE",
"682 1685 LINE",
"831 1685 LINE"
);
},
{
closed = 1;
nodes = (
"987 479 LINE",
"525 479 LINE",
"760 1255 LINE"
);
},
{
closed = 1;
nodes = (
"466 281 LINE",
"1044 281 LINE",
"1127 0 LINE",
"1442 0 LINE",
"950 1476 LINE",
"556 1476 LINE",
"70 0 LINE",
"380 0 LINE"
);
}
);
};
components = (
{
name = A;
},
{
name = acutecomb.case;
transform = "{1, 0, 0, 1, 756, 0}";
}
);
layerId = "C6C96970-2BBD-4A47-8C90-C83F37B7F23D";
width = 1512;
}
);
leftKerningGroup = A;
rightKerningGroup = A;
unicode = 00C1;
},
{
glyphname = "Alpha-latin";
layers = (
{
background = {
components = (
{
name = O;
}
);
};
guideLines = (
{
angle = 81.2538;
position = "{1471, 95}";
}
);
layerId = "F85E8FEC-B3CD-4A54-BF30-AB1986ECE904";
paths = (
{
closed = 1;
nodes = (
"905 -22 OFFCURVE",
"1048 23 OFFCURVE",
"1213 159 CURVE",
"1140 211 LINE",
"1184 76 OFFCURVE",
"1213 0 OFFCURVE",
"1404 0 CURVE SMOOTH",
"1456 0 LINE",
"1480 152 LINE",
"1356 152 OFFCURVE",
"1335 179 OFFCURVE",
"1335 331 CURVE SMOOTH",
"1335 1446 LINE",
"1143 1446 LINE",
"1143 1286 LINE",
"1153 1311 LINE",
"1096 1392 OFFCURVE",
"964 1473 OFFCURVE",
"741 1473 CURVE SMOOTH",
"377 1473 OFFCURVE",
"186 1285 OFFCURVE",
"186 995 CURVE SMOOTH",
"186 437 LINE SMOOTH",
"186 139 OFFCURVE",
"363 -22 OFFCURVE",
"721 -22 CURVE SMOOTH"
);
},
{
closed = 1;
nodes = (
"506 141 OFFCURVE",
"388 231 OFFCURVE",
"388 419 CURVE SMOOTH",
"388 1016 LINE SMOOTH",
"388 1192 OFFCURVE",
"504 1306 OFFCURVE",
"761 1306 CURVE SMOOTH",
"1039 1306 OFFCURVE",
"1133 1188 OFFCURVE",
"1133 1056 CURVE SMOOTH",
"1133 255 LINE",
"1085 211 OFFCURVE",
"975 141 OFFCURVE",
"764 141 CURVE SMOOTH"
);
}
);
width = 1546;
},
{
background = {
components = (
{
name = O;
}
);
};
guideLines = (
{
angle = 87.0318;
position = "{1440, 133}";
}
);
layerId = "C6C96970-2BBD-4A47-8C90-C83F37B7F23D";
paths = (
{
closed = 1;
nodes = (
"914 -23 OFFCURVE",
"1043 17 OFFCURVE",
"1186 156 CURVE",
"1081 211 LINE",
"1110 53 OFFCURVE",
"1209 -2 OFFCURVE",
"1400 -2 CURVE SMOOTH",
"1473 -2 LINE",
"1485 223 LINE",
"1399 223 OFFCURVE",
"1376 251 OFFCURVE",
"1376 345 CURVE SMOOTH",
"1376 1476 LINE",
"1117 1476 LINE",
"1071 1313 LINE",
"1112 1368 LINE",
"1034 1452 OFFCURVE",
"885 1500 OFFCURVE",
"716 1500 CURVE SMOOTH",
"331 1500 OFFCURVE",
"160 1289 OFFCURVE",
"160 1018 CURVE SMOOTH",
"160 472 LINE SMOOTH",
"160 176 OFFCURVE",
"351 -23 OFFCURVE",
"733 -23 CURVE SMOOTH"
);
},
{
closed = 1;
nodes = (
"595 207 OFFCURVE",
"458 287 OFFCURVE",
"458 446 CURVE SMOOTH",
"458 1016 LINE SMOOTH",
"458 1188 OFFCURVE",
"590 1267 OFFCURVE",
"801 1267 CURVE SMOOTH",
"1000 1267 OFFCURVE",
"1078 1211 OFFCURVE",
"1078 1181 CURVE SMOOTH",
"1078 276 LINE",
"1024 242 OFFCURVE",
"924 207 OFFCURVE",
"767 207 CURVE SMOOTH"
);
}
);
width = 1595;
}
);
unicode = 2C6D;
},
{
glyphname = Astroke;
layers = (
{
components = (
{
name = A;
}
);
layerId = "F85E8FEC-B3CD-4A54-BF30-AB1986ECE904";
paths = (
{
closed = 1;
nodes = (
"489 -245 LINE",
"1168 1588 LINE",
"1064 1626 LINE",
"386 -207 LINE"
);
}
);
width = 1428;
},
{
components = (
{
name = A;
}
);
layerId = "C6C96970-2BBD-4A47-8C90-C83F37B7F23D";
paths = (
{
closed = 1;
nodes = (
"538 -195 LINE",
"1237 1638 LINE",
"1133 1676 LINE",
"435 -157 LINE"
);
}
);
width = 1512;
}
);
leftKerningGroup = A;
rightKerningGroup = A;
unicode = 023A;
},
{
glyphname = AE;
layers = (
{
anchors = (
{
name = top;
position = "{987, 1446}";
}
);
layerId = "F85E8FEC-B3CD-4A54-BF30-AB1986ECE904";
paths = (
{
closed = 1;
nodes = (
"874 502 LINE",
"874 0 LINE",
"1559 0 LINE",
"1559 150 LINE",
"1065 150 LINE",
"1065 664 LINE",
"1489 664 LINE",
"1489 814 LINE",
"1065 814 LINE",
"1065 1296 LINE",
"1550 1296 LINE",
"1550 1446 LINE",
"492 1446 LINE",
"98 3 LINE",
"302 0 LINE",
"632 1296 LINE",
"874 1296 LINE",
"874 650 LINE",
"335 650 LINE",
"299 502 LINE"
);
}
);
width = 1686;
},
{
anchors = (
{
name = top;
position = "{1066, 1476}";
}
);
layerId = "C6C96970-2BBD-4A47-8C90-C83F37B7F23D";
paths = (
{
closed = 1;
nodes = (
"893 414 LINE",
"893 0 LINE",
"1710 0 LINE",
"1710 227 LINE",
"1173 227 LINE",
"1173 645 LINE",
"1630 645 LINE",
"1630 858 LINE",
"1173 858 LINE",
"1173 1249 LINE",
"1700 1249 LINE",
"1700 1477 LINE",
"539 1477 LINE",
"83 0 LINE",
"393 0 LINE",
"757 1249 LINE",
"893 1249 LINE",
"893 644 LINE",
"451 644 LINE",
"396 414 LINE"
);
}
);
width = 1834;
}
);
unicode = 00C6;
},
{
glyphname = B;
layers = (
{
anchors = (
{
name = bottom;
position = "{710, 0}";
},
{
name = top;
position = "{710, 1446}";
}
);
layerId = "F85E8FEC-B3CD-4A54-BF30-AB1986ECE904";
paths = (
{
closed = 1;
nodes = (
"786 0 LINE SMOOTH",
"1138 0 OFFCURVE",
"1292 124 OFFCURVE",
"1292 411 CURVE SMOOTH",
"1292 606 OFFCURVE",
"1198 752 OFFCURVE",
"1007 779 CURVE",
"1004 763 LINE",
"1166 802 OFFCURVE",
"1222 911 OFFCURVE",
"1222 1049 CURVE SMOOTH",
"1222 1301 OFFCURVE",
"1143 1446 OFFCURVE",
"742 1446 CURVE SMOOTH",
"218 1446 LINE",
"218 0 LINE"
);
},
{
closed = 1;
nodes = (
"420 696 LINE",
"820 696 LINE SMOOTH",
"1041 696 OFFCURVE",
"1094 565 OFFCURVE",
"1094 433 CURVE SMOOTH",
"1094 197 OFFCURVE",
"995 149 OFFCURVE",
"771 149 CURVE SMOOTH",
"420 149 LINE"
);
},
{
closed = 1;
nodes = (
"420 1295 LINE",
"711 1295 LINE SMOOTH",
"955 1295 OFFCURVE",
"1021 1256 OFFCURVE",
"1021 1047 CURVE SMOOTH",
"1021 917 OFFCURVE",
"973 833 OFFCURVE",
"791 833 CURVE SMOOTH",
"420 833 LINE"
);
}
);
width = 1420;
},
{
anchors = (
{
name = bottom;
position = "{728, 0}";
},
{
name = top;
position = "{728, 1476}";
}
);
background = {
paths = (
{
closed = 1;
nodes = (
"190 0 LINE",
"830 0 LINE SMOOTH",
"1196 0 OFFCURVE",
"1351 139 OFFCURVE",
"1344 448 CURVE SMOOTH",
"1344 641 OFFCURVE",
"1297 776 OFFCURVE",
"1092 804 CURVE",
"1246 843 OFFCURVE",
"1280 938 OFFCURVE",
"1281 1088 CURVE SMOOTH",
"1281 1353 OFFCURVE",
"1171 1476 OFFCURVE",
"758 1476 CURVE SMOOTH",
"190 1476 LINE"
);
},
{
closed = 1;
nodes = (
"487 208 LINE",
"487 703 LINE",
"805 703 LINE SMOOTH",
"1027 703 OFFCURVE",
"1048 602 OFFCURVE",
"1048 455 CURVE SMOOTH",
"1048 250 OFFCURVE",
"1006 208 OFFCURVE",
"775 208 CURVE SMOOTH"
);
},
{
closed = 1;
nodes = (
"487 882 LINE",
"487 1273 LINE",
"739 1273 LINE SMOOTH",
"940 1273 OFFCURVE",
"978 1240 OFFCURVE",
"978 1085 CURVE SMOOTH",
"978 952 OFFCURVE",
"967 882 OFFCURVE",
"794 882 CURVE SMOOTH"
);
}
);
};
layerId = "C6C96970-2BBD-4A47-8C90-C83F37B7F23D";
paths = (
{
closed = 1;
nodes = (
"830 0 LINE SMOOTH",
"1196 0 OFFCURVE",
"1344 139 OFFCURVE",
"1344 448 CURVE SMOOTH",
"1344 653 OFFCURVE",
"1291 792 OFFCURVE",
"1053 808 CURVE",
"1053 796 LINE",
"1240 828 OFFCURVE",
"1281 926 OFFCURVE",
"1281 1088 CURVE SMOOTH",
"1281 1353 OFFCURVE",
"1171 1476 OFFCURVE",
"758 1476 CURVE SMOOTH",
"190 1476 LINE",
"190 0 LINE"
);
},
{
closed = 1;
nodes = (
"487 703 LINE",
"805 703 LINE SMOOTH",
"1027 703 OFFCURVE",
"1048 602 OFFCURVE",
"1048 455 CURVE SMOOTH",
"1048 250 OFFCURVE",
"1006 208 OFFCURVE",
"775 208 CURVE SMOOTH",
"487 208 LINE"
);
},
{
closed = 1;
nodes = (
"487 1273 LINE",
"739 1273 LINE SMOOTH",
"940 1273 OFFCURVE",
"978 1240 OFFCURVE",
"978 1085 CURVE SMOOTH",
"978 952 OFFCURVE",
"967 882 OFFCURVE",
"794 882 CURVE SMOOTH",
"487 882 LINE"
);
}
);
width = 1456.23;
}
);
rightKerningGroup = B;
unicode = 0042;
},
{
glyphname = "Beta-latin";
layers = (
{
layerId = "F85E8FEC-B3CD-4A54-BF30-AB1986ECE904";
paths = (
{
closed = 1;
nodes = (
"786 0 LINE SMOOTH",
"1138 0 OFFCURVE",
"1292 124 OFFCURVE",
"1292 411 CURVE SMOOTH",
"1292 606 OFFCURVE",
"1198 752 OFFCURVE",
"1007 779 CURVE",
"1004 763 LINE",
"1166 802 OFFCURVE",
"1222 911 OFFCURVE",
"1222 1049 CURVE SMOOTH",
"1222 1301 OFFCURVE",
"1143 1446 OFFCURVE",
"742 1446 CURVE SMOOTH",
"218 1446 LINE",
"218 0 LINE"
);
},
{
closed = 1;
nodes = (
"420 696 LINE",
"820 696 LINE SMOOTH",
"1041 696 OFFCURVE",
"1094 565 OFFCURVE",
"1094 433 CURVE SMOOTH",
"1094 197 OFFCURVE",
"995 149 OFFCURVE",
"771 149 CURVE SMOOTH",
"420 149 LINE"
);
},
{
closed = 1;
nodes = (
"420 1295 LINE",
"711 1295 LINE SMOOTH",
"955 1295 OFFCURVE",
"1021 1256 OFFCURVE",
"1021 1047 CURVE SMOOTH",
"1021 917 OFFCURVE",
"973 833 OFFCURVE",
"791 833 CURVE SMOOTH",
"420 833 LINE"
);
},
{
closed = 1;
nodes = (
"218 -410 LINE",
"420 -410 LINE",
"420 73 LINE",
"218 73 LINE"
);
}
);
width = 1420;
},
{
layerId = "C6C96970-2BBD-4A47-8C90-C83F37B7F23D";
paths = (
{
closed = 1;
nodes = (
"830 0 LINE SMOOTH",
"1196 0 OFFCURVE",
"1344 139 OFFCURVE",
"1344 448 CURVE SMOOTH",
"1344 653 OFFCURVE",
"1291 792 OFFCURVE",
"1053 808 CURVE",
"1053 796 LINE",
"1240 828 OFFCURVE",
"1281 926 OFFCURVE",
"1281 1088 CURVE SMOOTH",
"1281 1353 OFFCURVE",
"1171 1476 OFFCURVE",
"758 1476 CURVE SMOOTH",
"190 1476 LINE",
"190 0 LINE"
);
},
{
closed = 1;
nodes = (
"487 703 LINE",
"805 703 LINE SMOOTH",
"1027 703 OFFCURVE",
"1048 602 OFFCURVE",
"1048 455 CURVE SMOOTH",
"1048 250 OFFCURVE",
"1006 208 OFFCURVE",
"775 208 CURVE SMOOTH",
"487 208 LINE"
);
},
{
closed = 1;
nodes = (
"487 1273 LINE",
"739 1273 LINE SMOOTH",
"940 1273 OFFCURVE",
"978 1240 OFFCURVE",
"978 1085 CURVE SMOOTH",
"978 952 OFFCURVE",
"967 882 OFFCURVE",
"794 882 CURVE SMOOTH",
"487 882 LINE"
);
},
{
closed = 1;
nodes = (
"190 -410 LINE",
"487 -410 LINE",
"487 73 LINE",
"190 73 LINE"
);
}
);
width = 1456;
}
);
rightKerningGroup = B;
unicode = A7B4;
},
{
glyphname = Bhook;
layers = (
{
components = (
{
name = B;
transform = "{1, 0, 0, 1, 131, 0}";
}
);
layerId = "F85E8FEC-B3CD-4A54-BF30-AB1986ECE904";
paths = (
{
closed = 1;
nodes = (
"172 1108 LINE SMOOTH",
"172 1235 OFFCURVE",
"208 1295 OFFCURVE",
"349 1295 CURVE",
"370 1446 LINE",
"102 1446 OFFCURVE",
"-20 1356 OFFCURVE",
"-20 1134 CURVE SMOOTH",
"-20 1078 LINE",
"172 1065 LINE"
);
}
);
width = 1551;
},
{
components = (
{
name = B;
transform = "{1, 0, 0, 1, 197, 0}";
}
);
layerId = "C6C96970-2BBD-4A47-8C90-C83F37B7F23D";
paths = (
{
closed = 1;
nodes = (
"216 1108 LINE SMOOTH",
"216 1227 OFFCURVE",
"260 1273 OFFCURVE",
"387 1273 CURVE",
"418 1476 LINE",
"68 1476 OFFCURVE",
"-24 1375 OFFCURVE",
"-24 1122 CURVE SMOOTH",
"-24 1038 LINE",
"216 1028 LINE"
);
}
);
width = 1653;
}
);
rightKerningGroup = B;
unicode = 0181;
},
{
glyphname = Bstroke;
layers = (
{
components = (
{
name = B;
}
);
layerId = "F85E8FEC-B3CD-4A54-BF30-AB1986ECE904";
paths = (
{
closed = 1;
nodes = (
"30 354 LINE",
"701 354 LINE",
"701 498 LINE",
"30 498 LINE"
);
}
);
width = 1420;
},
{
components = (
{
name = B;
}
);
layerId = "C6C96970-2BBD-4A47-8C90-C83F37B7F23D";
paths = (
{
closed = 1;
nodes = (
"30 363 LINE",
"716 363 LINE",
"716 553 LINE",
"30 553 LINE"
);
}
);
width = 1456;
}
);
rightKerningGroup = B;
unicode = 0243;
},
{
glyphname = C;
layers = (
{
anchors = (
{
name = bottom;
position = "{765, 0}";
},
{
name = top;
position = "{765, 1446}";
}
);
background = {
paths = (
{
closed = 1;
nodes = (
"761 -22 CURVE SMOOTH",
"1221 -22 OFFCURVE",
"1298 147 OFFCURVE",
"1300 438 CURVE SMOOTH",
"1300 442 OFFCURVE",
"1300 445 OFFCURVE",
"1300 448 CURVE",
"1109 448 LINE",
"1109 440 OFFCURVE",
"1109 432 OFFCURVE",
"1109 424 CURVE SMOOTH",
"1104 165 OFFCURVE",
"1016 140 OFFCURVE",
"765 140 CURVE SMOOTH",
"509 140 OFFCURVE",
"384 199 OFFCURVE",
"384 455 CURVE SMOOTH",
"384 977 LINE SMOOTH",
"384 1234 OFFCURVE",
"505 1306 OFFCURVE",
"759 1306 CURVE SMOOTH",
"1017 1306 OFFCURVE",
"1103 1269 OFFCURVE",
"1109 1007 CURVE SMOOTH",
"1109 998 OFFCURVE",
"1109 989 OFFCURVE",
"1109 980 CURVE",
"1300 997 LINE",
"1300 1001 OFFCURVE",
"1300 1006 OFFCURVE",
"1300 1010 CURVE SMOOTH",
"1297 1308 OFFCURVE",
"1197 1468 OFFCURVE",
"759 1468 CURVE SMOOTH",
"274 1468 OFFCURVE",
"182 1246 OFFCURVE",
"182 940 CURVE SMOOTH",
"182 486 LINE SMOOTH",
"182 185 OFFCURVE",
"278 -22 OFFCURVE"
);
}
);
};
layerId = "F85E8FEC-B3CD-4A54-BF30-AB1986ECE904";
paths = (
{
closed = 1;
nodes = (
"1221 -22 OFFCURVE",
"1300 147 OFFCURVE",
"1300 438 CURVE SMOOTH",
"1300 448 LINE",
"1109 448 LINE",
"1109 424 LINE SMOOTH",
"1109 165 OFFCURVE",
"1016 140 OFFCURVE",
"765 140 CURVE SMOOTH",
"509 140 OFFCURVE",
"384 199 OFFCURVE",
"384 455 CURVE SMOOTH",
"384 977 LINE SMOOTH",
"384 1234 OFFCURVE",
"505 1306 OFFCURVE",
"759 1306 CURVE SMOOTH",
"1017 1306 OFFCURVE",
"1109 1269 OFFCURVE",
"1109 1007 CURVE SMOOTH",
"1109 980 LINE",
"1300 997 LINE",
"1300 1010 LINE SMOOTH",
"1300 1308 OFFCURVE",
"1197 1468 OFFCURVE",
"759 1468 CURVE SMOOTH",
"274 1468 OFFCURVE",
"182 1246 OFFCURVE",
"182 940 CURVE SMOOTH",
"182 486 LINE SMOOTH",
"182 185 OFFCURVE",
"278 -22 OFFCURVE",
"761 -22 CURVE SMOOTH"
);
}
);
width = 1456;
},
{
anchors = (
{
name = bottom;
position = "{777, 0}";
},
{
name = top;
position = "{780, 1476}";
}
);
layerId = "C6C96970-2BBD-4A47-8C90-C83F37B7F23D";
paths = (
{
closed = 1;
nodes = (
"1292 -26 OFFCURVE",
"1362 190 OFFCURVE",
"1362 480 CURVE SMOOTH",
"1362 507 LINE",
"1071 507 LINE",
"1071 460 LINE SMOOTH",
"1071 250 OFFCURVE",
"1006 207 OFFCURVE",
"781 207 CURVE SMOOTH",
"559 207 OFFCURVE",
"457 252 OFFCURVE",
"457 454 CURVE SMOOTH",
"457 1012 LINE SMOOTH",
"457 1215 OFFCURVE",
"560 1268 OFFCURVE",
"780 1268 CURVE SMOOTH",
"1005 1268 OFFCURVE",
"1071 1213 OFFCURVE",
"1071 1006 CURVE SMOOTH",
"1071 931 LINE",
"1362 965 LINE",
"1362 983 LINE SMOOTH",
"1362 1281 OFFCURVE",
"1284 1501 OFFCURVE",
"780 1501 CURVE SMOOTH",
"251 1501 OFFCURVE",
"160 1275 OFFCURVE",
"160 977 CURVE SMOOTH",
"160 484 LINE SMOOTH",
"160 193 OFFCURVE",
"254 -26 OFFCURVE",
"780 -26 CURVE SMOOTH"
);
}
);
width = 1490;
}
);
leftKerningGroup = C;
rightKerningGroup = C;
unicode = 0043;
},
{
glyphname = "Chi-latin";
layers = (
{
background = {
paths = (
{
closed = 1;
nodes = (
"1232 -408 LINE",
"320 1446 LINE",
"106 1446 LINE",
"1017 -408 LINE"
);
},
{
closed = 1;
nodes = (
"1217 1446 LINE",
"1004 1446 LINE",
"654 694 LINE",
"753 484 LINE"
);
},
{
closed = 1;
nodes = (
"84 -408 LINE",
"296 -408 LINE",
"665 366 LINE",
"563 575 LINE"
);
}
);
};
layerId = "F85E8FEC-B3CD-4A54-BF30-AB1986ECE904";
paths = (
{
closed = 1;
nodes = (
"1276 -408 LINE",
"1290 -258 LINE",
"1255 -258 LINE SMOOTH",
"1183 -258 OFFCURVE",
"1145 -230 OFFCURVE",
"1100 -139 CURVE SMOOTH",
"422 1239 LINE SMOOTH",
"340 1406 OFFCURVE",
"272 1446 OFFCURVE",
"128 1446 CURVE SMOOTH",
"63 1446 LINE",
"49 1296 LINE",
"84 1296 LINE SMOOTH",
"156 1296 OFFCURVE",
"193 1268 OFFCURVE",
"238 1177 CURVE SMOOTH",
"915 -201 LINE SMOOTH",
"997 -368 OFFCURVE",
"1067 -408 OFFCURVE",
"1211 -408 CURVE SMOOTH"
);
},
{
closed = 1;
nodes = (
"297 -408 LINE",
"664 376 LINE",
"565 586 LINE",
"84 -408 LINE"
);
},
{
closed = 1;
nodes = (
"1217 1446 LINE",
"1004 1446 LINE",
"654 694 LINE",
"753 484 LINE"
);
}
);
width = 1306;
},
{
layerId = "C6C96970-2BBD-4A47-8C90-C83F37B7F23D";
paths = (
{
closed = 1;
nodes = (
"1325 -410 LINE",
"1335 -179 LINE",
"1292 -179 LINE SMOOTH",
"1214 -179 OFFCURVE",
"1185 -156 OFFCURVE",
"1140 -66 CURVE SMOOTH",
"491 1233 LINE SMOOTH",
"398 1419 OFFCURVE",
"336 1476 OFFCURVE",
"146 1476 CURVE SMOOTH",
"38 1476 LINE",
"28 1245 LINE",
"71 1245 LINE SMOOTH",
"149 1245 OFFCURVE",
"178 1222 OFFCURVE",
"223 1132 CURVE SMOOTH",
"872 -167 LINE SMOOTH",
"966 -355 OFFCURVE",
"1027 -410 OFFCURVE",
"1217 -410 CURVE SMOOTH"
);
},
{
closed = 1;
nodes = (
"356 -410 LINE",
"710 355 LINE",
"525 598 LINE",
"38 -410 LINE"
);
},
{
closed = 1;
nodes = (
"1297 1476 LINE",
"979 1476 LINE",
"610 731 LINE",
"795 488 LINE"
);
}
);
width = 1352;
}
);
unicode = A7B3;
},
{
glyphname = Chook;
layers = (
{
layerId = "F85E8FEC-B3CD-4A54-BF30-AB1986ECE904";
paths = (
{
closed = 1;
nodes = (
"1221 -22 OFFCURVE",
"1300 147 OFFCURVE",
"1300 438 CURVE SMOOTH",
"1300 448 LINE",
"1109 448 LINE",
"1109 424 LINE SMOOTH",
"1109 165 OFFCURVE",
"1016 140 OFFCURVE",
"765 140 CURVE SMOOTH",
"509 140 OFFCURVE",
"384 199 OFFCURVE",
"384 455 CURVE SMOOTH",
"384 977 LINE SMOOTH",
"384 1234 OFFCURVE",
"505 1306 OFFCURVE",
"759 1306 CURVE SMOOTH",
"1017 1306 OFFCURVE",
"1109 1269 OFFCURVE",
"1109 1007 CURVE SMOOTH",
"1109 980 LINE",
"1300 997 LINE",
"1300 1353 LINE SMOOTH",
"1300 1500 OFFCURVE",
"1340 1540 OFFCURVE",
"1460 1540 CURVE SMOOTH",
"1493 1540 LINE",
"1480 1692 LINE",
"1413 1692 LINE SMOOTH",
"1202 1692 OFFCURVE",
"1123 1599 OFFCURVE",
"1123 1360 CURVE",
"1143 1386 LINE",
"1059 1441 OFFCURVE",
"937 1468 OFFCURVE",
"759 1468 CURVE SMOOTH",
"274 1468 OFFCURVE",
"182 1246 OFFCURVE",
"182 940 CURVE SMOOTH",
"182 486 LINE SMOOTH",
"182 185 OFFCURVE",
"278 -22 OFFCURVE",
"761 -22 CURVE SMOOTH"
);
}
);
width = 1456;
},
{
layerId = "C6C96970-2BBD-4A47-8C90-C83F37B7F23D";
paths = (
{
closed = 1;
nodes = (
"1292 -26 OFFCURVE",
"1362 190 OFFCURVE",
"1362 480 CURVE SMOOTH",
"1362 507 LINE",
"1071 507 LINE",
"1071 460 LINE SMOOTH",
"1071 250 OFFCURVE",
"1006 207 OFFCURVE",
"781 207 CURVE SMOOTH",
"559 207 OFFCURVE",
"457 252 OFFCURVE",
"457 454 CURVE SMOOTH",
"457 1012 LINE SMOOTH",
"457 1215 OFFCURVE",
"560 1268 OFFCURVE",
"780 1268 CURVE SMOOTH",
"1005 1268 OFFCURVE",
"1071 1213 OFFCURVE",
"1071 1006 CURVE SMOOTH",
"1071 931 LINE",
"1362 965 LINE",
"1362 1381 LINE SMOOTH",
"1362 1478 OFFCURVE",
"1399 1522 OFFCURVE",
"1478 1522 CURVE SMOOTH",
"1508 1522 LINE",
"1498 1750 LINE",
"1404 1750 LINE SMOOTH",
"1188 1750 OFFCURVE",
"1106 1639 OFFCURVE",
"1106 1416 CURVE",
"1128 1424 LINE",
"1045 1479 OFFCURVE",
"942 1501 OFFCURVE",
"780 1501 CURVE SMOOTH",
"251 1501 OFFCURVE",
"160 1275 OFFCURVE",
"160 977 CURVE SMOOTH",
"160 484 LINE SMOOTH",
"160 193 OFFCURVE",
"254 -26 OFFCURVE",
"780 -26 CURVE SMOOTH"
);
}
);
width = 1490;
}
);
leftKerningGroup = C;
rightKerningGroup = C;
unicode = 0187;
},
{
glyphname = Cstroke;
layers = (
{
components = (
{
name = C;
}
);
layerId = "F85E8FEC-B3CD-4A54-BF30-AB1986ECE904";
paths = (
{
closed = 1;
nodes = (
"439 -195 LINE",
"1118 1638 LINE",
"1014 1676 LINE",
"336 -157 LINE"
);
}
);
width = 1456;
},
{
components = (
{
name = C;
}
);
layerId = "C6C96970-2BBD-4A47-8C90-C83F37B7F23D";
paths = (
{
closed = 1;
nodes = (
"418 -195 LINE",
"1117 1638 LINE",
"1013 1676 LINE",
"315 -157 LINE"
);
}
);
width = 1490;
}
);
leftKerningGroup = C;
rightKerningGroup = C;
unicode = 023B;
},
{
glyphname = D;
layers = (
{
anchors = (
{
name = bottom;
position = "{761, 0}";
},
{
name = center;
position = "{761, 723}";
},
{
name = top;
position = "{761, 1446}";
}
);
layerId = "F85E8FEC-B3CD-4A54-BF30-AB1986ECE904";
paths = (
{
closed = 1;
nodes = (
"794 0 LINE SMOOTH",
"1161 0 OFFCURVE",
"1340 169 OFFCURVE",
"1340 482 CURVE SMOOTH",
"1340 959 LINE SMOOTH",
"1340 1235 OFFCURVE",
"1193 1446 OFFCURVE",
"792 1446 CURVE SMOOTH",
"218 1446 LINE",
"218 0 LINE"
);
},
{
closed = 1;
nodes = (
"420 1295 LINE",
"774 1295 LINE SMOOTH",
"980 1295 OFFCURVE",
"1139 1238 OFFCURVE",
"1139 971 CURVE SMOOTH",
"1139 462 LINE SMOOTH",
"1139 196 OFFCURVE",
"982 150 OFFCURVE",
"774 150 CURVE SMOOTH",
"420 150 LINE"
);
}
);
width = 1522;
},
{
anchors = (
{
name = bottom;
position = "{767, 0}";
},
{
name = center;
position = "{767, 738}";
},
{
name = top;
position = "{767, 1476}";
}
);
layerId = "C6C96970-2BBD-4A47-8C90-C83F37B7F23D";
paths = (
{
closed = 1;
nodes = (
"831 0 LINE SMOOTH",
"1246 0 OFFCURVE",
"1374 213 OFFCURVE",
"1374 508 CURVE SMOOTH",
"1374 961 LINE SMOOTH",
"1374 1250 OFFCURVE",
"1258 1476 OFFCURVE",
"830 1476 CURVE SMOOTH",
"190 1476 LINE",
"190 0 LINE"
);
},
{
closed = 1;
nodes = (
"487 1245 LINE",
"805 1245 LINE SMOOTH",
"1011 1245 OFFCURVE",
"1077 1160 OFFCURVE",
"1077 1000 CURVE SMOOTH",
"1077 470 LINE SMOOTH",
"1077 306 OFFCURVE",
"1014 231 OFFCURVE",
"805 231 CURVE SMOOTH",
"487 231 LINE"
);
}
);
width = 1534;
}
);
rightKerningGroup = D;
unicode = 0044;
},
{
glyphname = Eth;
layers = (
{
layerId = "F85E8FEC-B3CD-4A54-BF30-AB1986ECE904";
paths = (
{
closed = 1;
nodes = (
"794 0 LINE SMOOTH",
"1161 0 OFFCURVE",
"1340 169 OFFCURVE",
"1340 482 CURVE SMOOTH",
"1340 959 LINE SMOOTH",
"1340 1235 OFFCURVE",
"1193 1446 OFFCURVE",
"792 1446 CURVE SMOOTH",
"218 1446 LINE",
"218 0 LINE"
);
},
{
closed = 1;
nodes = (
"420 1295 LINE",
"774 1295 LINE SMOOTH",
"980 1295 OFFCURVE",
"1139 1238 OFFCURVE",
"1139 971 CURVE SMOOTH",
"1139 462 LINE SMOOTH",
"1139 196 OFFCURVE",
"982 150 OFFCURVE",
"774 150 CURVE SMOOTH",
"420 150 LINE"
);
},
{
closed = 1;
nodes = (
"681 694 LINE",
"681 837 LINE",
"21 837 LINE",
"21 694 LINE"
);
}
);
width = 1522;
},
{
layerId = "C6C96970-2BBD-4A47-8C90-C83F37B7F23D";
paths = (
{
closed = 1;
nodes = (
"831 0 LINE SMOOTH",
"1246 0 OFFCURVE",
"1374 213 OFFCURVE",
"1374 508 CURVE SMOOTH",
"1374 961 LINE SMOOTH",
"1374 1250 OFFCURVE",
"1258 1476 OFFCURVE",
"830 1476 CURVE SMOOTH",
"190 1476 LINE",
"190 0 LINE"
);
},
{
closed = 1;
nodes = (
"487 1245 LINE",
"805 1245 LINE SMOOTH",
"1011 1245 OFFCURVE",
"1077 1160 OFFCURVE",
"1077 1000 CURVE SMOOTH",
"1077 470 LINE SMOOTH",
"1077 306 OFFCURVE",
"1014 231 OFFCURVE",
"805 231 CURVE SMOOTH",
"487 231 LINE"
);
},
{
closed = 1;
nodes = (
"713 706 LINE",
"713 854 LINE",
"9 854 LINE",
"9 706 LINE"
);
}
);
width = 1534;
}
);
rightKerningGroup = D;
unicode = 00D0;
},
{
glyphname = Dhook;
layers = (
{
components = (
{
name = D;
transform = "{1, 0, 0, 1, 131, 0}";
}
);
layerId = "F85E8FEC-B3CD-4A54-BF30-AB1986ECE904";
paths = (
{
closed = 1;
nodes = (
"172 1108 LINE SMOOTH",
"172 1235 OFFCURVE",
"208 1295 OFFCURVE",
"349 1295 CURVE",
"370 1446 LINE",
"102 1446 OFFCURVE",
"-20 1356 OFFCURVE",
"-20 1134 CURVE SMOOTH",
"-20 1078 LINE",
"172 1065 LINE"
);
}
);
width = 1653;
},
{
components = (
{
name = D;
transform = "{1, 0, 0, 1, 197, 0}";
}
);
layerId = "C6C96970-2BBD-4A47-8C90-C83F37B7F23D";
paths = (
{
closed = 1;
nodes = (
"216 1108 LINE SMOOTH",
"216 1227 OFFCURVE",
"260 1273 OFFCURVE",
"387 1273 CURVE",
"418 1476 LINE",
"68 1476 OFFCURVE",
"-24 1375 OFFCURVE",
"-24 1122 CURVE SMOOTH",
"-24 1038 LINE",
"216 1028 LINE"
);
}
);
width = 1731;
}
);
rightKerningGroup = D;
unicode = 018A;
},
{
glyphname = E;
layers = (
{
anchors = (
{
name = bottom;
position = "{670, 0}";
},
{
name = ogonek;
position = "{1133, 0}";
},
{
name = top;
position = "{670, 1446}";
},
{
name = topleft;
position = "{20, 1446}";
}
);
layerId = "F85E8FEC-B3CD-4A54-BF30-AB1986ECE904";
paths = (
{
closed = 1;
nodes = (
"218 0 LINE",
"1133 0 LINE",
"1133 150 LINE",
"419 150 LINE",
"419 670 LINE",
"1039 670 LINE",
"1039 820 LINE",
"419 820 LINE",
"419 1296 LINE",
"1121 1296 LINE",
"1121 1446 LINE",
"218 1446 LINE"
);
}
);
width = 1255;
},
{
anchors = (
{
name = bottom;
position = "{675, 0}";
},
{
name = ogonek;
position = "{1168, 0}";
},
{
name = top;
position = "{675, 1476}";
},
{
name = topleft;
position = "{20, 1476}";
}
);
layerId = "C6C96970-2BBD-4A47-8C90-C83F37B7F23D";
paths = (
{
closed = 1;
nodes = (
"190 0 LINE",
"1168 0 LINE",
"1168 224 LINE",
"486 224 LINE",
"486 646 LINE",
"1081 646 LINE",
"1081 860 LINE",
"486 860 LINE",
"486 1252 LINE",
"1157 1252 LINE",
"1157 1476 LINE",
"190 1476 LINE"
);
}
);
width = 1294;
}
);
unicode = 0045;
},
{
glyphname = Eopen;
layers = (
{
layerId = "F85E8FEC-B3CD-4A54-BF30-AB1986ECE904";
paths = (
{
closed = 1;
nodes = (
"1000 -22 OFFCURVE",
"1131 91 OFFCURVE",
"1170 431 CURVE",
"978 431 LINE",
"960 189 OFFCURVE",
"847 140 OFFCURVE",
"620 140 CURVE SMOOTH",
"412 140 OFFCURVE",
"329 230 OFFCURVE",
"329 399 CURVE SMOOTH",
"329 622 OFFCURVE",
"385 691 OFFCURVE",
"738 691 CURVE",
"738 840 LINE",
"374 840 OFFCURVE",
"360 924 OFFCURVE",
"360 1088 CURVE SMOOTH",
"360 1224 OFFCURVE",
"429 1306 OFFCURVE",
"637 1306 CURVE SMOOTH",
"881 1306 OFFCURVE",
"967 1244 OFFCURVE",
"967 1005 CURVE",
"1158 1025 LINE",
"1158 1393 OFFCURVE",
"931 1468 OFFCURVE",
"638 1468 CURVE SMOOTH",
"354 1468 OFFCURVE",
"158 1354 OFFCURVE",
"158 1091 CURVE SMOOTH",
"158 889 OFFCURVE",
"240 782 OFFCURVE",
"459 764 CURVE",
"454 773 LINE",
"246 744 OFFCURVE",
"124 656 OFFCURVE",
"124 398 CURVE SMOOTH",
"124 122 OFFCURVE",
"310 -22 OFFCURVE",
"633 -22 CURVE SMOOTH"
);
}
);
width = 1250;
},
{
layerId = "C6C96970-2BBD-4A47-8C90-C83F37B7F23D";
paths = (
{
closed = 1;
nodes = (
"1137 -27 OFFCURVE",
"1298 146 OFFCURVE",
"1298 436 CURVE",
"1030 436 LINE",
"1030 251 OFFCURVE",
"949 198 OFFCURVE",
"727 198 CURVE SMOOTH",
"518 198 OFFCURVE",
"442 281 OFFCURVE",
"442 425 CURVE SMOOTH",
"442 593 OFFCURVE",
"508 650 OFFCURVE",
"766 650 CURVE",
"766 849 LINE",
"478 849 OFFCURVE",
"450 914 OFFCURVE",
"450 1074 CURVE SMOOTH",
"450 1210 OFFCURVE",
"510 1279 OFFCURVE",
"733 1279 CURVE SMOOTH",
"963 1279 OFFCURVE",
"1025 1218 OFFCURVE",
"1025 1033 CURVE",
"1292 1033 LINE",
"1292 1387 OFFCURVE",
"1086 1503 OFFCURVE",
"736 1503 CURVE SMOOTH",
"390 1503 OFFCURVE",
"173 1357 OFFCURVE",
"173 1088 CURVE SMOOTH",
"173 924 OFFCURVE",
"213 772 OFFCURVE",
"439 745 CURVE",
"433 760 LINE",
"226 722 OFFCURVE",
"160 576 OFFCURVE",
"160 412 CURVE SMOOTH",
"160 167 OFFCURVE",
"313 -27 OFFCURVE",
"730 -27 CURVE SMOOTH"
);
}
);
width = 1480;
}
);
unicode = 0190;
},
{
glyphname = Ereversed;
layers = (
{
layerId = "F85E8FEC-B3CD-4A54-BF30-AB1986ECE904";
paths = (
{
closed = 1;
nodes = (
"134 1446 LINE",
"134 1296 LINE",
"836 1296 LINE",
"836 820 LINE",
"216 820 LINE",
"216 670 LINE",
"836 670 LINE",
"836 150 LINE",
"122 150 LINE",
"122 0 LINE",
"1037 0 LINE",
"1037 1446 LINE"
);
}
);
width = 1255;
},
{
layerId = "C6C96970-2BBD-4A47-8C90-C83F37B7F23D";
paths = (
{
closed = 1;
nodes = (
"137 1476 LINE",
"137 1252 LINE",
"808 1252 LINE",
"808 860 LINE",
"213 860 LINE",
"213 646 LINE",
"808 646 LINE",
"808 224 LINE",
"126 224 LINE",
"126 0 LINE",
"1104 0 LINE",
"1104 1476 LINE"
);
}
);
width = 1294;
}
);
unicode = 018E;
},
{
glyphname = Esh;
layers = (
{
background = {
paths = (
{
closed = 1;
nodes = (
"122 0 LINE",
"1037 0 LINE",
"1037 150 LINE",
"323 150 LINE",
"323 670 LINE",
"943 670 LINE",
"943 820 LINE",
"323 820 LINE",
"323 1296 LINE",
"1025 1296 LINE",
"1025 1446 LINE",
"122 1446 LINE"
);
}
);
};
layerId = "F85E8FEC-B3CD-4A54-BF30-AB1986ECE904";
paths = (
{
closed = 1;
nodes = (
"1037 0 LINE",
"1037 150 LINE",
"286 150 LINE",
"303 127 LINE",
"787 738 LINE",
"787 807 LINE",
"315 1318 LINE",
"282 1296 LINE",
"1025 1296 LINE",
"1025 1446 LINE",
"122 1446 LINE",
"122 1298 LINE",
"646 729 LINE",
"636 797 LINE",
"122 155 LINE",
"122 0 LINE"
);
}
);
width = 1159;
},
{
background = {
components = (
{
name = E;
transform = "{1, 0, 0, 1, -67, 0}";
}
);
};
layerId = "C6C96970-2BBD-4A47-8C90-C83F37B7F23D";
paths = (
{
closed = 1;
nodes = (
"1102 0 LINE",
"1102 224 LINE",
"434 224 LINE",
"450 192 LINE",
"906 734 LINE",
"906 812 LINE",
"467 1284 LINE",
"437 1252 LINE",
"1090 1252 LINE",
"1090 1476 LINE",
"125 1476 LINE",
"125 1291 LINE",
"646 728 LINE",
"636 795 LINE",
"125 191 LINE",
"125 0 LINE"
);
}
);
width = 1227;
}
);
unicode = 01A9;
},
{
glyphname = Estroke;
layers = (
{
layerId = "F85E8FEC-B3CD-4A54-BF30-AB1986ECE904";
paths = (
{
closed = 1;
nodes = (
"218 0 LINE",
"1173 0 LINE",
"1173 150 LINE",
"419 150 LINE",
"419 670 LINE",
"1079 670 LINE",
"1079 820 LINE",
"419 820 LINE",
"419 1296 LINE",
"1161 1296 LINE",
"1161 1446 LINE",
"218 1446 LINE"
);
},
{
closed = 1;
nodes = (
"542 -217 LINE",
"1058 1669 LINE",
"951 1697 LINE",
"436 -188 LINE"
);
}
);
width = 1295;
},
{
layerId = "C6C96970-2BBD-4A47-8C90-C83F37B7F23D";
paths = (
{
closed = 1;
nodes = (
"190 0 LINE",
"1208 0 LINE",
"1208 224 LINE",
"486 224 LINE",
"486 646 LINE",
"1121 646 LINE",
"1121 860 LINE",
"486 860 LINE",
"486 1252 LINE",
"1197 1252 LINE",
"1197 1476 LINE",
"190 1476 LINE"
);
},
{
closed = 1;
nodes = (
"561 -217 LINE",
"1097 1670 LINE",
"990 1698 LINE",
"455 -189 LINE"
);
}
);
width = 1334;
}
);
unicode = 0246;
},
{
glyphname = Ezh;
layers = (
{
anchors = (
{
name = bottom;
position = "{645, 0}";
},
{
name = top;
position = "{665, 1446}";
}
);
layerId = "F85E8FEC-B3CD-4A54-BF30-AB1986ECE904";
paths = (
{
closed = 1;
nodes = (
"960 -420 OFFCURVE",
"1146 -237 OFFCURVE",
"1146 113 CURVE SMOOTH",
"1146 484 OFFCURVE",
"947 676 OFFCURVE",
"532 676 CURVE",
"532 516 LINE",
"885 516 OFFCURVE",
"941 398 OFFCURVE",
"941 115 CURVE SMOOTH",
"941 -144 OFFCURVE",
"858 -258 OFFCURVE",
"650 -258 CURVE SMOOTH",
"423 -258 OFFCURVE",
"310 -196 OFFCURVE",
"292 156 CURVE",
"100 156 LINE",
"139 -276 OFFCURVE",
"270 -420 OFFCURVE",
"637 -420 CURVE SMOOTH"
);
},
{
closed = 1;
nodes = (
"1135 1258 LINE",
"1135 1446 LINE",
"172 1446 LINE",
"172 1296 LINE",
"975 1296 LINE",
"971 1325 LINE",
"532 676 LINE",
"651 534 LINE"
);
}
);
width = 1266;
},
{
anchors = (
{
name = bottom;
position = "{684, 0}";
},
{
name = top;
position = "{704, 1476}";
}
);
layerId = "C6C96970-2BBD-4A47-8C90-C83F37B7F23D";
paths = (
{
closed = 1;
nodes = (
"1111 -429 OFFCURVE",
"1264 -183 OFFCURVE",
"1264 128 CURVE SMOOTH",
"1264 477 OFFCURVE",
"1084 706 OFFCURVE",
"558 706 CURVE",
"558 485 LINE",
"916 485 OFFCURVE",
"982 367 OFFCURVE",
"982 134 CURVE SMOOTH",
"982 -89 OFFCURVE",
"906 -204 OFFCURVE",
"697 -204 CURVE SMOOTH",
"475 -204 OFFCURVE",
"394 -86 OFFCURVE",
"394 158 CURVE",
"126 158 LINE",
"126 -210 OFFCURVE",
"287 -429 OFFCURVE",
"694 -429 CURVE SMOOTH"
);
},
{
closed = 1;
nodes = (
"1224 1242 LINE",
"1224 1476 LINE",
"199 1476 LINE",
"199 1252 LINE",
"942 1252 LINE",
"936 1268 LINE",
"558 706 LINE",
"808 600 LINE"
);
}
);
width = 1410;
}
);
unicode = 01B7;
},
{
glyphname = Ezhreversed;
layers = (
{
layerId = "F85E8FEC-B3CD-4A54-BF30-AB1986ECE904";
paths = (
{
closed = 1;
nodes = (
"976 -420 OFFCURVE",
"1107 -276 OFFCURVE",
"1146 156 CURVE",
"954 156 LINE",
"936 -196 OFFCURVE",
"823 -258 OFFCURVE",
"596 -258 CURVE SMOOTH",
"388 -258 OFFCURVE",
"305 -144 OFFCURVE",
"305 115 CURVE SMOOTH",
"305 398 OFFCURVE",
"361 516 OFFCURVE",
"714 516 CURVE",
"714 676 LINE",
"299 676 OFFCURVE",
"100 484 OFFCURVE",
"100 113 CURVE SMOOTH",
"100 -237 OFFCURVE",
"286 -420 OFFCURVE",
"609 -420 CURVE SMOOTH"
);
},
{
closed = 1;
nodes = (
"714 676 LINE",
"275 1325 LINE",
"271 1296 LINE",
"1074 1296 LINE",
"1074 1446 LINE",
"111 1446 LINE",
"111 1258 LINE",
"595 534 LINE"
);
}
);
width = 1226;
},
{
layerId = "C6C96970-2BBD-4A47-8C90-C83F37B7F23D";
paths = (
{
closed = 1;
nodes = (
"1123 -429 OFFCURVE",
"1284 -210 OFFCURVE",
"1284 158 CURVE",
"1016 158 LINE",
"1016 -86 OFFCURVE",
"935 -204 OFFCURVE",
"713 -204 CURVE SMOOTH",
"504 -204 OFFCURVE",
"428 -89 OFFCURVE",
"428 134 CURVE SMOOTH",
"428 367 OFFCURVE",
"494 485 OFFCURVE",
"852 485 CURVE",
"852 706 LINE",
"326 706 OFFCURVE",
"146 477 OFFCURVE",
"146 128 CURVE SMOOTH",
"146 -183 OFFCURVE",
"299 -429 OFFCURVE",
"716 -429 CURVE SMOOTH"
);
},
{
closed = 1;
nodes = (
"852 706 LINE",
"474 1268 LINE",
"468 1252 LINE",
"1211 1252 LINE",
"1211 1476 LINE",
"186 1476 LINE",
"186 1242 LINE",
"602 600 LINE"
);
}
);
width = 1410;
}
);
unicode = 01B8;
},
{
glyphname = F;
layers = (
{
anchors = (
{
name = bottom;
position = "{641, 0}";
},
{
name = top;
position = "{641, 1446}";
}
);
layerId = "F85E8FEC-B3CD-4A54-BF30-AB1986ECE904";
paths = (
{
closed = 1;
nodes = (
"218 0 LINE",
"419 0 LINE",
"419 664 LINE",
"1003 664 LINE",
"1003 814 LINE",
"419 814 LINE",
"419 1296 LINE",
"1039 1296 LINE",
"1039 1446 LINE",
"218 1446 LINE"
);
}
);
width = 1159;
},
{
anchors = (
{
name = bottom;
position = "{648, 0}";
},
{
name = top;
position = "{648, 1476}";
}
);
layerId = "C6C96970-2BBD-4A47-8C90-C83F37B7F23D";
paths = (
{
closed = 1;
nodes = (
"190 0 LINE",
"487 0 LINE",
"487 634 LINE",
"1042 634 LINE",
"1042 847 LINE",
"487 847 LINE",
"487 1249 LINE",
"1083 1249 LINE",
"1083 1476 LINE",
"190 1476 LINE"
);
}
);
width = 1173;
}
);
unicode = 0046;
},
{
glyphname = Fhook;
layers = (
{
layerId = "F85E8FEC-B3CD-4A54-BF30-AB1986ECE904";
paths = (
{
closed = 1;
nodes = (
"105 -408 LINE SMOOTH",
"316 -408 OFFCURVE",
"419 -315 OFFCURVE",
"419 -76 CURVE SMOOTH",
"419 664 LINE",
"1003 664 LINE",
"1003 814 LINE",
"419 814 LINE",
"419 1296 LINE",
"1039 1296 LINE",
"1039 1446 LINE",
"218 1446 LINE",
"218 -69 LINE SMOOTH",
"218 -216 OFFCURVE",
"178 -256 OFFCURVE",
"58 -256 CURVE SMOOTH",
"25 -256 LINE",
"38 -408 LINE"
);
}
);
width = 1159;
},
{
layerId = "C6C96970-2BBD-4A47-8C90-C83F37B7F23D";
paths = (
{
closed = 1;
nodes = (
"148 -410 LINE SMOOTH",
"364 -410 OFFCURVE",
"487 -299 OFFCURVE",
"487 -76 CURVE SMOOTH",
"487 634 LINE",
"1042 634 LINE",
"1042 847 LINE",
"487 847 LINE",
"487 1249 LINE",
"1083 1249 LINE",
"1083 1476 LINE",
"190 1476 LINE",
"190 -44 LINE SMOOTH",
"190 -141 OFFCURVE",
"153 -185 OFFCURVE",
"74 -185 CURVE SMOOTH",
"44 -185 LINE",
"54 -410 LINE"
);
}
);
width = 1173;
}
);
unicode = 0191;
},
{
glyphname = G;
layers = (
{
anchors = (
{
name = bottom;
position = "{787, 0}";
},
{
name = top;
position = "{782, 1446}";
}
);
layerId = "F85E8FEC-B3CD-4A54-BF30-AB1986ECE904";
paths = (
{
closed = 1;
nodes = (
"1074 -22 OFFCURVE",
"1201 89 OFFCURVE",
"1225 246 CURVE",
"1250 0 LINE",
"1360 0 LINE",
"1360 735 LINE",
"815 735 LINE",
"815 588 LINE",
"1158 588 LINE",
"1158 455 LINE SMOOTH",
"1158 199 OFFCURVE",
"1046 140 OFFCURVE",
"788 140 CURVE SMOOTH",
"532 140 OFFCURVE",
"388 199 OFFCURVE",
"388 455 CURVE SMOOTH",
"388 977 LINE SMOOTH",
"388 1234 OFFCURVE",
"534 1306 OFFCURVE",
"788 1306 CURVE SMOOTH",
"1087 1306 OFFCURVE",
"1160 1246 OFFCURVE",
"1160 1022 CURVE SMOOTH",
"1160 1000 LINE",
"1344 1015 LINE",
"1344 1037 LINE SMOOTH",
"1344 1282 OFFCURVE",
"1254 1468 OFFCURVE",
"788 1468 CURVE SMOOTH",
"303 1468 OFFCURVE",
"186 1246 OFFCURVE",
"186 940 CURVE SMOOTH",
"186 486 LINE SMOOTH",
"186 185 OFFCURVE",
"305 -22 OFFCURVE",
"788 -22 CURVE SMOOTH"
);
}
);
width = 1556;
},
{
anchors = (
{
name = bottom;
position = "{807, 0}";
},
{
name = top;
position = "{817, 1476}";
}
);
layerId = "C6C96970-2BBD-4A47-8C90-C83F37B7F23D";
paths = (
{
closed = 1;
nodes = (
"1132 -26 OFFCURVE",
"1200 123 OFFCURVE",
"1215 170 CURVE",
"1262 0 LINE",
"1419 0 LINE",
"1419 757 LINE",
"853 757 LINE",
"853 562 LINE",
"1151 562 LINE",
"1151 454 LINE SMOOTH",
"1151 252 OFFCURVE",
"1038 207 OFFCURVE",
"813 207 CURVE SMOOTH",
"591 207 OFFCURVE",
"458 252 OFFCURVE",
"458 454 CURVE SMOOTH",
"458 1012 LINE SMOOTH",
"458 1215 OFFCURVE",
"593 1268 OFFCURVE",
"813 1268 CURVE SMOOTH",
"1035 1268 OFFCURVE",
"1126 1219 OFFCURVE",
"1126 1021 CURVE SMOOTH",
"1126 962 LINE",
"1418 984 LINE",
"1418 1007 LINE SMOOTH",
"1418 1290 OFFCURVE",
"1325 1501 OFFCURVE",
"813 1501 CURVE SMOOTH",
"284 1501 OFFCURVE",
"160 1275 OFFCURVE",
"160 977 CURVE SMOOTH",
"160 484 LINE SMOOTH",
"160 193 OFFCURVE",
"287 -26 OFFCURVE",
"813 -26 CURVE SMOOTH"
);
}
);
width = 1607;
}
);
leftKerningGroup = C;
rightKerningGroup = G;
unicode = 0047;
},
{
glyphname = Ghook;
layers = (
{
layerId = "F85E8FEC-B3CD-4A54-BF30-AB1986ECE904";
paths = (
{
closed = 1;
nodes = (
"1074 -22 OFFCURVE",
"1201 89 OFFCURVE",
"1225 246 CURVE",
"1250 0 LINE",
"1360 0 LINE",
"1360 735 LINE",
"815 735 LINE",
"815 588 LINE",
"1158 588 LINE",
"1158 455 LINE SMOOTH",
"1158 199 OFFCURVE",
"1046 140 OFFCURVE",
"788 140 CURVE SMOOTH",
"532 140 OFFCURVE",
"388 199 OFFCURVE",
"388 455 CURVE SMOOTH",
"388 977 LINE SMOOTH",
"388 1234 OFFCURVE",
"534 1306 OFFCURVE",
"788 1306 CURVE SMOOTH",
"1087 1306 OFFCURVE",
"1160 1246 OFFCURVE",
"1160 1022 CURVE SMOOTH",
"1160 995 LINE",
"1344 1010 LINE",
"1344 1353 LINE SMOOTH",
"1344 1500 OFFCURVE",
"1384 1540 OFFCURVE",
"1504 1540 CURVE SMOOTH",
"1537 1540 LINE",
"1524 1692 LINE",
"1457 1692 LINE SMOOTH",
"1246 1692 OFFCURVE",
"1167 1599 OFFCURVE",
"1167 1360 CURVE",
"1196 1370 LINE",
"1112 1435 OFFCURVE",
"983 1468 OFFCURVE",
"788 1468 CURVE SMOOTH",
"303 1468 OFFCURVE",
"186 1246 OFFCURVE",
"186 940 CURVE SMOOTH",
"186 486 LINE SMOOTH",
"186 185 OFFCURVE",
"305 -22 OFFCURVE",
"788 -22 CURVE SMOOTH"
);
}
);
width = 1556;
},
{
layerId = "C6C96970-2BBD-4A47-8C90-C83F37B7F23D";
paths = (
{
closed = 1;
nodes = (
"1120 -26 OFFCURVE",
"1188 123 OFFCURVE",
"1203 170 CURVE",
"1250 0 LINE",
"1407 0 LINE",
"1407 757 LINE",
"841 757 LINE",
"841 562 LINE",
"1139 562 LINE",
"1139 454 LINE SMOOTH",
"1139 252 OFFCURVE",
"1026 207 OFFCURVE",
"807 207 CURVE SMOOTH",
"591 207 OFFCURVE",
"458 252 OFFCURVE",
"458 454 CURVE SMOOTH",
"458 1012 LINE SMOOTH",
"458 1215 OFFCURVE",
"593 1268 OFFCURVE",
"807 1268 CURVE SMOOTH",
"1023 1268 OFFCURVE",
"1114 1219 OFFCURVE",
"1114 1021 CURVE SMOOTH",
"1114 962 LINE",
"1406 984 LINE",
"1406 1381 LINE SMOOTH",
"1406 1478 OFFCURVE",
"1443 1522 OFFCURVE",
"1522 1522 CURVE SMOOTH",
"1552 1522 LINE",
"1542 1750 LINE",
"1448 1750 LINE SMOOTH",
"1232 1750 OFFCURVE",
"1150 1639 OFFCURVE",
"1150 1416 CURVE",
"1185 1427 LINE",
"1097 1478 OFFCURVE",
"974 1501 OFFCURVE",
"807 1501 CURVE SMOOTH",
"284 1501 OFFCURVE",
"160 1275 OFFCURVE",
"160 977 CURVE SMOOTH",
"160 484 LINE SMOOTH",
"160 193 OFFCURVE",
"287 -26 OFFCURVE",
"807 -26 CURVE SMOOTH"
);
}
);
width = 1595;
}
);
leftKerningGroup = C;
rightKerningGroup = G;
unicode = 0193;
},
{
glyphname = Glottalstop;
layers = (
{
layerId = "F85E8FEC-B3CD-4A54-BF30-AB1986ECE904";
paths = (
{
closed = 1;
nodes = (
"718 0 LINE",
"718 486 LINE",
"688 407 LINE",
"895 621 LINE SMOOTH",
"1051 782 OFFCURVE",
"1136 911 OFFCURVE",
"1136 1094 CURVE SMOOTH",
"1136 1257 OFFCURVE",
"1035 1468 OFFCURVE",
"647 1468 CURVE SMOOTH",
"286 1468 OFFCURVE",
"139 1354 OFFCURVE",
"139 1051 CURVE SMOOTH",
"139 1019 LINE",
"336 1019 LINE",
"336 1072 LINE SMOOTH",
"336 1205 OFFCURVE",
"411 1306 OFFCURVE",
"647 1306 CURVE SMOOTH",
"866 1306 OFFCURVE",
"923 1202 OFFCURVE",
"923 1083 CURVE SMOOTH",
"923 966 OFFCURVE",
"895 872 OFFCURVE",
"800 765 CURVE SMOOTH",
"530 461 LINE",
"530 0 LINE"
);
}
);
width = 1240;
},
{
layerId = "C6C96970-2BBD-4A47-8C90-C83F37B7F23D";
paths = (
{
closed = 1;
nodes = (
"797 0 LINE",
"797 494 LINE",
"763 419 LINE",
"941 577 LINE SMOOTH",
"1112 729 OFFCURVE",
"1198 862 OFFCURVE",
"1198 1067 CURVE SMOOTH",
"1198 1299 OFFCURVE",
"1097 1501 OFFCURVE",
"649 1501 CURVE SMOOTH",
"216 1501 OFFCURVE",
"90 1309 OFFCURVE",
"90 1036 CURVE SMOOTH",
"90 962 LINE",
"364 962 LINE",
"364 1037 LINE SMOOTH",
"364 1188 OFFCURVE",
"447 1279 OFFCURVE",
"649 1279 CURVE SMOOTH",
"855 1279 OFFCURVE",
"906 1176 OFFCURVE",
"906 1056 CURVE SMOOTH",
"906 936 OFFCURVE",
"871 856 OFFCURVE",
"770 740 CURVE SMOOTH",
"525 461 LINE",
"525 0 LINE"
);
}
);
width = 1304;
}
);
unicode = 0241;
},
{
glyphname = Gstroke;
layers = (
{
guideLines = (
{
angle = 90;
position = "{815, 588}";
}
);
layerId = "F85E8FEC-B3CD-4A54-BF30-AB1986ECE904";
paths = (
{
closed = 1;
nodes = (
"1074 -22 OFFCURVE",
"1201 89 OFFCURVE",
"1225 246 CURVE",
"1250 0 LINE",
"1360 0 LINE",
"1360 735 LINE",
"815 735 LINE",
"815 588 LINE",
"1158 588 LINE",
"1158 455 LINE SMOOTH",
"1158 199 OFFCURVE",
"1046 140 OFFCURVE",
"788 140 CURVE SMOOTH",
"532 140 OFFCURVE",
"388 199 OFFCURVE",
"388 455 CURVE SMOOTH",
"388 977 LINE SMOOTH",
"388 1234 OFFCURVE",
"534 1306 OFFCURVE",
"788 1306 CURVE SMOOTH",
"1087 1306 OFFCURVE",
"1160 1246 OFFCURVE",
"1160 1022 CURVE SMOOTH",
"1160 1000 LINE",
"1344 1015 LINE",
"1344 1037 LINE SMOOTH",
"1344 1282 OFFCURVE",
"1254 1468 OFFCURVE",
"788 1468 CURVE SMOOTH",
"303 1468 OFFCURVE",
"186 1246 OFFCURVE",
"186 940 CURVE SMOOTH",
"186 486 LINE SMOOTH",
"186 185 OFFCURVE",
"305 -22 OFFCURVE",
"788 -22 CURVE SMOOTH"
);
},
{
closed = 1;
nodes = (
"815 334 LINE",
"1491 334 LINE",
"1491 478 LINE",
"815 478 LINE"
);
}
);
width = 1556;
},
{
layerId = "C6C96970-2BBD-4A47-8C90-C83F37B7F23D";
paths = (
{
closed = 1;
nodes = (
"1132 -26 OFFCURVE",
"1200 123 OFFCURVE",
"1215 170 CURVE",
"1262 0 LINE",
"1419 0 LINE",
"1419 777 LINE",
"853 777 LINE",
"853 582 LINE",
"1151 582 LINE",
"1151 454 LINE SMOOTH",
"1151 252 OFFCURVE",
"1038 207 OFFCURVE",
"813 207 CURVE SMOOTH",
"591 207 OFFCURVE",
"458 252 OFFCURVE",
"458 454 CURVE SMOOTH",
"458 1012 LINE SMOOTH",
"458 1215 OFFCURVE",
"593 1268 OFFCURVE",
"813 1268 CURVE SMOOTH",
"1035 1268 OFFCURVE",
"1126 1219 OFFCURVE",
"1126 1021 CURVE SMOOTH",
"1126 962 LINE",
"1418 984 LINE",
"1418 1007 LINE SMOOTH",
"1418 1290 OFFCURVE",
"1325 1501 OFFCURVE",
"813 1501 CURVE SMOOTH",
"284 1501 OFFCURVE",
"160 1275 OFFCURVE",
"160 977 CURVE SMOOTH",
"160 484 LINE SMOOTH",
"160 193 OFFCURVE",
"287 -26 OFFCURVE",
"813 -26 CURVE SMOOTH"
);
},
{
closed = 1;
nodes = (
"853 303 LINE",
"1546 303 LINE",
"1546 493 LINE",
"853 493 LINE"
);
}
);
width = 1607;
}
);
leftKerningGroup = C;
rightKerningGroup = G;
unicode = 01E4;
},
{
glyphname = H;
layers = (
{
anchors = (
{
name = bottom;
position = "{764, 0}";
},
{
name = center;
position = "{764, 723}";
},
{
name = top;
position = "{764, 1446}";
},
{
name = topleft;
position = "{20, 1446}";
}
);
layerId = "F85E8FEC-B3CD-4A54-BF30-AB1986ECE904";
paths = (
{
closed = 1;
nodes = (
"212 0 LINE",
"413 0 LINE",
"413 659 LINE",
"1115 659 LINE",
"1115 0 LINE",
"1316 0 LINE",
"1316 1446 LINE",
"1115 1446 LINE",
"1115 807 LINE",
"413 807 LINE",
"413 1446 LINE",
"212 1446 LINE"
);
}
);
width = 1528;
},
{
anchors = (
{
name = bottom;
position = "{812, 0}";
},
{
name = center;
position = "{812, 738}";
},
{
name = top;
position = "{812, 1476}";
},
{
name = topleft;
position = "{20, 1476}";
}
);
layerId = "C6C96970-2BBD-4A47-8C90-C83F37B7F23D";
paths = (
{
closed = 1;
nodes = (
"190 0 LINE",
"488 0 LINE",
"488 615 LINE",
"1136 615 LINE",
"1136 0 LINE",
"1434 0 LINE",
"1434 1476 LINE",
"1136 1476 LINE",
"1136 848 LINE",
"488 848 LINE",
"488 1476 LINE",
"190 1476 LINE"
);
}
);
width = 1624;
}
);
unicode = 0048;
},
{
glyphname = Hbar;
layers = (
{
background = {
paths = (
{
closed = 1;
nodes = (
"144 1060 LINE",
"1392 1060 LINE",
"1392 1184 LINE",
"144 1184 LINE"
);
}
);
};
components = (
{
name = H;
}
);
layerId = "F85E8FEC-B3CD-4A54-BF30-AB1986ECE904";
paths = (
{
closed = 1;
nodes = (
"100 1060 LINE",
"1428 1060 LINE",
"1428 1204 LINE",
"100 1204 LINE"
);
}
);
width = 1528;
},
{
background = {
paths = (
{
closed = 1;
nodes = (
"84 1132 LINE",
"1540 1132 LINE",
"1540 1236 LINE",
"84 1236 LINE"
);
}
);
};
components = (
{
name = H;
}
);
layerId = "C6C96970-2BBD-4A47-8C90-C83F37B7F23D";
paths = (
{
closed = 1;
nodes = (
"84 1089 LINE",
"1540 1089 LINE",
"1540 1273 LINE",
"84 1273 LINE"
);
}
);
width = 1624;
}
);
unicode = 0126;
},
{
glyphname = Heng;
layers = (
{
layerId = "F85E8FEC-B3CD-4A54-BF30-AB1986ECE904";
paths = (
{
closed = 1;
nodes = (
"1002 -408 LINE SMOOTH",
"1213 -408 OFFCURVE",
"1316 -315 OFFCURVE",
"1316 -76 CURVE SMOOTH",
"1316 1446 LINE",
"1115 1446 LINE",
"1115 807 LINE",
"413 807 LINE",
"413 1446 LINE",
"212 1446 LINE",
"212 0 LINE",
"413 0 LINE",
"413 659 LINE",
"1115 659 LINE",
"1115 -69 LINE SMOOTH",
"1115 -216 OFFCURVE",
"1075 -256 OFFCURVE",
"955 -256 CURVE SMOOTH",
"922 -256 LINE",
"935 -408 LINE"
);
}
);
width = 1528;
},
{
layerId = "C6C96970-2BBD-4A47-8C90-C83F37B7F23D";
paths = (
{
closed = 1;
nodes = (
"1095 -410 LINE SMOOTH",
"1311 -410 OFFCURVE",
"1434 -299 OFFCURVE",
"1434 -76 CURVE SMOOTH",
"1434 1476 LINE",
"1136 1476 LINE",
"1136 848 LINE",
"488 848 LINE",
"488 1476 LINE",
"190 1476 LINE",
"190 0 LINE",
"488 0 LINE",
"488 615 LINE",
"1136 615 LINE",
"1136 -44 LINE SMOOTH",
"1136 -141 OFFCURVE",
"1099 -185 OFFCURVE",
"1020 -185 CURVE SMOOTH",
"991 -185 LINE",
"1001 -410 LINE"
);
}
);
width = 1624;
}
);
unicode = A726;
},
{
glyphname = Hhook;
layers = (
{
components = (
{
name = H;
transform = "{1, 0, 0, 1, 137, 0}";
}
);
layerId = "F85E8FEC-B3CD-4A54-BF30-AB1986ECE904";
paths = (
{
closed = 1;
nodes = (
"172 1108 LINE SMOOTH",
"172 1235 OFFCURVE",
"208 1295 OFFCURVE",
"349 1295 CURVE",
"370 1446 LINE",
"102 1446 OFFCURVE",
"-20 1356 OFFCURVE",
"-20 1134 CURVE SMOOTH",
"-20 1078 LINE",
"172 1065 LINE"
);
}
);
width = 1665;
},
{
components = (
{
name = H;
transform = "{1, 0, 0, 1, 197, 0}";
}
);
layerId = "C6C96970-2BBD-4A47-8C90-C83F37B7F23D";
paths = (
{
closed = 1;
nodes = (
"216 1108 LINE SMOOTH",
"216 1227 OFFCURVE",
"260 1273 OFFCURVE",
"387 1273 CURVE",
"418 1476 LINE",
"68 1476 OFFCURVE",
"-24 1375 OFFCURVE",
"-24 1122 CURVE SMOOTH",
"-24 1038 LINE",
"216 1028 LINE"
);
}
);
width = 1821;
}
);
unicode = A7AA;
},
{
glyphname = Hturned;
layers = (
{
layerId = "F85E8FEC-B3CD-4A54-BF30-AB1986ECE904";
paths = (
{
closed = 1;
nodes = (
"212 655 LINE",
"1095 655 LINE",
"1095 0 LINE",
"1296 0 LINE",
"1296 1446 LINE",
"1095 1446 LINE",
"1095 807 LINE",
"413 807 LINE",
"413 1446 LINE",
"212 1446 LINE"
);
}
);
width = 1508;
},
{
layerId = "C6C96970-2BBD-4A47-8C90-C83F37B7F23D";
paths = (
{
closed = 1;
nodes = (
"190 605 LINE",
"1116 605 LINE",
"1116 0 LINE",
"1414 0 LINE",
"1414 1476 LINE",
"1116 1476 LINE",
"1116 848 LINE",
"488 848 LINE",
"488 1476 LINE",
"190 1476 LINE"
);
}
);
width = 1604;
}
);
unicode = A78D;
},
{
glyphname = I;
layers = (
{
anchors = (
{
name = bottom;
position = "{566, 0}";
},
{
name = ogonek;
position = "{942, 0}";
},
{
name = top;
position = "{566, 1446}";
},
{
name = topleft;
position = "{20, 1446}";
}
);
layerId = "F85E8FEC-B3CD-4A54-BF30-AB1986ECE904";
paths = (
{
closed = 1;
nodes = (
"190 0 LINE",
"942 0 LINE",
"942 150 LINE",
"667 150 LINE",
"667 1297 LINE",
"942 1297 LINE",
"942 1446 LINE",
"190 1446 LINE",
"190 1297 LINE",
"466 1297 LINE",
"466 150 LINE",
"190 150 LINE"
);
}
);
width = 1132;
},
{
anchors = (
{
name = bottom;
position = "{574, 0}";
},
{
name = ogonek;
position = "{990, 0}";
},
{
name = top;
position = "{574, 1476}";
},
{
name = topleft;
position = "{20, 1476}";
}
);
layerId = "C6C96970-2BBD-4A47-8C90-C83F37B7F23D";
paths = (
{
closed = 1;
nodes = (
"158 0 LINE",
"990 0 LINE",
"990 222 LINE",
"723 222 LINE",
"723 1255 LINE",
"990 1255 LINE",
"990 1476 LINE",
"158 1476 LINE",
"158 1255 LINE",
"427 1255 LINE",
"427 222 LINE",
"158 222 LINE"
);
}
);
width = 1148;
}
);
unicode = 0049;
},
{
glyphname = Iotaafrican;
layers = (
{
layerId = "F85E8FEC-B3CD-4A54-BF30-AB1986ECE904";
paths = (
{
closed = 1;
nodes = (
"827 0 LINE",
"840 152 LINE",
"807 152 LINE SMOOTH",
"677 152 OFFCURVE",
"627 212 OFFCURVE",
"627 359 CURVE SMOOTH",
"627 1297 LINE",
"902 1297 LINE",
"902 1446 LINE",
"150 1446 LINE",
"150 1297 LINE",
"426 1297 LINE",
"426 352 LINE SMOOTH",
"426 113 OFFCURVE",
"539 0 OFFCURVE",
"760 0 CURVE SMOOTH"
);
}
);
width = 1062;
},
{
layerId = "C6C96970-2BBD-4A47-8C90-C83F37B7F23D";
paths = (
{
closed = 1;
nodes = (
"889 0 LINE",
"899 225 LINE",
"829 225 LINE SMOOTH",
"740 225 OFFCURVE",
"683 279 OFFCURVE",
"683 386 CURVE SMOOTH",
"683 1255 LINE",
"950 1255 LINE",
"950 1476 LINE",
"118 1476 LINE",
"118 1255 LINE",
"387 1255 LINE",
"387 354 LINE SMOOTH",
"387 121 OFFCURVE",
"529 0 OFFCURVE",
"755 0 CURVE SMOOTH"
);
}
);
width = 1088;
}
);
unicode = 0196;
},
{
glyphname = Istroke;
layers = (
{
components = (
{
name = I;
}
);
layerId = "F85E8FEC-B3CD-4A54-BF30-AB1986ECE904";
paths = (
{
closed = 1;
nodes = (
"231 675 LINE",
"902 675 LINE",
"902 819 LINE",
"231 819 LINE"
);
}
);
width = 1132;
},
{
components = (
{
name = I;
}
);
layerId = "C6C96970-2BBD-4A47-8C90-C83F37B7F23D";
paths = (
{
closed = 1;
nodes = (
"231 655 LINE",
"917 655 LINE",
"917 845 LINE",
"231 845 LINE"
);
}
);
width = 1148;
}
);
unicode = 0197;
},
{
glyphname = J;
layers = (
{
anchors = (
{
name = top;
position = "{608, 1446}";
}
);
layerId = "F85E8FEC-B3CD-4A54-BF30-AB1986ECE904";
paths = (
{
closed = 1;
nodes = (
"167 36 OFFCURVE",
"354 -17 OFFCURVE",
"522 -17 CURVE SMOOTH",
"847 -17 OFFCURVE",
"988 157 OFFCURVE",
"988 431 CURVE SMOOTH",
"988 1446 LINE",
"234 1446 LINE",
"234 1281 LINE",
"787 1281 LINE",
"787 435 LINE SMOOTH",
"787 248 OFFCURVE",
"707 148 OFFCURVE",
"516 148 CURVE SMOOTH",
"370 148 OFFCURVE",
"204 203 OFFCURVE",
"157 225 CURVE",
"102 70 LINE"
);
}
);
width = 1206;
},
{
anchors = (
{
name = top;
position = "{629, 1476}";
}
);
layerId = "C6C96970-2BBD-4A47-8C90-C83F37B7F23D";
paths = (
{
closed = 1;
nodes = (
"200 6 OFFCURVE",
"360 -25 OFFCURVE",
"504 -25 CURVE SMOOTH",
"835 -25 OFFCURVE",
"1036 138 OFFCURVE",
"1036 422 CURVE SMOOTH",
"1036 1476 LINE",
"231 1476 LINE",
"231 1250 LINE",
"739 1250 LINE",
"739 441 LINE SMOOTH",
"739 313 OFFCURVE",
"671 209 OFFCURVE",
"485 209 CURVE SMOOTH",
"381 209 OFFCURVE",
"236 242 OFFCURVE",
"139 287 CURVE",
"70 67 LINE"
);
}
);
width = 1222;
}
);
leftKerningGroup = J;
unicode = 004A;
},
{
glyphname = Jcrossedtail;
layers = (
{
background = {
paths = (
{
closed = 1;
nodes = (
"522 -17 CURVE SMOOTH",
"847 -17 OFFCURVE",
"988 157 OFFCURVE",
"988 431 CURVE SMOOTH",
"988 1446 LINE",
"234 1446 LINE",
"234 1281 LINE",
"787 1281 LINE",
"787 435 LINE SMOOTH",
"787 248 OFFCURVE",
"707 148 OFFCURVE",
"516 148 CURVE SMOOTH",
"370 148 OFFCURVE",
"204 203 OFFCURVE",
"157 225 CURVE",
"102 70 LINE",
"167 36 OFFCURVE",
"354 -17 OFFCURVE"
);
}
);
};
layerId = "F85E8FEC-B3CD-4A54-BF30-AB1986ECE904";
paths = (
{
closed = 1;
nodes = (
"391 148 OFFCURVE",
"327 184 OFFCURVE",
"327 317 CURVE SMOOTH",
"327 449 OFFCURVE",
"391 495 OFFCURVE",
"513 495 CURVE SMOOTH",
"1153 495 LINE",
"1141 635 LINE",
"517 635 LINE SMOOTH",
"291 635 OFFCURVE",
"170 521 OFFCURVE",
"170 313 CURVE SMOOTH",
"170 105 OFFCURVE",
"282 -17 OFFCURVE",
"555 -17 CURVE SMOOTH",
"847 -17 OFFCURVE",
"988 157 OFFCURVE",
"988 431 CURVE SMOOTH",
"988 1446 LINE",
"234 1446 LINE",
"234 1281 LINE",
"787 1281 LINE",
"787 435 LINE SMOOTH",
"787 248 OFFCURVE",
"707 148 OFFCURVE",
"523 148 CURVE SMOOTH"
);
}
);
width = 1206;
},
{
layerId = "C6C96970-2BBD-4A47-8C90-C83F37B7F23D";
paths = (
{
closed = 1;
nodes = (
"386 209 OFFCURVE",
"336 259 OFFCURVE",
"336 385 CURVE SMOOTH",
"336 508 OFFCURVE",
"396 559 OFFCURVE",
"517 559 CURVE SMOOTH",
"1175 559 LINE",
"1167 759 LINE",
"568 759 LINE SMOOTH",
"260 759 OFFCURVE",
"108 606 OFFCURVE",
"108 382 CURVE SMOOTH",
"108 138 OFFCURVE",
"228 -25 OFFCURVE",
"541 -25 CURVE SMOOTH",
"835 -25 OFFCURVE",
"1036 138 OFFCURVE",
"1036 422 CURVE SMOOTH",
"1036 1476 LINE",
"231 1476 LINE",
"231 1250 LINE",
"739 1250 LINE",
"739 441 LINE SMOOTH",
"739 313 OFFCURVE",
"671 209 OFFCURVE",
"520 209 CURVE SMOOTH"
);
}
);
width = 1222;
}
);
unicode = A7B2;
},
{
glyphname = Jstroke;
layers = (
{
components = (
{
name = J;
}
);
layerId = "F85E8FEC-B3CD-4A54-BF30-AB1986ECE904";
paths = (
{
closed = 1;
nodes = (
"465 838 LINE",
"465 694 LINE",
"1156 694 LINE",
"1156 838 LINE"
);
}
);
width = 1206;
},
{
components = (
{
name = J;
}
);
layerId = "C6C96970-2BBD-4A47-8C90-C83F37B7F23D";
paths = (
{
closed = 1;
nodes = (
"460 873 LINE",
"460 683 LINE",
"1176 683 LINE",
"1176 873 LINE"
);
}
);
width = 1222;
}
);
leftKerningGroup = J;
unicode = 0248;
},
{
glyphname = K;
layers = (
{
anchors = (
{
name = bottom;
position = "{751, 0}";
},
{
name = top;
position = "{745, 1446}";
}
);
background = {
paths = (
{
closed = 1;
nodes = (
"419 468 LINE",
"637 690 LINE",
"1127 0 LINE",
"1350 0 LINE",
"778 798 LINE",
"1321 1446 LINE",
"1103 1446 LINE",
"1027 1358 OFFCURVE",
"580 852 OFFCURVE",
"419 657 QCURVE",
"419 1446 LINE",
"218 1446 LINE",
"218 0 LINE",
"419 0 LINE"
);
}
);
};
layerId = "F85E8FEC-B3CD-4A54-BF30-AB1986ECE904";
paths = (
{
closed = 1;
nodes = (
"1321 1446 LINE",
"1103 1446 LINE",
"419 657 LINE",
"419 1446 LINE",
"218 1446 LINE",
"218 0 LINE",
"419 0 LINE",
"419 437 LINE",
"648 697 LINE",
"675 701 LINE"
);
},
{
closed = 1;
nodes = (
"1127 0 LINE",
"1350 0 LINE",
"740 852 LINE",
"599 744 LINE"
);
}
);
width = 1418;
},
{
anchors = (
{
name = bottom;
position = "{765, 0}";
},
{
name = top;
position = "{753, 1476}";
}
);
background = {
anchors = (
{
name = bot;
position = "{760, 0}";
},
{
name = top;
position = "{734, 1476}";
}
);
};
layerId = "C6C96970-2BBD-4A47-8C90-C83F37B7F23D";
paths = (
{
closed = 1;
nodes = (
"1389 1476 LINE",
"1061 1476 LINE",
"487 760 LINE",
"487 1476 LINE",
"190 1476 LINE",
"190 0 LINE",
"487 0 LINE",
"487 442 LINE",
"706 715 LINE",
"779 715 LINE"
);
},
{
closed = 1;
nodes = (
"1091 0 LINE",
"1426 0 LINE",
"825 869 LINE",
"616 696 LINE"
);
}
);
width = 1448;
}
);
rightKerningGroup = K;
unicode = 004B;
},
{
glyphname = Khook;
layers = (
{
background = {
paths = (
{
closed = 1;
nodes = (
"1321 1446 LINE",
"1103 1446 LINE",
"419 657 LINE",
"419 1446 LINE",
"218 1446 LINE",
"218 0 LINE",
"419 0 LINE",
"419 437 LINE",
"648 697 LINE",
"675 701 LINE"
);
},
{
closed = 1;
nodes = (
"1127 0 LINE",
"1350 0 LINE",
"740 852 LINE",
"599 744 LINE"
);
}
);
};
layerId = "F85E8FEC-B3CD-4A54-BF30-AB1986ECE904";
paths = (
{
closed = 1;
nodes = (
"419 0 LINE",
"419 437 LINE",
"648 697 LINE",
"675 701 LINE",
"1060 1145 LINE SMOOTH",
"1162 1263 OFFCURVE",
"1212 1292 OFFCURVE",
"1315 1292 CURVE SMOOTH",
"1375 1292 LINE",
"1360 1446 LINE",
"1296 1446 LINE SMOOTH",
"1137 1446 OFFCURVE",
"1059 1396 OFFCURVE",
"931 1248 CURVE SMOOTH",
"419 657 LINE",
"419 1446 LINE",
"218 1446 LINE",
"218 0 LINE"
);
},
{
closed = 1;
nodes = (
"1350 0 LINE",
"740 852 LINE",
"599 744 LINE",
"1127 0 LINE"
);
}
);
width = 1418;
},
{
background = {
paths = (
{
closed = 1;
nodes = (
"1389 1476 LINE",
"1061 1476 LINE",
"487 760 LINE",
"487 1476 LINE",
"190 1476 LINE",
"190 0 LINE",
"487 0 LINE",
"487 422 LINE",
"722 715 LINE",
"779 715 LINE"
);
},
{
closed = 1;
nodes = (
"1091 0 LINE",
"1426 0 LINE",
"825 869 LINE",
"616 696 LINE"
);
}
);
};
guideLines = (
{
angle = 95.1669;
position = "{1406, 1476}";
}
);
layerId = "C6C96970-2BBD-4A47-8C90-C83F37B7F23D";
paths = (
{
closed = 1;
nodes = (
"487 0 LINE",
"487 422 LINE",
"722 715 LINE",
"779 715 LINE",
"1071 1080 LINE SMOOTH",
"1183 1219 OFFCURVE",
"1232 1248 OFFCURVE",
"1340 1248 CURVE SMOOTH",
"1427 1248 LINE",
"1406 1476 LINE",
"1309 1476 LINE SMOOTH",
"1118 1476 OFFCURVE",
"1016 1418 OFFCURVE",
"863 1227 CURVE SMOOTH",
"487 760 LINE",
"487 1476 LINE",
"190 1476 LINE",
"190 0 LINE"
);
},
{
closed = 1;
nodes = (
"1426 0 LINE",
"825 869 LINE",
"616 696 LINE",
"1091 0 LINE"
);
}
);
width = 1448;
}
);
rightKerningGroup = K;
unicode = 0198;
},
{
glyphname = Kstroke;
layers = (
{
components = (
{
name = K;
}
);
layerId = "F85E8FEC-B3CD-4A54-BF30-AB1986ECE904";
paths = (
{
closed = 1;
nodes = (
"30 1094 LINE",
"621 1094 LINE",
"621 1238 LINE",
"30 1238 LINE"
);
}
);
width = 1418;
},
{
components = (
{
name = K;
}
);
layerId = "C6C96970-2BBD-4A47-8C90-C83F37B7F23D";
paths = (
{
closed = 1;
nodes = (
"30 1123 LINE",
"656 1123 LINE",
"656 1313 LINE",
"30 1313 LINE"
);
}
);
width = 1448;
}
);
rightKerningGroup = K;
unicode = A740;
},
{
glyphname = L;
layers = (
{
anchors = (
{
name = bottom;
position = "{658, 0}";
},
{
name = center;
position = "{573, 723}";
},
{
name = top;
position = "{319, 1446}";
},
{
name = topright;
position = "{725, 1001}";
}
);
layerId = "F85E8FEC-B3CD-4A54-BF30-AB1986ECE904";
paths = (
{
closed = 1;
nodes = (
"218 0 LINE",
"1068 0 LINE",
"1068 155 LINE",
"419 155 LINE",
"419 1446 LINE",
"218 1446 LINE"
);
}
);
width = 1145;
},
{
anchors = (
{
name = bottom;
position = "{672, 0}";
},
{
name = center;
position = "{586, 738}";
},
{
name = top;
position = "{339, 1476}";
},
{
name = topright;
position = "{781, 1035}";
}
);
layerId = "C6C96970-2BBD-4A47-8C90-C83F37B7F23D";
paths = (
{
closed = 1;
nodes = (
"190 0 LINE",
"1104 0 LINE",
"1104 232 LINE",
"487 232 LINE",
"487 1476 LINE",
"190 1476 LINE"
);
}
);
width = 1172;
}
);
rightKerningGroup = L;
unicode = 004C;
},
{
glyphname = Lbar;
layers = (
{
components = (
{
name = L;
}
);
layerId = "F85E8FEC-B3CD-4A54-BF30-AB1986ECE904";
paths = (
{
closed = 1;
nodes = (
"30 714 LINE",
"701 714 LINE",
"701 858 LINE",
"30 858 LINE"
);
}
);
width = 1145;
},
{
components = (
{
name = L;
}
);
layerId = "C6C96970-2BBD-4A47-8C90-C83F37B7F23D";
paths = (
{
closed = 1;
nodes = (
"30 710 LINE",
"716 710 LINE",
"716 900 LINE",
"30 900 LINE"
);
}
);
width = 1172;
}
);
rightKerningGroup = L;
unicode = 023D;
},
{
glyphname = Lbelt;
layers = (
{
components = (
{
name = L;
transform = "{1, 0, 0, 1, 74, 0}";
}
);
layerId = "F85E8FEC-B3CD-4A54-BF30-AB1986ECE904";
paths = (
{
closed = 1;
nodes = (
"410 1021 OFFCURVE",
"325 1117 OFFCURVE",
"173 1117 CURVE SMOOTH",
"18 1117 OFFCURVE",
"-70 1028 OFFCURVE",
"-70 889 CURVE SMOOTH",
"-70 750 OFFCURVE",
"6 644 OFFCURVE",
"198 644 CURVE SMOOTH",
"808 644 LINE",
"795 788 LINE",
"194 788 LINE SMOOTH",
"111 788 OFFCURVE",
"89 820 OFFCURVE",
"89 880 CURVE SMOOTH",
"89 942 OFFCURVE",
"121 970 OFFCURVE",
"186 970 CURVE SMOOTH",
"260 970 OFFCURVE",
"292 926 OFFCURVE",
"292 847 CURVE",
"410 847 LINE"
);
}
);
width = 1219;
},
{
components = (
{
name = L;
transform = "{1, 0, 0, 1, 102, 0}";
}
);
layerId = "C6C96970-2BBD-4A47-8C90-C83F37B7F23D";
paths = (
{
closed = 1;
nodes = (
"410 1031 OFFCURVE",
"325 1127 OFFCURVE",
"173 1127 CURVE SMOOTH",
"18 1127 OFFCURVE",
"-70 1046 OFFCURVE",
"-70 893 CURVE SMOOTH",
"-70 728 OFFCURVE",
"26 628 OFFCURVE",
"228 628 CURVE SMOOTH",
"878 628 LINE",
"871 817 LINE",
"204 817 LINE SMOOTH",
"141 817 OFFCURVE",
"109 845 OFFCURVE",
"109 905 CURVE SMOOTH",
"109 964 OFFCURVE",
"141 990 OFFCURVE",
"196 990 CURVE SMOOTH",
"260 990 OFFCURVE",
"292 946 OFFCURVE",
"292 857 CURVE",
"410 857 LINE"
);
}
);
width = 1274;
}
);
rightKerningGroup = L;
unicode = A7AD;
},
{
glyphname = Ldoublebar;
layers = (
{
components = (
{
name = L;
}
);
layerId = "F85E8FEC-B3CD-4A54-BF30-AB1986ECE904";
paths = (
{
closed = 1;
nodes = (
"30 864 LINE",
"701 864 LINE",
"701 1008 LINE",
"30 1008 LINE"
);
},
{
closed = 1;
nodes = (
"30 564 LINE",
"701 564 LINE",
"701 708 LINE",
"30 708 LINE"
);
}
);
width = 1145;
},
{
components = (
{
name = L;
}
);
layerId = "C6C96970-2BBD-4A47-8C90-C83F37B7F23D";
paths = (
{
closed = 1;
nodes = (
"30 865 LINE",
"716 865 LINE",
"716 1055 LINE",
"30 1055 LINE"
);
},
{
closed = 1;
nodes = (
"30 550 LINE",
"716 550 LINE",
"716 740 LINE",
"30 740 LINE"
);
}
);
width = 1172;
}
);
rightKerningGroup = L;
unicode = 2C60;
},
{
glyphname = Lmiddletilde;
layers = (
{
components = (
{
name = L;
}
);
layerId = "F85E8FEC-B3CD-4A54-BF30-AB1986ECE904";
paths = (
{
closed = 1;
nodes = (
"591 680 OFFCURVE",
"657 744 OFFCURVE",
"657 909 CURVE",
"560 909 LINE",
"560 847 OFFCURVE",
"531 816 OFFCURVE",
"470 816 CURVE SMOOTH",
"379 816 OFFCURVE",
"347 923 OFFCURVE",
"190 923 CURVE SMOOTH",
"50 923 OFFCURVE",
"-16 859 OFFCURVE",
"-16 694 CURVE",
"81 694 LINE",
"81 756 OFFCURVE",
"110 787 OFFCURVE",
"171 787 CURVE SMOOTH",
"262 787 OFFCURVE",
"294 680 OFFCURVE",
"451 680 CURVE SMOOTH"
);
}
);
width = 1145;
},
{
components = (
{
name = L;
}
);
layerId = "C6C96970-2BBD-4A47-8C90-C83F37B7F23D";
paths = (
{
closed = 1;
nodes = (
"648 623 OFFCURVE",
"739 696 OFFCURVE",
"739 883 CURVE",
"605 883 LINE",
"605 820 OFFCURVE",
"573 797 OFFCURVE",
"513 797 CURVE SMOOTH",
"416 797 OFFCURVE",
"395 899 OFFCURVE",
"200 899 CURVE SMOOTH",
"44 899 OFFCURVE",
"-47 826 OFFCURVE",
"-47 639 CURVE",
"87 639 LINE",
"87 700 OFFCURVE",
"113 726 OFFCURVE",
"171 726 CURVE SMOOTH",
"271 726 OFFCURVE",
"298 623 OFFCURVE",
"492 623 CURVE SMOOTH"
);
}
);
width = 1172;
}
);
rightKerningGroup = L;
unicode = 2C62;
},
{
glyphname = Lslash;
layers = (
{
background = {
paths = (
{
closed = 1;
nodes = (
"52 616 LINE",
"826 1002 LINE",
"826 1126 LINE",
"52 740 LINE"
);
}
);
};
components = (
{
name = L;
}
);
layerId = "F85E8FEC-B3CD-4A54-BF30-AB1986ECE904";
paths = (
{
closed = 1;
nodes = (
"52 556 LINE",
"723 890 LINE",
"723 1045 LINE",
"52 711 LINE"
);
}
);
width = 1145;
},
{
background = {
paths = (
{
closed = 1;
nodes = (
"24 560 LINE",
"793 871 LINE",
"793 1094 LINE",
"24 783 LINE"
);
}
);
};
components = (
{
name = L;
}
);
layerId = "C6C96970-2BBD-4A47-8C90-C83F37B7F23D";
paths = (
{
closed = 1;
nodes = (
"24 560 LINE",
"750 854 LINE",
"750 1064 LINE",
"24 770 LINE"
);
}
);
width = 1172;
}
);
rightKerningGroup = L;
unicode = 0141;
},
{
glyphname = M;
layers = (
{
anchors = (
{
name = bottom;
position = "{889, 0}";
},
{
name = top;
position = "{889, 1446}";
}
);
layerId = "F85E8FEC-B3CD-4A54-BF30-AB1986ECE904";
paths = (
{
closed = 1;
nodes = (
"410 0 LINE",
"410 1162 LINE",
"388 1155 LINE",
"816 458 LINE",
"965 458 LINE",
"1393 1159 LINE",
"1370 1166 LINE",
"1370 0 LINE",
"1560 0 LINE",
"1560 1446 LINE",
"1382 1446 LINE",
"867 600 LINE",
"923 600 LINE",
"403 1446 LINE",
"218 1446 LINE",
"218 0 LINE"
);
}
);
width = 1778;
},
{
anchors = (
{
name = bottom;
position = "{937, 0}";
},
{
name = top;
position = "{937, 1476}";
}
);
background = {
paths = (
{
closed = 1;
nodes = (
"190 0 LINE",
"468 0 LINE",
"468 1087 LINE",
"838 429 LINE",
"1037 429 LINE",
"1406 1091 LINE",
"1406 0 LINE",
"1684 0 LINE",
"1684 1476 LINE",
"1351 1476 LINE",
"937 761 LINE",
"517 1476 LINE",
"190 1476 LINE"
);
}
);
};
layerId = "C6C96970-2BBD-4A47-8C90-C83F37B7F23D";
paths = (
{
closed = 1;
nodes = (
"468 0 LINE",
"468 1132 LINE",
"433 1126 LINE",
"838 429 LINE",
"1037 429 LINE",
"1428 1130 LINE",
"1406 1136 LINE",
"1406 0 LINE",
"1684 0 LINE",
"1684 1476 LINE",
"1351 1476 LINE",
"914 722 LINE",
"955 722 LINE",
"517 1476 LINE",
"190 1476 LINE",
"190 0 LINE"
);
}
);
width = 1874;
}
);
unicode = 004D;
},
{
glyphname = Mturned;
layers = (
{
layerId = "F85E8FEC-B3CD-4A54-BF30-AB1986ECE904";
paths = (
{
closed = 1;
nodes = (
"720 -20 OFFCURVE",
"821 29 OFFCURVE",
"913 119 CURVE",
"963 36 OFFCURVE",
"1060 -20 OFFCURVE",
"1224 -20 CURVE SMOOTH",
"1392 -20 OFFCURVE",
"1481 40 OFFCURVE",
"1544 123 CURVE",
"1528 148 LINE",
"1528 0 LINE",
"1716 0 LINE",
"1716 1446 LINE",
"1514 1446 LINE",
"1514 323 LINE SMOOTH",
"1514 221 OFFCURVE",
"1456 142 OFFCURVE",
"1272 142 CURVE SMOOTH",
"1141 142 OFFCURVE",
"1065 192 OFFCURVE",
"1065 297 CURVE SMOOTH",
"1065 1446 LINE",
"863 1446 LINE",
"863 323 LINE SMOOTH",
"863 221 OFFCURVE",
"798 142 OFFCURVE",
"614 142 CURVE SMOOTH",
"483 142 OFFCURVE",
"419 192 OFFCURVE",
"419 297 CURVE SMOOTH",
"419 1446 LINE",
"218 1446 LINE",
"218 290 LINE SMOOTH",
"218 122 OFFCURVE",
"305 -20 OFFCURVE",
"566 -20 CURVE SMOOTH"
);
}
);
width = 1934;
},
{
layerId = "C6C96970-2BBD-4A47-8C90-C83F37B7F23D";
paths = (
{
closed = 1;
nodes = (
"701 -23 OFFCURVE",
"810 32 OFFCURVE",
"888 110 CURVE",
"943 18 OFFCURVE",
"1045 -23 OFFCURVE",
"1183 -23 CURVE SMOOTH",
"1377 -23 OFFCURVE",
"1487 69 OFFCURVE",
"1531 124 CURVE",
"1500 141 LINE",
"1500 0 LINE",
"1772 0 LINE",
"1772 1476 LINE",
"1476 1476 LINE",
"1476 368 LINE SMOOTH",
"1476 263 OFFCURVE",
"1373 210 OFFCURVE",
"1275 210 CURVE SMOOTH",
"1190 210 OFFCURVE",
"1127 232 OFFCURVE",
"1127 345 CURVE SMOOTH",
"1127 1476 LINE",
"831 1476 LINE",
"831 357 LINE",
"823 261 OFFCURVE",
"712 210 OFFCURVE",
"635 210 CURVE SMOOTH",
"551 210 OFFCURVE",
"486 232 OFFCURVE",
"486 345 CURVE SMOOTH",
"486 1476 LINE",
"190 1476 LINE",
"190 280 LINE SMOOTH",
"190 99 OFFCURVE",
"325 -23 OFFCURVE",
"531 -23 CURVE SMOOTH"
);
}
);
width = 1962;
}
);
unicode = 019C;
},
{
glyphname = N;
layers = (
{
anchors = (
{
name = bottom;
position = "{797, 0}";
},
{
name = top;
position = "{797, 1446}";
}
);
layerId = "F85E8FEC-B3CD-4A54-BF30-AB1986ECE904";
paths = (
{
closed = 1;
nodes = (
"218 0 LINE",
"395 0 LINE",
"395 1149 LINE",
"369 1140 LINE",
"1197 0 LINE",
"1376 0 LINE",
"1376 1446 LINE",
"1199 1446 LINE",
"1199 245 LINE",
"1225 253 LINE",
"371 1446 LINE",
"218 1446 LINE"
);
}
);
width = 1594;
},
{
anchors = (
{
name = bottom;
position = "{817, 0}";
},
{
name = top;
position = "{817, 1476}";
}
);
layerId = "C6C96970-2BBD-4A47-8C90-C83F37B7F23D";
paths = (
{
closed = 1;
nodes = (
"190 0 LINE",
"457 0 LINE",
"457 1041 LINE",
"430 1032 LINE",
"1221 0 LINE",
"1444 0 LINE",
"1444 1476 LINE",
"1180 1476 LINE",
"1180 419 LINE",
"1207 428 LINE",
"413 1476 LINE",
"190 1476 LINE"
);
}
);
width = 1634;
}
);
unicode = 004E;
},
{
glyphname = Eng;
layers = (
{
layerId = "F85E8FEC-B3CD-4A54-BF30-AB1986ECE904";
paths = (
{
closed = 1;
nodes = (
"821 -373 LINE",
"1152 -373 OFFCURVE",
"1370 -259 OFFCURVE",
"1370 122 CURVE SMOOTH",
"1370 1446 LINE",
"1193 1446 LINE",
"1193 470 LINE",
"365 1446 LINE",
"212 1446 LINE",
"212 0 LINE",
"389 0 LINE",
"389 1104 LINE",
"1182 190 LINE",
"1182 115 LINE SMOOTH",
"1182 -197 OFFCURVE",
"1037 -210 OFFCURVE",
"793 -232 CURVE"
);
}
);
width = 1582;
},
{
layerId = "C6C96970-2BBD-4A47-8C90-C83F37B7F23D";
paths = (
{
closed = 1;
nodes = (
"901 -382 LINE",
"1343 -382 OFFCURVE",
"1450 -219 OFFCURVE",
"1450 162 CURVE SMOOTH",
"1450 1477 LINE",
"1183 1477 LINE",
"1183 560 LINE",
"415 1477 LINE",
"190 1477 LINE",
"190 0 LINE",
"458 0 LINE",
"458 996 LINE",
"1177 153 LINE",
"1177 117 LINE SMOOTH",
"1177 -159 OFFCURVE",
"1106 -171 OFFCURVE",
"873 -192 CURVE"
);
}
);
width = 1640;
}
);
unicode = 014A;
},
{
glyphname = Nhookleft;
layers = (
{
layerId = "F85E8FEC-B3CD-4A54-BF30-AB1986ECE904";
paths = (
{
closed = 1;
nodes = (
"177 -373 OFFCURVE",
"395 -259 OFFCURVE",
"395 122 CURVE SMOOTH",
"395 1149 LINE",
"369 1140 LINE",
"1197 0 LINE",
"1376 0 LINE",
"1376 1446 LINE",
"1199 1446 LINE",
"1199 245 LINE",
"1225 253 LINE",
"371 1446 LINE",
"218 1446 LINE",
"218 115 LINE SMOOTH",
"218 -132 OFFCURVE",
"112 -232 OFFCURVE",
"-111 -232 CURVE",
"-83 -373 LINE"
);
}
);
width = 1594;
},
{
layerId = "C6C96970-2BBD-4A47-8C90-C83F37B7F23D";
paths = (
{
closed = 1;
nodes = (
"287 -382 OFFCURVE",
"457 -278 OFFCURVE",
"457 162 CURVE SMOOTH",
"457 1041 LINE",
"430 1032 LINE",
"1221 0 LINE",
"1444 0 LINE",
"1444 1476 LINE",
"1180 1476 LINE",
"1180 419 LINE",
"1207 428 LINE",
"413 1476 LINE",
"190 1476 LINE",
"190 117 LINE SMOOTH",
"190 -120 OFFCURVE",
"141 -169 OFFCURVE",
"-74 -192 CURVE",
"-46 -382 LINE"
);
}
);
width = 1634;
}
);
unicode = 019D;
},
{
glyphname = Nlongrightleg;
layers = (
{
layerId = "F85E8FEC-B3CD-4A54-BF30-AB1986ECE904";
paths = (
{
closed = 1;
nodes = (
"212 0 LINE",
"413 0 LINE",
"413 1093 LINE SMOOTH",
"413 1205 OFFCURVE",
"535 1304 OFFCURVE",
"772 1304 CURVE SMOOTH",
"944 1304 OFFCURVE",
"1077 1224 OFFCURVE",
"1077 1079 CURVE SMOOTH",
"1077 -408 LINE",
"1278 -408 LINE",
"1278 1086 LINE SMOOTH",
"1278 1294 OFFCURVE",
"1158 1466 OFFCURVE",
"829 1466 CURVE SMOOTH",
"615 1466 OFFCURVE",
"488 1407 OFFCURVE",
"387 1306 CURVE",
"408 1298 LINE",
"408 1446 LINE",
"212 1446 LINE"
);
}
);
width = 1490;
},
{
background = {
paths = (
{
closed = 1;
nodes = (
"190 0 LINE",
"530 0 LINE",
"530 1014 LINE SMOOTH",
"530 1159 OFFCURVE",
"669 1233 OFFCURVE",
"792 1233 CURVE SMOOTH",
"899 1233 OFFCURVE",
"1029 1198 OFFCURVE",
"1029 1041 CURVE SMOOTH",
"1029 0 LINE",
"1369 0 LINE",
"1369 1062 LINE SMOOTH",
"1369 1311 OFFCURVE",
"1238 1515 OFFCURVE",
"955 1515 CURVE SMOOTH",
"681 1515 OFFCURVE",
"572 1397 OFFCURVE",
"530 1351 CURVE",
"530 1481 LINE",
"190 1481 LINE"
);
}
);
};
layerId = "C6C96970-2BBD-4A47-8C90-C83F37B7F23D";
paths = (
{
closed = 1;
nodes = (
"190 0 LINE",
"488 0 LINE",
"488 1031 LINE SMOOTH",
"488 1175 OFFCURVE",
"611 1268 OFFCURVE",
"802 1268 CURVE SMOOTH",
"977 1268 OFFCURVE",
"1071 1212 OFFCURVE",
"1071 1079 CURVE SMOOTH",
"1071 -410 LINE",
"1369 -410 LINE",
"1369 1092 LINE SMOOTH",
"1369 1313 OFFCURVE",
"1240 1500 OFFCURVE",
"923 1500 CURVE SMOOTH",
"644 1500 OFFCURVE",
"512 1409 OFFCURVE",
"453 1323 CURVE",
"485 1336 LINE",
"485 1476 LINE",
"190 1476 LINE"
);
}
);
width = 1559;
}
);
unicode = 0220;
},
{
glyphname = O;
layers = (
{
anchors = (
{
name = bottom;
position = "{773, 0}";
},
{
name = center;
position = "{773, 723}";
},
{
name = ogonek;
position = "{1043, 10}";
},
{
name = top;
position = "{773, 1446}";
},
{
name = topleft;
position = "{20, 1446}";
},
{
name = topright;
position = "{1001, 1446}";
}
);
layerId = "F85E8FEC-B3CD-4A54-BF30-AB1986ECE904";
paths = (
{
closed = 1;
nodes = (
"1247 -22 OFFCURVE",
"1360 203 OFFCURVE",
"1360 500 CURVE SMOOTH",
"1360 928 LINE SMOOTH",
"1360 1234 OFFCURVE",
"1249 1468 OFFCURVE",
"782 1468 CURVE SMOOTH",
"297 1468 OFFCURVE",
"186 1247 OFFCURVE",
"186 941 CURVE SMOOTH",
"186 486 LINE SMOOTH",
"186 185 OFFCURVE",
"299 -22 OFFCURVE",
"782 -22 CURVE SMOOTH"
);
},
{
closed = 1;
nodes = (
"526 140 OFFCURVE",
"388 199 OFFCURVE",
"388 455 CURVE SMOOTH",
"388 978 LINE SMOOTH",
"388 1235 OFFCURVE",
"528 1306 OFFCURVE",
"782 1306 CURVE SMOOTH",
"1038 1306 OFFCURVE",
"1159 1235 OFFCURVE",
"1159 978 CURVE SMOOTH",
"1159 455 LINE SMOOTH",
"1159 199 OFFCURVE",
"1040 140 OFFCURVE",
"782 140 CURVE SMOOTH"
);
}
);
width = 1546;
},
{
anchors = (
{
name = bottom;
position = "{803, 0}";
},
{
name = center;
position = "{803, 738}";
},
{
name = ogonek;
position = "{1101, 10}";
},
{
name = top;
position = "{803, 1476}";
},
{
name = topleft;
position = "{20, 1476}";
},
{
name = topright;
position = "{1059, 1476}";
}
);
layerId = "C6C96970-2BBD-4A47-8C90-C83F37B7F23D";
paths = (
{
closed = 1;
nodes = (
"1322 -26 OFFCURVE",
"1446 227 OFFCURVE",
"1446 517 CURVE SMOOTH",
"1446 948 LINE SMOOTH",
"1446 1247 OFFCURVE",
"1324 1501 OFFCURVE",
"814 1501 CURVE SMOOTH",
"281 1501 OFFCURVE",
"160 1262 OFFCURVE",
"160 963 CURVE SMOOTH",
"160 501 LINE SMOOTH",
"160 209 OFFCURVE",
"283 -26 OFFCURVE",
"814 -26 CURVE SMOOTH"
);
},
{
closed = 1;
nodes = (
"592 207 OFFCURVE",
"458 265 OFFCURVE",
"458 468 CURVE SMOOTH",
"458 1003 LINE SMOOTH",
"458 1205 OFFCURVE",
"594 1268 OFFCURVE",
"814 1268 CURVE SMOOTH",
"1036 1268 OFFCURVE",
"1148 1201 OFFCURVE",
"1148 1003 CURVE SMOOTH",
"1148 468 LINE SMOOTH",
"1148 266 OFFCURVE",
"1038 207 OFFCURVE",
"814 207 CURVE SMOOTH"
);
}
);
width = 1606;
}
);
leftKerningGroup = C;
rightKerningGroup = D;
unicode = 004F;
},
{
glyphname = OU;
layers = (
{
layerId = "F85E8FEC-B3CD-4A54-BF30-AB1986ECE904";
paths = (
{
closed = 1;
nodes = (
"1247 -22 OFFCURVE",
"1360 203 OFFCURVE",
"1360 460 CURVE SMOOTH",
"1360 478 LINE SMOOTH",
"1360 744 OFFCURVE",
"1249 978 OFFCURVE",
"782 978 CURVE SMOOTH",
"297 978 OFFCURVE",
"186 757 OFFCURVE",
"186 491 CURVE SMOOTH",
"186 446 LINE SMOOTH",
"186 185 OFFCURVE",
"299 -22 OFFCURVE",
"782 -22 CURVE SMOOTH"
);
},
{
closed = 1;
nodes = (
"526 140 OFFCURVE",
"388 199 OFFCURVE",
"388 415 CURVE SMOOTH",
"388 528 LINE SMOOTH",
"388 745 OFFCURVE",
"528 816 OFFCURVE",
"782 816 CURVE SMOOTH",
"1038 816 OFFCURVE",
"1159 745 OFFCURVE",
"1159 528 CURVE SMOOTH",
"1159 415 LINE SMOOTH",
"1159 199 OFFCURVE",
"1040 140 OFFCURVE",
"782 140 CURVE SMOOTH"
);
},
{
closed = 1;
nodes = (
"1159 1037 OFFCURVE",
"1040 978 OFFCURVE",
"782 978 CURVE SMOOTH",
"526 978 OFFCURVE",
"388 1037 OFFCURVE",
"388 1253 CURVE SMOOTH",
"388 1505 LINE",
"187 1505 LINE",
"187 1284 LINE SMOOTH",
"187 1023 OFFCURVE",
"299 816 OFFCURVE",
"782 816 CURVE SMOOTH",
"1247 816 OFFCURVE",
"1359 1041 OFFCURVE",
"1359 1284 CURVE SMOOTH",
"1359 1505 LINE",
"1159 1505 LINE",
"1159 1253 LINE SMOOTH"
);
}
);
width = 1546;
},
{
layerId = "C6C96970-2BBD-4A47-8C90-C83F37B7F23D";
paths = (
{
closed = 1;
nodes = (
"1322 -26 OFFCURVE",
"1446 231 OFFCURVE",
"1446 491 CURVE SMOOTH",
"1446 512 LINE SMOOTH",
"1446 781 OFFCURVE",
"1324 1031 OFFCURVE",
"814 1031 CURVE SMOOTH",
"281 1031 OFFCURVE",
"160 796 OFFCURVE",
"160 527 CURVE SMOOTH",
"160 475 LINE SMOOTH",
"160 213 OFFCURVE",
"283 -26 OFFCURVE",
"814 -26 CURVE SMOOTH"
);
},
{
closed = 1;
nodes = (
"592 207 OFFCURVE",
"458 269 OFFCURVE",
"458 442 CURVE SMOOTH",
"458 567 LINE SMOOTH",
"458 739 OFFCURVE",
"594 798 OFFCURVE",
"814 798 CURVE SMOOTH",
"1036 798 OFFCURVE",
"1148 735 OFFCURVE",
"1148 567 CURVE SMOOTH",
"1148 442 LINE SMOOTH",
"1148 270 OFFCURVE",
"1038 207 OFFCURVE",
"814 207 CURVE SMOOTH"
);
},
{
closed = 1;
nodes = (
"1148 1090 OFFCURVE",
"1038 1031 OFFCURVE",
"814 1031 CURVE SMOOTH",
"592 1031 OFFCURVE",
"458 1089 OFFCURVE",
"458 1272 CURVE SMOOTH",
"458 1476 LINE",
"161 1476 LINE",
"161 1305 LINE SMOOTH",
"161 1033 OFFCURVE",
"283 798 OFFCURVE",
"814 798 CURVE SMOOTH",
"1322 798 OFFCURVE",
"1445 1051 OFFCURVE",
"1445 1305 CURVE SMOOTH",
"1445 1476 LINE",
"1148 1476 LINE",
"1148 1272 LINE SMOOTH"
);
}
);
width = 1606;
}
);
unicode = 0222;
},
{
glyphname = Ocenteredtilde;
layers = (
{
components = (
{
name = O;
}
);
layerId = "F85E8FEC-B3CD-4A54-BF30-AB1986ECE904";
paths = (
{
closed = 1;
nodes = (
"290 661 LINE",
"1250 661 LINE",
"1250 805 LINE",
"290 805 LINE"
);
}
);
width = 1546;
},
{
components = (
{
name = O;
}
);
layerId = "C6C96970-2BBD-4A47-8C90-C83F37B7F23D";
paths = (
{
closed = 1;
nodes = (
"330 653 LINE",
"1276 653 LINE",
"1276 843 LINE",
"330 843 LINE"
);
}
);
width = 1606;
}
);
leftKerningGroup = C;
rightKerningGroup = D;
unicode = 019F;
},
{
glyphname = Ohorn;
layers = (
{
layerId = "F85E8FEC-B3CD-4A54-BF30-AB1986ECE904";
paths = (
{
closed = 1;
nodes = (
"1247 -22 OFFCURVE",
"1360 203 OFFCURVE",
"1360 500 CURVE SMOOTH",
"1360 928 LINE SMOOTH",
"1360 1234 OFFCURVE",
"1249 1468 OFFCURVE",
"782 1468 CURVE SMOOTH",
"297 1468 OFFCURVE",
"186 1247 OFFCURVE",
"186 941 CURVE SMOOTH",
"186 486 LINE SMOOTH",
"186 185 OFFCURVE",
"299 -22 OFFCURVE",
"782 -22 CURVE SMOOTH"
);
},
{
closed = 1;
nodes = (
"526 140 OFFCURVE",
"388 199 OFFCURVE",
"388 455 CURVE SMOOTH",
"388 978 LINE SMOOTH",
"388 1235 OFFCURVE",
"528 1306 OFFCURVE",
"782 1306 CURVE SMOOTH",
"1038 1306 OFFCURVE",
"1159 1235 OFFCURVE",
"1159 978 CURVE SMOOTH",
"1159 455 LINE SMOOTH",
"1159 199 OFFCURVE",
"1040 140 OFFCURVE",
"782 140 CURVE SMOOTH"
);
},
{
closed = 1;
nodes = (
"951 1302 LINE",
"1081 1302 LINE SMOOTH",
"1271 1302 OFFCURVE",
"1385 1407 OFFCURVE",
"1385 1591 CURVE SMOOTH",
"1385 1715 LINE",
"1197 1715 LINE",
"1197 1574 LINE SMOOTH",
"1197 1493 OFFCURVE",
"1147 1446 OFFCURVE",
"1081 1446 CURVE SMOOTH",
"951 1446 LINE"
);
}
);
width = 1546;
},
{
layerId = "C6C96970-2BBD-4A47-8C90-C83F37B7F23D";
paths = (
{
closed = 1;
nodes = (
"1322 -26 OFFCURVE",
"1446 227 OFFCURVE",
"1446 517 CURVE SMOOTH",
"1446 948 LINE SMOOTH",
"1446 1247 OFFCURVE",
"1324 1501 OFFCURVE",
"814 1501 CURVE SMOOTH",
"281 1501 OFFCURVE",
"160 1262 OFFCURVE",
"160 963 CURVE SMOOTH",
"160 501 LINE SMOOTH",
"160 209 OFFCURVE",
"283 -26 OFFCURVE",
"814 -26 CURVE SMOOTH"
);
},
{
closed = 1;
nodes = (
"592 207 OFFCURVE",
"458 265 OFFCURVE",
"458 468 CURVE SMOOTH",
"458 1003 LINE SMOOTH",
"458 1205 OFFCURVE",
"594 1268 OFFCURVE",
"814 1268 CURVE SMOOTH",
"1036 1268 OFFCURVE",
"1148 1201 OFFCURVE",
"1148 1003 CURVE SMOOTH",
"1148 468 LINE SMOOTH",
"1148 266 OFFCURVE",
"1038 207 OFFCURVE",
"814 207 CURVE SMOOTH"
);
},
{
closed = 1;
nodes = (
"1019 1282 LINE",
"1149 1282 LINE SMOOTH",
"1339 1282 OFFCURVE",
"1493 1387 OFFCURVE",
"1493 1621 CURVE SMOOTH",
"1493 1745 LINE",
"1270 1745 LINE",
"1270 1604 LINE SMOOTH",
"1270 1523 OFFCURVE",
"1215 1476 OFFCURVE",
"1149 1476 CURVE SMOOTH",
"1019 1476 LINE"
);
}
);
width = 1606;
}
);
leftKerningGroup = C;
rightKerningGroup = D;
unicode = 01A0;
},
{
glyphname = "Omega-latin";
layers = (
{
background = {
components = (
{
name = M;
transform = "{1, 0, 0, 1, 8, 0}";
}
);
};
layerId = "F85E8FEC-B3CD-4A54-BF30-AB1986ECE904";
paths = (
{
closed = 1;
nodes = (
"764 -22 OFFCURVE",
"860 22 OFFCURVE",
"915 124 CURVE",
"878 124 LINE",
"933 22 OFFCURVE",
"1030 -22 OFFCURVE",
"1218 -22 CURVE SMOOTH",
"1532 -22 OFFCURVE",
"1608 109 OFFCURVE",
"1608 315 CURVE SMOOTH",
"1608 1118 LINE SMOOTH",
"1608 1314 OFFCURVE",
"1507 1456 OFFCURVE",
"1220 1456 CURVE",
"1220 1291 LINE",
"1348 1291 OFFCURVE",
"1406 1244 OFFCURVE",
"1406 1113 CURVE SMOOTH",
"1406 297 LINE SMOOTH",
"1406 196 OFFCURVE",
"1348 140 OFFCURVE",
"1199 140 CURVE SMOOTH",
"1055 140 OFFCURVE",
"997 196 OFFCURVE",
"997 307 CURVE SMOOTH",
"997 808 LINE",
"795 808 LINE",
"795 307 LINE SMOOTH",
"795 196 OFFCURVE",
"739 140 OFFCURVE",
"595 140 CURVE SMOOTH",
"444 140 OFFCURVE",
"388 196 OFFCURVE",
"388 297 CURVE SMOOTH",
"388 1113 LINE SMOOTH",
"388 1244 OFFCURVE",
"444 1291 OFFCURVE",
"574 1291 CURVE",
"574 1456 LINE",
"286 1456 OFFCURVE",
"186 1314 OFFCURVE",
"186 1118 CURVE SMOOTH",
"186 315 LINE SMOOTH",
"186 109 OFFCURVE",
"261 -22 OFFCURVE",
"575 -22 CURVE SMOOTH"
);
}
);
width = 1794;
},
{
background = {
components = (
{
name = M;
transform = "{1, 0, 0, 1, 10, 0}";
}
);
};
layerId = "C6C96970-2BBD-4A47-8C90-C83F37B7F23D";
paths = (
{
closed = 1;
nodes = (
"819 -22 OFFCURVE",
"912 22 OFFCURVE",
"965 144 CURVE",
"929 144 LINE",
"982 22 OFFCURVE",
"1075 -22 OFFCURVE",
"1306 -22 CURVE SMOOTH",
"1650 -22 OFFCURVE",
"1734 109 OFFCURVE",
"1734 295 CURVE SMOOTH",
"1734 1128 LINE SMOOTH",
"1734 1324 OFFCURVE",
"1601 1486 OFFCURVE",
"1235 1486 CURVE",
"1235 1260 LINE",
"1372 1260 OFFCURVE",
"1436 1213 OFFCURVE",
"1436 1102 CURVE SMOOTH",
"1436 328 LINE SMOOTH",
"1436 257 OFFCURVE",
"1398 211 OFFCURVE",
"1266 211 CURVE SMOOTH",
"1137 211 OFFCURVE",
"1096 257 OFFCURVE",
"1096 338 CURVE SMOOTH",
"1096 857 LINE",
"798 857 LINE",
"798 338 LINE SMOOTH",
"798 257 OFFCURVE",
"757 211 OFFCURVE",
"633 211 CURVE SMOOTH",
"506 211 OFFCURVE",
"458 257 OFFCURVE",
"458 328 CURVE SMOOTH",
"458 1102 LINE SMOOTH",
"458 1213 OFFCURVE",
"523 1260 OFFCURVE",
"659 1260 CURVE",
"659 1486 LINE",
"293 1486 OFFCURVE",
"160 1324 OFFCURVE",
"160 1128 CURVE SMOOTH",
"160 295 LINE SMOOTH",
"160 109 OFFCURVE",
"245 -22 OFFCURVE",
"589 -22 CURVE SMOOTH"
);
}
);
width = 1894;
}
);
unicode = A7B6;
},
{
glyphname = Oopen;
layers = (
{
layerId = "F85E8FEC-B3CD-4A54-BF30-AB1986ECE904";
paths = (
{
closed = 1;
nodes = (
"1178 -22 OFFCURVE",
"1274 185 OFFCURVE",
"1274 486 CURVE SMOOTH",
"1274 940 LINE SMOOTH",
"1274 1246 OFFCURVE",
"1182 1468 OFFCURVE",
"697 1468 CURVE SMOOTH",
"259 1468 OFFCURVE",
"156 1308 OFFCURVE",
"156 1010 CURVE SMOOTH",
"156 997 LINE",
"347 980 LINE",
"347 1007 LINE SMOOTH",
"347 1269 OFFCURVE",
"439 1306 OFFCURVE",
"697 1306 CURVE SMOOTH",
"951 1306 OFFCURVE",
"1072 1234 OFFCURVE",
"1072 977 CURVE SMOOTH",
"1072 455 LINE SMOOTH",
"1072 199 OFFCURVE",
"947 140 OFFCURVE",
"691 140 CURVE SMOOTH",
"440 140 OFFCURVE",
"347 165 OFFCURVE",
"347 424 CURVE SMOOTH",
"347 448 LINE",
"156 448 LINE",
"156 438 LINE SMOOTH",
"156 147 OFFCURVE",
"235 -22 OFFCURVE",
"695 -22 CURVE SMOOTH"
);
}
);
width = 1456;
},
{
layerId = "C6C96970-2BBD-4A47-8C90-C83F37B7F23D";
paths = (
{
closed = 1;
nodes = (
"1236 -26 OFFCURVE",
"1330 193 OFFCURVE",
"1330 484 CURVE SMOOTH",
"1330 977 LINE SMOOTH",
"1330 1275 OFFCURVE",
"1239 1501 OFFCURVE",
"710 1501 CURVE SMOOTH",
"206 1501 OFFCURVE",
"128 1281 OFFCURVE",
"128 983 CURVE SMOOTH",
"128 965 LINE",
"419 931 LINE",
"419 1006 LINE SMOOTH",
"419 1213 OFFCURVE",
"485 1268 OFFCURVE",
"710 1268 CURVE SMOOTH",
"930 1268 OFFCURVE",
"1033 1215 OFFCURVE",
"1033 1012 CURVE SMOOTH",
"1033 454 LINE SMOOTH",
"1033 252 OFFCURVE",
"931 207 OFFCURVE",
"709 207 CURVE SMOOTH",
"484 207 OFFCURVE",
"419 250 OFFCURVE",
"419 460 CURVE SMOOTH",
"419 507 LINE",
"128 507 LINE",
"128 480 LINE SMOOTH",
"128 190 OFFCURVE",
"198 -26 OFFCURVE",
"710 -26 CURVE SMOOTH"
);
}
);
width = 1490;
}
);
unicode = 0186;
},
{
glyphname = Oslash;
layers = (
{
anchors = (
{
name = top;
position = "{791, 1446}";
}
);
components = (
{
name = O;
}
);
layerId = "F85E8FEC-B3CD-4A54-BF30-AB1986ECE904";
paths = (
{
closed = 1;
nodes = (
"479 -195 LINE",
"1158 1638 LINE",
"1054 1676 LINE",
"376 -157 LINE"
);
}
);
width = 1546;
},
{
anchors = (
{
name = top;
position = "{803, 1476}";
}
);
background = {
paths = (
{
closed = 1;
nodes = (
"504 -217 LINE",
"1227 1675 LINE",
"1140 1698 LINE",
"417 -194 LINE"
);
}
);
};
components = (
{
name = O;
}
);
layerId = "C6C96970-2BBD-4A47-8C90-C83F37B7F23D";
paths = (
{
closed = 1;
nodes = (
"528 -195 LINE",
"1227 1638 LINE",
"1123 1676 LINE",
"425 -157 LINE"
);
}
);
width = 1606;
}
);
leftKerningGroup = C;
rightKerningGroup = D;
unicode = 00D8;
},
{
glyphname = OE;
layers = (
{
anchors = (
{
name = bottom;
position = "{881, 0}";
},
{
name = top;
position = "{881, 1446}";
}
);
background = {
paths = (
{
closed = 1;
nodes = (
"1399 150 LINE",
"976 150 LINE",
"976 664 LINE",
"1329 664 LINE",
"1329 814 LINE",
"976 814 LINE",
"976 1296 LINE",
"1390 1296 LINE",
"1390 1446 LINE",
"775 1446 LINE SMOOTH",
"497 1446 OFFCURVE",
"357 1349 QCURVE SMOOTH",
"183 1229 OFFCURVE",
"183 918 QCURVE SMOOTH",
"183 510 LINE SMOOTH",
"182 317 OFFCURVE",
"252 201 QCURVE SMOOTH",
"372 0 OFFCURVE",
"775 0 QCURVE SMOOTH",
"1399 0 LINE"
);
},
{
closed = 1;
nodes = (
"385 296 OFFCURVE",
"385 479 QCURVE SMOOTH",
"385 955 LINE SMOOTH",
"385 1139 OFFCURVE",
"572 1295 OFFCURVE",
"764 1295 QCURVE SMOOTH",
"775 1295 LINE",
"775 150 LINE",
"765 150 LINE SMOOTH",
"569 150 OFFCURVE"
);
}
);
};
layerId = "F85E8FEC-B3CD-4A54-BF30-AB1986ECE904";
paths = (
{
closed = 1;
nodes = (
"183 209 OFFCURVE",
"292 0 OFFCURVE",
"775 0 CURVE SMOOTH",
"1409 0 LINE",
"1409 150 LINE",
"986 150 LINE",
"986 664 LINE",
"1339 664 LINE",
"1339 814 LINE",
"986 814 LINE",
"986 1296 LINE",
"1400 1296 LINE",
"1400 1446 LINE",
"775 1446 LINE SMOOTH",
"290 1446 OFFCURVE",
"183 1224 OFFCURVE",
"183 918 CURVE SMOOTH",
"183 510 LINE SMOOTH"
);
},
{
closed = 1;
nodes = (
"765 150 LINE SMOOTH",
"516 150 OFFCURVE",
"385 226 OFFCURVE",
"385 479 CURVE SMOOTH",
"385 955 LINE SMOOTH",
"385 1208 OFFCURVE",
"517 1295 OFFCURVE",
"764 1295 CURVE SMOOTH",
"785 1295 LINE",
"785 150 LINE"
);
}
);
width = 1567;
},
{
anchors = (
{
name = bottom;
position = "{898, 0}";
},
{
name = top;
position = "{898, 1476}";
}
);
background = {
paths = (
{
closed = 1;
nodes = (
"430 444 QCURVE SMOOTH",
"430 1022 LINE SMOOTH",
"430 1279 OFFCURVE",
"713 1279 QCURVE SMOOTH",
"886 1279 LINE",
"886 191 LINE",
"714 191 LINE SMOOTH",
"430 191 OFFCURVE"
);
},
{
closed = 1;
nodes = (
"1507 190 LINE",
"1156 190 LINE",
"1156 665 LINE",
"1422 665 LINE",
"1422 858 LINE",
"1156 858 LINE",
"1156 1287 LINE",
"1505 1287 LINE",
"1505 1476 LINE",
"717 1476 LINE SMOOTH",
"459 1476 OFFCURVE",
"325 1377 QCURVE SMOOTH",
"160 1255 OFFCURVE",
"160 958 QCURVE SMOOTH",
"160 506 LINE SMOOTH",
"160 318 OFFCURVE",
"226 201 QCURVE SMOOTH",
"340 0 OFFCURVE",
"717 0 QCURVE SMOOTH",
"1507 0 LINE"
);
}
);
};
layerId = "C6C96970-2BBD-4A47-8C90-C83F37B7F23D";
paths = (
{
closed = 1;
nodes = (
"160 211 OFFCURVE",
"266 0 OFFCURVE",
"717 0 CURVE SMOOTH",
"1608 0 LINE",
"1608 224 LINE",
"1180 224 LINE",
"1180 645 LINE",
"1523 645 LINE",
"1523 858 LINE",
"1180 858 LINE",
"1180 1252 LINE",
"1606 1252 LINE",
"1606 1476 LINE",
"717 1476 LINE SMOOTH",
"264 1476 OFFCURVE",
"160 1247 OFFCURVE",
"160 958 CURVE SMOOTH",
"160 506 LINE SMOOTH"
);
},
{
closed = 1;
nodes = (
"742 225 LINE SMOOTH",
"522 225 OFFCURVE",
"458 336 OFFCURVE",
"458 478 CURVE SMOOTH",
"458 987 LINE SMOOTH",
"458 1130 OFFCURVE",
"523 1244 OFFCURVE",
"741 1244 CURVE SMOOTH",
"886 1244 LINE",
"886 225 LINE"
);
}
);
width = 1734;
}
);
unicode = 0152;
},
{
glyphname = P;
layers = (
{
anchors = (
{
name = top;
position = "{686, 1446}";
}
);
layerId = "F85E8FEC-B3CD-4A54-BF30-AB1986ECE904";
paths = (
{
closed = 1;
nodes = (
"218 0 LINE",
"420 0 LINE",
"420 529 LINE",
"793 529 LINE SMOOTH",
"1039 529 OFFCURVE",
"1198 645 OFFCURVE",
"1198 991 CURVE SMOOTH",
"1198 1320 OFFCURVE",
"1039 1446 OFFCURVE",
"796 1446 CURVE SMOOTH",
"218 1446 LINE"
);
},
{
closed = 1;
nodes = (
"420 682 LINE",
"420 1293 LINE",
"802 1293 LINE SMOOTH",
"983 1293 OFFCURVE",
"996 1118 OFFCURVE",
"996 977 CURVE SMOOTH",
"996 828 OFFCURVE",
"972 682 OFFCURVE",
"797 682 CURVE SMOOTH"
);
}
);
width = 1326;
},
{
anchors = (
{
name = top;
position = "{686, 1476}";
}
);
layerId = "C6C96970-2BBD-4A47-8C90-C83F37B7F23D";
paths = (
{
closed = 1;
nodes = (
"190 0 LINE",
"487 0 LINE",
"487 509 LINE",
"740 509 LINE SMOOTH",
"1126 509 OFFCURVE",
"1250 663 OFFCURVE",
"1250 1005 CURVE SMOOTH",
"1250 1338 OFFCURVE",
"1093 1476 OFFCURVE",
"769 1476 CURVE SMOOTH",
"190 1476 LINE"
);
},
{
closed = 1;
nodes = (
"487 726 LINE",
"487 1265 LINE",
"797 1265 LINE SMOOTH",
"937 1265 OFFCURVE",
"972 1145 OFFCURVE",
"972 990 CURVE SMOOTH",
"972 813 OFFCURVE",
"937 726 OFFCURVE",
"787 726 CURVE SMOOTH"
);
}
);
width = 1336;
}
);
rightKerningGroup = P;
unicode = 0050;
},
{
glyphname = Phook;
layers = (
{
components = (
{
name = P;
transform = "{1, 0, 0, 1, 131, 0}";
}
);
layerId = "F85E8FEC-B3CD-4A54-BF30-AB1986ECE904";
paths = (
{
closed = 1;
nodes = (
"172 1108 LINE SMOOTH",
"172 1235 OFFCURVE",
"208 1295 OFFCURVE",
"349 1295 CURVE",
"370 1446 LINE",
"102 1446 OFFCURVE",
"-20 1356 OFFCURVE",
"-20 1134 CURVE SMOOTH",
"-20 1078 LINE",
"172 1065 LINE"
);
}
);
width = 1457;
},
{
components = (
{
name = P;
transform = "{1, 0, 0, 1, 197, 0}";
}
);
layerId = "C6C96970-2BBD-4A47-8C90-C83F37B7F23D";
paths = (
{
closed = 1;
nodes = (
"216 1108 LINE SMOOTH",
"216 1227 OFFCURVE",
"260 1273 OFFCURVE",
"387 1273 CURVE",
"418 1476 LINE",
"68 1476 OFFCURVE",
"-24 1375 OFFCURVE",
"-24 1122 CURVE SMOOTH",
"-24 1038 LINE",
"216 1028 LINE"
);
}
);
width = 1533;
}
);
rightKerningGroup = P;
rightMetricsKey = P;
unicode = 01A4;
},
{
glyphname = Thorn;
layers = (
{
layerId = "F85E8FEC-B3CD-4A54-BF30-AB1986ECE904";
paths = (
{
closed = 1;
nodes = (
"212 0 LINE",
"414 0 LINE",
"414 331 LINE",
"787 331 LINE SMOOTH",
"1033 331 OFFCURVE",
"1192 427 OFFCURVE",
"1192 773 CURVE SMOOTH",
"1192 1102 OFFCURVE",
"1031 1208 OFFCURVE",
"788 1208 CURVE SMOOTH",
"414 1208 LINE",
"414 1446 LINE",
"212 1446 LINE"
);
},
{
closed = 1;
nodes = (
"414 484 LINE",
"414 1055 LINE",
"794 1055 LINE SMOOTH",
"975 1055 OFFCURVE",
"990 900 OFFCURVE",
"990 759 CURVE SMOOTH",
"990 610 OFFCURVE",
"966 484 OFFCURVE",
"791 484 CURVE SMOOTH"
);
}
);
width = 1320;
},
{
layerId = "C6C96970-2BBD-4A47-8C90-C83F37B7F23D";
paths = (
{
closed = 1;
nodes = (
"216 0 LINE",
"513 0 LINE",
"513 356 LINE",
"778 356 LINE SMOOTH",
"1164 356 OFFCURVE",
"1272 469 OFFCURVE",
"1272 811 CURVE SMOOTH",
"1272 1143 OFFCURVE",
"1133 1240 OFFCURVE",
"806 1240 CURVE SMOOTH",
"513 1240 LINE",
"513 1476 LINE",
"216 1476 LINE"
);
},
{
closed = 1;
nodes = (
"513 567 LINE",
"513 1033 LINE",
"834 1033 LINE SMOOTH",
"974 1033 OFFCURVE",
"1004 951 OFFCURVE",
"1004 797 CURVE SMOOTH",
"1004 619 OFFCURVE",
"975 567 OFFCURVE",
"825 567 CURVE SMOOTH"
);
}
);
width = 1362;
}
);
rightKerningGroup = P;
unicode = 00DE;
},
{
glyphname = Pstroke;
layers = (
{
components = (
{
name = P;
}
);
layerId = "F85E8FEC-B3CD-4A54-BF30-AB1986ECE904";
paths = (
{
closed = 1;
nodes = (
"30 918 LINE",
"701 918 LINE",
"701 1062 LINE",
"30 1062 LINE"
);
}
);
width = 1326;
},
{
components = (
{
name = P;
}
);
layerId = "C6C96970-2BBD-4A47-8C90-C83F37B7F23D";
paths = (
{
closed = 1;
nodes = (
"30 903 LINE",
"726 903 LINE",
"726 1093 LINE",
"30 1093 LINE"
);
}
);
width = 1336;
}
);
rightKerningGroup = P;
unicode = 2C63;
},
{
glyphname = Q;
layers = (
{
layerId = "F85E8FEC-B3CD-4A54-BF30-AB1986ECE904";
paths = (
{
closed = 1;
nodes = (
"1085 -308 LINE",
"895 -17 LINE",
"1266 18 OFFCURVE",
"1360 229 OFFCURVE",
"1360 500 CURVE SMOOTH",
"1360 928 LINE SMOOTH",
"1360 1234 OFFCURVE",
"1249 1468 OFFCURVE",
"782 1468 CURVE SMOOTH",
"297 1468 OFFCURVE",
"186 1247 OFFCURVE",
"186 941 CURVE SMOOTH",
"186 486 LINE SMOOTH",
"186 200 OFFCURVE",
"288 -2 OFFCURVE",
"714 -21 CURVE",
"944 -384 LINE"
);
},
{
closed = 1;
nodes = (
"526 140 OFFCURVE",
"388 199 OFFCURVE",
"388 455 CURVE SMOOTH",
"388 978 LINE SMOOTH",
"388 1235 OFFCURVE",
"528 1306 OFFCURVE",
"782 1306 CURVE SMOOTH",
"1038 1306 OFFCURVE",
"1159 1235 OFFCURVE",
"1159 978 CURVE SMOOTH",
"1159 455 LINE SMOOTH",
"1159 199 OFFCURVE",
"1040 140 OFFCURVE",
"782 140 CURVE SMOOTH"
);
}
);
width = 1542;
},
{
layerId = "C6C96970-2BBD-4A47-8C90-C83F37B7F23D";
paths = (
{
closed = 1;
nodes = (
"1207 -418 LINE",
"954 -19 LINE",
"1345 25 OFFCURVE",
"1446 256 OFFCURVE",
"1446 517 CURVE SMOOTH",
"1446 948 LINE SMOOTH",
"1446 1247 OFFCURVE",
"1324 1501 OFFCURVE",
"814 1501 CURVE SMOOTH",
"281 1501 OFFCURVE",
"160 1262 OFFCURVE",
"160 963 CURVE SMOOTH",
"160 501 LINE SMOOTH",
"160 234 OFFCURVE",
"263 14 OFFCURVE",
"688 -21 CURVE",
"1010 -534 LINE"
);
},
{
closed = 1;
nodes = (
"592 207 OFFCURVE",
"458 265 OFFCURVE",
"458 468 CURVE SMOOTH",
"458 1003 LINE SMOOTH",
"458 1205 OFFCURVE",
"594 1268 OFFCURVE",
"814 1268 CURVE SMOOTH",
"1036 1268 OFFCURVE",
"1148 1201 OFFCURVE",
"1148 1003 CURVE SMOOTH",
"1148 468 LINE SMOOTH",
"1148 266 OFFCURVE",
"1038 207 OFFCURVE",
"814 207 CURVE SMOOTH"
);
}
);
width = 1606;
}
);
leftKerningGroup = C;
rightKerningGroup = D;
unicode = 0051;
},
{
glyphname = Qhooktail;
layers = (
{
background = {
paths = (
{
closed = 1;
nodes = (
"905 -22 OFFCURVE",
"1048 23 OFFCURVE",
"1213 159 CURVE",
"1140 -197 LINE",
"1184 -332 OFFCURVE",
"1213 -408 OFFCURVE",
"1404 -408 CURVE SMOOTH",
"1456 -408 LINE",
"1480 -256 LINE",
"1356 -256 OFFCURVE",
"1335 -229 OFFCURVE",
"1335 -77 CURVE SMOOTH",
"1335 1446 LINE",
"1143 1446 LINE",
"1143 1286 LINE",
"1153 1311 LINE",
"1096 1392 OFFCURVE",
"964 1473 OFFCURVE",
"741 1473 CURVE SMOOTH",
"377 1473 OFFCURVE",
"186 1285 OFFCURVE",
"186 995 CURVE SMOOTH",
"186 437 LINE SMOOTH",
"186 139 OFFCURVE",
"363 -22 OFFCURVE",
"721 -22 CURVE SMOOTH"
);
},
{
closed = 1;
nodes = (
"506 141 OFFCURVE",
"388 231 OFFCURVE",
"388 419 CURVE SMOOTH",
"388 1016 LINE SMOOTH",
"388 1192 OFFCURVE",
"504 1306 OFFCURVE",
"761 1306 CURVE SMOOTH",
"1039 1306 OFFCURVE",
"1133 1188 OFFCURVE",
"1133 1056 CURVE SMOOTH",
"1133 255 LINE",
"1085 211 OFFCURVE",
"975 141 OFFCURVE",
"764 141 CURVE SMOOTH"
);
}
);
};
layerId = "F85E8FEC-B3CD-4A54-BF30-AB1986ECE904";
paths = (
{
closed = 1;
nodes = (
"905 -22 OFFCURVE",
"1048 23 OFFCURVE",
"1213 159 CURVE",
"1140 185 LINE",
"1140 -117 LINE SMOOTH",
"1140 -311 OFFCURVE",
"1213 -408 OFFCURVE",
"1404 -408 CURVE SMOOTH",
"1456 -408 LINE",
"1480 -256 LINE",
"1356 -256 OFFCURVE",
"1335 -229 OFFCURVE",
"1335 -77 CURVE SMOOTH",
"1335 1446 LINE",
"1143 1446 LINE",
"1143 1286 LINE",
"1153 1311 LINE",
"1096 1392 OFFCURVE",
"964 1473 OFFCURVE",
"741 1473 CURVE SMOOTH",
"377 1473 OFFCURVE",
"186 1285 OFFCURVE",
"186 995 CURVE SMOOTH",
"186 437 LINE SMOOTH",
"186 139 OFFCURVE",
"363 -22 OFFCURVE",
"721 -22 CURVE SMOOTH"
);
},
{
closed = 1;
nodes = (
"506 141 OFFCURVE",
"388 231 OFFCURVE",
"388 419 CURVE SMOOTH",
"388 1016 LINE SMOOTH",
"388 1192 OFFCURVE",
"504 1306 OFFCURVE",
"761 1306 CURVE SMOOTH",
"1039 1306 OFFCURVE",
"1133 1188 OFFCURVE",
"1133 1056 CURVE SMOOTH",
"1133 255 LINE",
"1085 211 OFFCURVE",
"975 141 OFFCURVE",
"764 141 CURVE SMOOTH"
);
}
);
width = 1546;
},
{
background = {
paths = (
{
closed = 1;
nodes = (
"914 -23 OFFCURVE",
"1043 17 OFFCURVE",
"1186 156 CURVE",
"1081 -197 LINE",
"1110 -355 OFFCURVE",
"1209 -410 OFFCURVE",
"1400 -410 CURVE SMOOTH",
"1473 -410 LINE",
"1485 -185 LINE",
"1399 -185 OFFCURVE",
"1376 -157 OFFCURVE",
"1376 -63 CURVE SMOOTH",
"1376 1476 LINE",
"1117 1476 LINE",
"1071 1313 LINE",
"1112 1368 LINE",
"1034 1452 OFFCURVE",
"885 1500 OFFCURVE",
"716 1500 CURVE SMOOTH",
"331 1500 OFFCURVE",
"160 1289 OFFCURVE",
"160 1018 CURVE SMOOTH",
"160 472 LINE SMOOTH",
"160 176 OFFCURVE",
"351 -23 OFFCURVE",
"733 -23 CURVE SMOOTH"
);
},
{
closed = 1;
nodes = (
"595 207 OFFCURVE",
"458 287 OFFCURVE",
"458 446 CURVE SMOOTH",
"458 1016 LINE SMOOTH",
"458 1188 OFFCURVE",
"590 1267 OFFCURVE",
"801 1267 CURVE SMOOTH",
"1000 1267 OFFCURVE",
"1078 1211 OFFCURVE",
"1078 1181 CURVE SMOOTH",
"1078 276 LINE",
"1024 242 OFFCURVE",
"924 207 OFFCURVE",
"767 207 CURVE SMOOTH"
);
}
);
};
layerId = "C6C96970-2BBD-4A47-8C90-C83F37B7F23D";
paths = (
{
closed = 1;
nodes = (
"914 -23 OFFCURVE",
"1043 17 OFFCURVE",
"1186 156 CURVE",
"1081 175 LINE",
"1081 -147 LINE SMOOTH",
"1081 -325 OFFCURVE",
"1181 -410 OFFCURVE",
"1400 -410 CURVE SMOOTH",
"1473 -410 LINE",
"1485 -185 LINE",
"1399 -185 OFFCURVE",
"1376 -157 OFFCURVE",
"1376 -63 CURVE SMOOTH",
"1376 1476 LINE",
"1117 1476 LINE",
"1071 1313 LINE",
"1112 1368 LINE",
"1034 1452 OFFCURVE",
"885 1500 OFFCURVE",
"716 1500 CURVE SMOOTH",
"331 1500 OFFCURVE",
"160 1289 OFFCURVE",
"160 1018 CURVE SMOOTH",
"160 472 LINE SMOOTH",
"160 176 OFFCURVE",
"351 -23 OFFCURVE",
"733 -23 CURVE SMOOTH"
);
},
{
closed = 1;
nodes = (
"595 207 OFFCURVE",
"458 287 OFFCURVE",
"458 446 CURVE SMOOTH",
"458 1016 LINE SMOOTH",
"458 1188 OFFCURVE",
"590 1267 OFFCURVE",
"801 1267 CURVE SMOOTH",
"1000 1267 OFFCURVE",
"1078 1211 OFFCURVE",
"1078 1181 CURVE SMOOTH",
"1078 276 LINE",
"1024 242 OFFCURVE",
"924 207 OFFCURVE",
"767 207 CURVE SMOOTH"
);
}
);
width = 1595;
}
);
unicode = 024A;
},
{
glyphname = R;
layers = (
{
anchors = (
{
name = bottom;
position = "{732, 0}";
},
{
name = top;
position = "{703, 1446}";
}
);
layerId = "F85E8FEC-B3CD-4A54-BF30-AB1986ECE904";
paths = (
{
closed = 1;
nodes = (
"420 0 LINE",
"420 600 LINE",
"876 600 LINE",
"1163 0 LINE",
"1370 0 LINE",
"1063 636 LINE",
"1184 687 OFFCURVE",
"1267 784 OFFCURVE",
"1267 1018 CURVE SMOOTH",
"1267 1341 OFFCURVE",
"1106 1446 OFFCURVE",
"863 1446 CURVE SMOOTH",
"218 1446 LINE",
"218 0 LINE"
);
},
{
closed = 1;
nodes = (
"420 1293 LINE",
"869 1293 LINE SMOOTH",
"1050 1293 OFFCURVE",
"1065 1139 OFFCURVE",
"1065 1000 CURVE SMOOTH",
"1065 861 OFFCURVE",
"1021 752 OFFCURVE",
"846 752 CURVE SMOOTH",
"420 752 LINE"
);
}
);
width = 1464;
},
{
anchors = (
{
name = bottom;
position = "{742, 0}";
},
{
name = top;
position = "{724, 1476}";
}
);
layerId = "C6C96970-2BBD-4A47-8C90-C83F37B7F23D";
paths = (
{
closed = 1;
nodes = (
"487 0 LINE",
"487 583 LINE",
"821 583 LINE",
"1080 0 LINE",
"1388 0 LINE",
"1103 626 LINE",
"1283 699 OFFCURVE",
"1320 853 OFFCURVE",
"1320 1035 CURVE SMOOTH",
"1320 1301 OFFCURVE",
"1219 1476 OFFCURVE",
"827 1476 CURVE SMOOTH",
"190 1476 LINE",
"190 0 LINE"
);
},
{
closed = 1;
nodes = (
"487 1265 LINE",
"864 1265 LINE SMOOTH",
"1011 1265 OFFCURVE",
"1036 1142 OFFCURVE",
"1036 1022 CURVE SMOOTH",
"1036 896 OFFCURVE",
"1004 795 OFFCURVE",
"852 795 CURVE SMOOTH",
"487 795 LINE"
);
}
);
width = 1484;
}
);
rightKerningGroup = R;
unicode = 0052;
},
{
glyphname = Rstroke;
layers = (
{
components = (
{
name = R;
}
);
layerId = "F85E8FEC-B3CD-4A54-BF30-AB1986ECE904";
paths = (
{
closed = 1;
nodes = (
"30 603 LINE",
"701 603 LINE",
"701 747 LINE",
"30 747 LINE"
);
}
);
width = 1464;
},
{
components = (
{
name = R;
}
);
layerId = "C6C96970-2BBD-4A47-8C90-C83F37B7F23D";
paths = (
{
closed = 1;
nodes = (
"30 593 LINE",
"726 593 LINE",
"726 783 LINE",
"30 783 LINE"
);
}
);
width = 1484;
}
);
rightKerningGroup = R;
unicode = 024C;
},
{
glyphname = Rtail;
layers = (
{
layerId = "F85E8FEC-B3CD-4A54-BF30-AB1986ECE904";
paths = (
{
closed = 1;
nodes = (
"599 -408 LINE",
"612 -256 LINE",
"579 -256 LINE SMOOTH",
"459 -256 OFFCURVE",
"420 -216 OFFCURVE",
"420 -69 CURVE SMOOTH",
"420 600 LINE",
"876 600 LINE",
"1163 0 LINE",
"1370 0 LINE",
"1063 636 LINE",
"1184 687 OFFCURVE",
"1267 784 OFFCURVE",
"1267 1018 CURVE SMOOTH",
"1267 1341 OFFCURVE",
"1106 1446 OFFCURVE",
"863 1446 CURVE SMOOTH",
"218 1446 LINE",
"218 -76 LINE SMOOTH",
"218 -315 OFFCURVE",
"321 -408 OFFCURVE",
"532 -408 CURVE SMOOTH"
);
},
{
closed = 1;
nodes = (
"420 1293 LINE",
"869 1293 LINE SMOOTH",
"1050 1293 OFFCURVE",
"1065 1139 OFFCURVE",
"1065 1000 CURVE SMOOTH",
"1065 861 OFFCURVE",
"1021 752 OFFCURVE",
"846 752 CURVE SMOOTH",
"420 752 LINE"
);
}
);
width = 1464;
},
{
layerId = "C6C96970-2BBD-4A47-8C90-C83F37B7F23D";
paths = (
{
closed = 1;
nodes = (
"623 -410 LINE",
"633 -185 LINE",
"603 -185 LINE SMOOTH",
"524 -185 OFFCURVE",
"487 -141 OFFCURVE",
"487 -44 CURVE SMOOTH",
"487 583 LINE",
"821 583 LINE",
"1080 0 LINE",
"1388 0 LINE",
"1103 626 LINE",
"1283 699 OFFCURVE",
"1320 853 OFFCURVE",
"1320 1035 CURVE SMOOTH",
"1320 1301 OFFCURVE",
"1219 1476 OFFCURVE",
"827 1476 CURVE SMOOTH",
"190 1476 LINE",
"190 -76 LINE SMOOTH",
"190 -299 OFFCURVE",
"313 -410 OFFCURVE",
"529 -410 CURVE SMOOTH"
);
},
{
closed = 1;
nodes = (
"487 1265 LINE",
"864 1265 LINE SMOOTH",
"1011 1265 OFFCURVE",
"1036 1142 OFFCURVE",
"1036 1022 CURVE SMOOTH",
"1036 896 OFFCURVE",
"1004 795 OFFCURVE",
"852 795 CURVE SMOOTH",
"487 795 LINE"
);
}
);
width = 1484;
}
);
rightKerningGroup = R;
unicode = 2C64;
},
{
glyphname = S;
layers = (
{
anchors = (
{
name = bottom;
position = "{667, 0}";
},
{
name = top;
position = "{683, 1446}";
}
);
background = {
paths = (
{
closed = 1;
nodes = (
"691 -22 CURVE SMOOTH",
"1027.25 -22 OFFCURVE",
"1164.39 138.537 OFFCURVE",
"1164.39 405.635 CURVE SMOOTH",
"1164.39 625.081 OFFCURVE",
"1075.51 717.532 OFFCURVE",
"879 784 CURVE SMOOTH",
"515 907 LINE SMOOTH",
"370.846 955.387 OFFCURVE",
"360.367 1017.73 OFFCURVE",
"368 1137 CURVE SMOOTH",
"376 1260 OFFCURVE",
"492 1306 OFFCURVE",
"691 1306 CURVE SMOOTH",
"879 1306 OFFCURVE",
"1005 1257 OFFCURVE",
"1092 1210 CURVE",
"1141 1367 LINE",
"1048 1425 OFFCURVE",
"903 1468 OFFCURVE",
"656 1468 CURVE SMOOTH",
"378.94 1468 OFFCURVE",
"171.458 1366.33 OFFCURVE",
"171.458 1089.32 CURVE SMOOTH",
"171.458 891.506 OFFCURVE",
"253.401 801.896 OFFCURVE",
"453 736 CURVE SMOOTH",
"802 620 LINE",
"948.604 572.904 OFFCURVE",
"978.077 518.308 OFFCURVE",
"978.077 437.363 CURVE SMOOTH",
"978.077 228.745 OFFCURVE",
"922.263 140 OFFCURVE",
"687 140 CURVE SMOOTH",
"510 140 OFFCURVE",
"325 202 OFFCURVE",
"215 267 CURVE",
"144 113 LINE",
"296 25 OFFCURVE",
"476 -22 OFFCURVE"
);
}
);
};
layerId = "F85E8FEC-B3CD-4A54-BF30-AB1986ECE904";
paths = (
{
closed = 1;
nodes = (
"1027 -22 OFFCURVE",
"1164 139 OFFCURVE",
"1164 406 CURVE SMOOTH",
"1164 625 OFFCURVE",
"1076 717 OFFCURVE",
"879 784 CURVE SMOOTH",
"515 907 LINE SMOOTH",
"392 949 OFFCURVE",
"366 1000 OFFCURVE",
"366 1088 CURVE SMOOTH",
"366 1269 OFFCURVE",
"482 1306 OFFCURVE",
"691 1306 CURVE SMOOTH",
"879 1306 OFFCURVE",
"1005 1257 OFFCURVE",
"1092 1210 CURVE",
"1141 1367 LINE",
"1048 1425 OFFCURVE",
"903 1468 OFFCURVE",
"656 1468 CURVE SMOOTH",
"379 1468 OFFCURVE",
"171 1366 OFFCURVE",
"171 1089 CURVE SMOOTH",
"171 892 OFFCURVE",
"253 802 OFFCURVE",
"453 736 CURVE SMOOTH",
"802 620 LINE SMOOTH",
"949 571 OFFCURVE",
"978 518 OFFCURVE",
"978 437 CURVE SMOOTH",
"978 229 OFFCURVE",
"922 140 OFFCURVE",
"687 140 CURVE SMOOTH",
"510 140 OFFCURVE",
"325 202 OFFCURVE",
"215 267 CURVE",
"144 113 LINE",
"296 25 OFFCURVE",
"476 -22 OFFCURVE",
"691 -22 CURVE SMOOTH"
);
}
);
width = 1304;
},
{
anchors = (
{
name = bottom;
position = "{644, 0}";
},
{
name = top;
position = "{670, 1476}";
}
);
layerId = "C6C96970-2BBD-4A47-8C90-C83F37B7F23D";
paths = (
{
closed = 1;
nodes = (
"1025 -26 OFFCURVE",
"1169 172 OFFCURVE",
"1169 422 CURVE SMOOTH",
"1169 654 OFFCURVE",
"1069 777 OFFCURVE",
"870 837 CURVE SMOOTH",
"619 912 LINE SMOOTH",
"470 957 OFFCURVE",
"428 1003 OFFCURVE",
"428 1104 CURVE SMOOTH",
"428 1231 OFFCURVE",
"524 1268 OFFCURVE",
"675 1268 CURVE SMOOTH",
"819 1268 OFFCURVE",
"949 1229 OFFCURVE",
"1059 1177 CURVE",
"1143 1386 LINE",
"1007 1465 OFFCURVE",
"844 1501 OFFCURVE",
"649 1501 CURVE SMOOTH",
"358 1501 OFFCURVE",
"136 1369 OFFCURVE",
"136 1094 CURVE SMOOTH",
"136 905 OFFCURVE",
"201 752 OFFCURVE",
"442 681 CURVE SMOOTH",
"694 607 LINE SMOOTH",
"871 555 OFFCURVE",
"898 493 OFFCURVE",
"898 412 CURVE SMOOTH",
"898 291 OFFCURVE",
"862 207 OFFCURVE",
"681 207 CURVE SMOOTH",
"498 207 OFFCURVE",
"335 265 OFFCURVE",
"222 325 CURVE",
"120 108 LINE",
"268 25 OFFCURVE",
"487 -26 OFFCURVE",
"688 -26 CURVE SMOOTH"
);
}
);
width = 1281;
}
);
leftKerningGroup = S;
unicode = 0053;
},
{
glyphname = Saltillo;
layers = (
{
layerId = "F85E8FEC-B3CD-4A54-BF30-AB1986ECE904";
paths = (
{
closed = 1;
nodes = (
"186 1427 OFFCURVE",
"214 973 OFFCURVE",
"253 578 CURVE",
"309 578 LINE",
"355 976 OFFCURVE",
"388 1429 OFFCURVE",
"388 1653 CURVE",
"186 1653 LINE"
);
}
);
width = 548;
},
{
background = {
paths = (
{
closed = 1;
nodes = (
"220 651 LINE",
"296 651 LINE",
"396 1718 LINE",
"137 1718 LINE"
);
}
);
};
layerId = "C6C96970-2BBD-4A47-8C90-C83F37B7F23D";
paths = (
{
closed = 1;
nodes = (
"137 1676 OFFCURVE",
"185 1068 OFFCURVE",
"221 651 CURVE",
"296 651 LINE",
"339 1071 OFFCURVE",
"396 1677 OFFCURVE",
"396 1718 CURVE",
"137 1718 LINE"
);
}
);
width = 528;
}
);
unicode = A78B;
},
{
glyphname = Germandbls;
layers = (
{
layerId = "F85E8FEC-B3CD-4A54-BF30-AB1986ECE904";
paths = (
{
closed = 1;
nodes = (
"413 0 LINE",
"413 1021 LINE SMOOTH",
"413 1202 OFFCURVE",
"504 1281 OFFCURVE",
"711 1281 CURVE SMOOTH",
"1125 1281 LINE",
"1092 1322 LINE",
"766 800 LINE",
"766 696 LINE",
"879 696 LINE SMOOTH",
"1070 696 OFFCURVE",
"1158 608 OFFCURVE",
"1158 417 CURVE SMOOTH",
"1158 231 OFFCURVE",
"1077 165 OFFCURVE",
"849 165 CURVE SMOOTH",
"632 165 LINE",
"632 0 LINE",
"852 0 LINE SMOOTH",
"1194 0 OFFCURVE",
"1356 131 OFFCURVE",
"1356 408 CURVE SMOOTH",
"1356 673 OFFCURVE",
"1208 822 OFFCURVE",
"933 836 CURVE",
"938 738 LINE",
"1288 1295 LINE",
"1288 1446 LINE",
"732 1446 LINE SMOOTH",
"367 1446 OFFCURVE",
"212 1318 OFFCURVE",
"212 1017 CURVE SMOOTH",
"212 0 LINE"
);
}
);
width = 1484;
},
{
background = {
paths = (
{
closed = 1;
nodes = (
"190 0 LINE",
"488 0 LINE",
"488 615 LINE",
"1136 615 LINE",
"1136 0 LINE",
"1434 0 LINE",
"1434 1476 LINE",
"1136 1476 LINE",
"1136 848 LINE",
"488 848 LINE",
"488 1476 LINE",
"190 1476 LINE"
);
}
);
};
layerId = "C6C96970-2BBD-4A47-8C90-C83F37B7F23D";
paths = (
{
closed = 1;
nodes = (
"488 0 LINE",
"488 1022 LINE SMOOTH",
"488 1197 OFFCURVE",
"561 1260 OFFCURVE",
"762 1260 CURVE SMOOTH",
"1083 1260 LINE",
"1062 1298 LINE",
"762 827 LINE",
"762 622 LINE",
"874 622 LINE SMOOTH",
"1093 622 OFFCURVE",
"1147 582 OFFCURVE",
"1147 419 CURVE SMOOTH",
"1147 256 OFFCURVE",
"1093 216 OFFCURVE",
"874 216 CURVE SMOOTH",
"641 216 LINE",
"641 0 LINE",
"929 0 LINE SMOOTH",
"1278 0 OFFCURVE",
"1443 133 OFFCURVE",
"1443 415 CURVE SMOOTH",
"1443 667 OFFCURVE",
"1311 798 OFFCURVE",
"1032 823 CURVE",
"1047 781 LINE",
"1374 1297 LINE",
"1374 1476 LINE",
"743 1476 LINE SMOOTH",
"350 1476 OFFCURVE",
"190 1349 OFFCURVE",
"190 1038 CURVE SMOOTH",
"190 0 LINE"
);
}
);
width = 1555;
}
);
unicode = 1E9E;
},
{
glyphname = Sobliquestroke;
layers = (
{
components = (
{
name = S;
}
);
layerId = "F85E8FEC-B3CD-4A54-BF30-AB1986ECE904";
paths = (
{
closed = 1;
nodes = (
"190 444 LINE",
"1141 884 LINE",
"1141 1038 LINE",
"190 598 LINE"
);
}
);
width = 1304;
},
{
components = (
{
name = S;
}
);
layerId = "C6C96970-2BBD-4A47-8C90-C83F37B7F23D";
paths = (
{
closed = 1;
nodes = (
"160 404 LINE",
"1169 894 LINE",
"1169 1093 LINE",
"160 603 LINE"
);
}
);
width = 1281;
}
);
leftKerningGroup = S;
unicode = A7A8;
},
{
glyphname = Schwa;
layers = (
{
layerId = "F85E8FEC-B3CD-4A54-BF30-AB1986ECE904";
paths = (
{
closed = 1;
nodes = (
"259 1468 OFFCURVE",
"156 1308 OFFCURVE",
"156 1010 CURVE SMOOTH",
"156 997 LINE",
"347 980 LINE",
"347 1007 LINE SMOOTH",
"347 1269 OFFCURVE",
"439 1306 OFFCURVE",
"697 1306 CURVE SMOOTH",
"951 1306 OFFCURVE",
"1072 1234 OFFCURVE",
"1072 977 CURVE SMOOTH",
"1072 786 LINE",
"156 786 LINE",
"156 438 LINE SMOOTH",
"156 147 OFFCURVE",
"235 -22 OFFCURVE",
"695 -22 CURVE SMOOTH",
"1178 -22 OFFCURVE",
"1274 185 OFFCURVE",
"1274 486 CURVE SMOOTH",
"1274 940 LINE SMOOTH",
"1274 1246 OFFCURVE",
"1182 1468 OFFCURVE",
"697 1468 CURVE SMOOTH"
);
},
{
closed = 1;
nodes = (
"440 140 OFFCURVE",
"347 165 OFFCURVE",
"347 424 CURVE SMOOTH",
"347 638 LINE",
"1072 638 LINE",
"1072 455 LINE SMOOTH",
"1072 199 OFFCURVE",
"947 140 OFFCURVE",
"691 140 CURVE SMOOTH"
);
}
);
width = 1456;
},
{
background = {
paths = (
{
closed = 1;
nodes = (
"1096 -23 OFFCURVE",
"1331 138 OFFCURVE",
"1331 427 CURVE SMOOTH",
"1331 978 LINE SMOOTH",
"1331 1391 OFFCURVE",
"1070 1500 OFFCURVE",
"723 1500 CURVE SMOOTH",
"324 1500 OFFCURVE",
"129 1386 OFFCURVE",
"129 985 CURVE",
"461 985 LINE",
"461 1200 OFFCURVE",
"513 1252 OFFCURVE",
"717 1252 CURVE SMOOTH",
"888 1252 OFFCURVE",
"974 1220 OFFCURVE",
"974 1012 CURVE SMOOTH",
"974 827 LINE",
"128 827 LINE",
"128 440 LINE SMOOTH",
"128 156 OFFCURVE",
"293 -23 OFFCURVE",
"729 -23 CURVE SMOOTH"
);
},
{
closed = 1;
nodes = (
"576 227 OFFCURVE",
"466 241 OFFCURVE",
"466 398 CURVE SMOOTH",
"466 608 LINE",
"974 608 LINE",
"974 405 LINE SMOOTH",
"974 255 OFFCURVE",
"863 227 OFFCURVE",
"719 227 CURVE SMOOTH"
);
}
);
};
layerId = "C6C96970-2BBD-4A47-8C90-C83F37B7F23D";
paths = (
{
closed = 1;
nodes = (
"206 1501 OFFCURVE",
"128 1281 OFFCURVE",
"128 1023 CURVE SMOOTH",
"128 985 LINE",
"419 971 LINE",
"419 1026 LINE SMOOTH",
"419 1213 OFFCURVE",
"485 1268 OFFCURVE",
"710 1268 CURVE SMOOTH",
"930 1268 OFFCURVE",
"1033 1215 OFFCURVE",
"1033 1012 CURVE SMOOTH",
"1033 806 LINE",
"128 806 LINE",
"128 480 LINE SMOOTH",
"128 190 OFFCURVE",
"198 -26 OFFCURVE",
"710 -26 CURVE SMOOTH",
"1236 -26 OFFCURVE",
"1330 193 OFFCURVE",
"1330 484 CURVE SMOOTH",
"1330 977 LINE SMOOTH",
"1330 1275 OFFCURVE",
"1239 1501 OFFCURVE",
"710 1501 CURVE SMOOTH"
);
},
{
closed = 1;
nodes = (
"484 207 OFFCURVE",
"419 250 OFFCURVE",
"419 460 CURVE SMOOTH",
"419 576 LINE",
"1033 576 LINE",
"1033 454 LINE SMOOTH",
"1033 252 OFFCURVE",
"931 207 OFFCURVE",
"709 207 CURVE SMOOTH"
);
}
);
width = 1490;
}
);
unicode = 018F;
},
{
glyphname = T;
layers = (
{
anchors = (
{
name = bottom;
position = "{602, 0}";
},
{
name = mid;
position = "{603, 753}";
},
{
name = top;
position = "{614, 1446}";
}
);
layerId = "F85E8FEC-B3CD-4A54-BF30-AB1986ECE904";
paths = (
{
closed = 1;
nodes = (
"702 0 LINE",
"702 1281 LINE",
"1120 1281 LINE",
"1120 1446 LINE",
"84 1446 LINE",
"84 1281 LINE",
"501 1281 LINE",
"501 0 LINE"
);
}
);
width = 1204;
},
{
anchors = (
{
name = bottom;
position = "{595, 0}";
},
{
name = mid;
position = "{603, 762}";
},
{
name = top;
position = "{601, 1476}";
}
);
layerId = "C6C96970-2BBD-4A47-8C90-C83F37B7F23D";
paths = (
{
closed = 1;
nodes = (
"745 0 LINE",
"745 1250 LINE",
"1156 1250 LINE",
"1156 1476 LINE",
"38 1476 LINE",
"38 1250 LINE",
"449 1250 LINE",
"449 0 LINE"
);
}
);
width = 1194;
}
);
leftKerningGroup = T;
rightKerningGroup = T;
unicode = 0054;
},
{
glyphname = Tbar;
layers = (
{
components = (
{
name = T;
}
);
layerId = "F85E8FEC-B3CD-4A54-BF30-AB1986ECE904";
paths = (
{
closed = 1;
nodes = (
"249 648 LINE",
"945 648 LINE",
"945 792 LINE",
"249 792 LINE"
);
}
);
width = 1204;
},
{
components = (
{
name = T;
}
);
layerId = "C6C96970-2BBD-4A47-8C90-C83F37B7F23D";
paths = (
{
closed = 1;
nodes = (
"249 621 LINE",
"945 621 LINE",
"945 811 LINE",
"249 811 LINE"
);
}
);
width = 1194;
}
);
leftKerningGroup = T;
rightKerningGroup = T;
unicode = 0166;
},
{
glyphname = Tdiagonalstroke;
layers = (
{
components = (
{
name = T;
}
);
layerId = "F85E8FEC-B3CD-4A54-BF30-AB1986ECE904";
paths = (
{
closed = 1;
nodes = (
"399 -245 LINE",
"1078 1588 LINE",
"974 1626 LINE",
"296 -207 LINE"
);
}
);
width = 1204;
},
{
components = (
{
name = T;
}
);
layerId = "C6C96970-2BBD-4A47-8C90-C83F37B7F23D";
paths = (
{
closed = 1;
nodes = (
"418 -195 LINE",
"1117 1638 LINE",
"1013 1676 LINE",
"315 -157 LINE"
);
}
);
width = 1194;
}
);
unicode = 023E;
},
{
glyphname = Thook;
layers = (
{
layerId = "F85E8FEC-B3CD-4A54-BF30-AB1986ECE904";
paths = (
{
closed = 1;
nodes = (
"774 0 LINE",
"774 1281 LINE",
"1192 1281 LINE",
"1192 1446 LINE",
"410 1446 LINE SMOOTH",
"142 1446 OFFCURVE",
"20 1356 OFFCURVE",
"20 1134 CURVE SMOOTH",
"20 1078 LINE",
"212 1065 LINE",
"212 1108 LINE SMOOTH",
"212 1235 OFFCURVE",
"248 1281 OFFCURVE",
"389 1281 CURVE SMOOTH",
"573 1281 LINE",
"573 0 LINE"
);
}
);
width = 1276;
},
{
layerId = "C6C96970-2BBD-4A47-8C90-C83F37B7F23D";
paths = (
{
closed = 1;
nodes = (
"865 0 LINE",
"865 1250 LINE",
"1276 1250 LINE",
"1276 1476 LINE",
"458 1476 LINE SMOOTH",
"108 1476 OFFCURVE",
"16 1375 OFFCURVE",
"16 1122 CURVE SMOOTH",
"16 1038 LINE",
"256 1028 LINE",
"256 1108 LINE SMOOTH",
"256 1204 OFFCURVE",
"300 1250 OFFCURVE",
"427 1250 CURVE SMOOTH",
"569 1250 LINE",
"569 0 LINE"
);
}
);
width = 1314;
}
);
leftKerningGroup = T;
rightKerningGroup = T;
unicode = 01AC;
},
{
glyphname = Tretroflexhook;
layers = (
{
layerId = "F85E8FEC-B3CD-4A54-BF30-AB1986ECE904";
paths = (
{
closed = 1;
nodes = (
"882 -408 LINE",
"895 -256 LINE",
"862 -256 LINE SMOOTH",
"742 -256 OFFCURVE",
"702 -216 OFFCURVE",
"702 -69 CURVE SMOOTH",
"702 1281 LINE",
"1120 1281 LINE",
"1120 1446 LINE",
"84 1446 LINE",
"84 1281 LINE",
"501 1281 LINE",
"501 -76 LINE SMOOTH",
"501 -315 OFFCURVE",
"604 -408 OFFCURVE",
"815 -408 CURVE SMOOTH"
);
}
);
width = 1204;
},
{
layerId = "C6C96970-2BBD-4A47-8C90-C83F37B7F23D";
paths = (
{
closed = 1;
nodes = (
"882 -410 LINE",
"892 -185 LINE",
"862 -185 LINE SMOOTH",
"783 -185 OFFCURVE",
"746 -141 OFFCURVE",
"746 -44 CURVE SMOOTH",
"745 1250 LINE",
"1156 1250 LINE",
"1156 1476 LINE",
"38 1476 LINE",
"38 1250 LINE",
"449 1250 LINE",
"449 -76 LINE SMOOTH",
"449 -299 OFFCURVE",
"572 -410 OFFCURVE",
"788 -410 CURVE SMOOTH"
);
}
);
width = 1194;
}
);
leftKerningGroup = T;
rightKerningGroup = T;
unicode = 01AE;
},
{
glyphname = U;
layers = (
{
anchors = (
{
name = bottom;
position = "{769, 0}";
},
{
name = ogonek;
position = "{1033, 10}";
},
{
name = top;
position = "{769, 1446}";
},
{
name = topright;
position = "{1518, 1446}";
}
);
layerId = "F85E8FEC-B3CD-4A54-BF30-AB1986ECE904";
paths = (
{
closed = 1;
nodes = (
"1232 -22 OFFCURVE",
"1338 205 OFFCURVE",
"1338 473 CURVE SMOOTH",
"1338 1446 LINE",
"1136 1446 LINE",
"1136 452 LINE SMOOTH",
"1136 186 OFFCURVE",
"982 140 OFFCURVE",
"779 140 CURVE SMOOTH",
"578 140 OFFCURVE",
"402 186 OFFCURVE",
"402 452 CURVE SMOOTH",
"402 1446 LINE",
"200 1446 LINE",
"200 473 LINE SMOOTH",
"200 202 OFFCURVE",
"306 -22 OFFCURVE",
"779 -22 CURVE SMOOTH"
);
}
);
width = 1538;
},
{
anchors = (
{
name = bottom;
position = "{787, 0}";
},
{
name = ogonek;
position = "{1088, 10}";
},
{
name = top;
position = "{787, 1476}";
},
{
name = topright;
position = "{1554, 1476}";
}
);
layerId = "C6C96970-2BBD-4A47-8C90-C83F37B7F23D";
paths = (
{
closed = 1;
nodes = (
"1294 -26 OFFCURVE",
"1398 199 OFFCURVE",
"1398 480 CURVE SMOOTH",
"1398 1477 LINE",
"1101 1477 LINE",
"1101 455 LINE SMOOTH",
"1101 263 OFFCURVE",
"1004 207 OFFCURVE",
"796 207 CURVE SMOOTH",
"591 207 OFFCURVE",
"473 260 OFFCURVE",
"473 455 CURVE SMOOTH",
"473 1477 LINE",
"176 1477 LINE",
"176 468 LINE SMOOTH",
"176 186 OFFCURVE",
"291 -26 OFFCURVE",
"796 -26 CURVE SMOOTH"
);
}
);
width = 1574;
}
);
leftKerningGroup = U;
unicode = 0055;
},
{
glyphname = Ubar;
layers = (
{
components = (
{
name = U;
}
);
layerId = "F85E8FEC-B3CD-4A54-BF30-AB1986ECE904";
paths = (
{
closed = 1;
nodes = (
"85 769 LINE",
"1453 769 LINE",
"1453 913 LINE",
"85 913 LINE"
);
}
);
width = 1538;
},
{
components = (
{
name = U;
}
);
layerId = "C6C96970-2BBD-4A47-8C90-C83F37B7F23D";
paths = (
{
closed = 1;
nodes = (
"59 780 LINE",
"1515 780 LINE",
"1515 964 LINE",
"59 964 LINE"
);
}
);
width = 1574;
}
);
leftKerningGroup = U;
unicode = 0244;
},
{
glyphname = Uhorn;
layers = (
{
anchors = (
{
name = bottom;
position = "{776, 0}";
},
{
name = top;
position = "{776, 1446}";
}
);
layerId = "F85E8FEC-B3CD-4A54-BF30-AB1986ECE904";
paths = (
{
closed = 1;
nodes = (
"1232 -22 OFFCURVE",
"1338 205 OFFCURVE",
"1338 473 CURVE SMOOTH",
"1338 1446 LINE",
"1136 1446 LINE",
"1136 452 LINE SMOOTH",
"1136 186 OFFCURVE",
"982 140 OFFCURVE",
"779 140 CURVE SMOOTH",
"578 140 OFFCURVE",
"402 186 OFFCURVE",
"402 452 CURVE SMOOTH",
"402 1446 LINE",
"200 1446 LINE",
"200 473 LINE SMOOTH",
"200 202 OFFCURVE",
"306 -22 OFFCURVE",
"779 -22 CURVE SMOOTH"
);
},
{
closed = 1;
nodes = (
"1268 1302 LINE",
"1298 1302 LINE SMOOTH",
"1488 1302 OFFCURVE",
"1602 1407 OFFCURVE",
"1602 1591 CURVE SMOOTH",
"1602 1715 LINE",
"1414 1715 LINE",
"1414 1574 LINE SMOOTH",
"1414 1493 OFFCURVE",
"1364 1446 OFFCURVE",
"1298 1446 CURVE SMOOTH",
"1268 1446 LINE"
);
}
);
width = 1552;
},
{
anchors = (
{
name = bottom;
position = "{819, 0}";
},
{
name = top;
position = "{819, 1476}";
}
);
layerId = "C6C96970-2BBD-4A47-8C90-C83F37B7F23D";
paths = (
{
closed = 1;
nodes = (
"1294 -26 OFFCURVE",
"1398 199 OFFCURVE",
"1398 480 CURVE SMOOTH",
"1398 1477 LINE",
"1101 1477 LINE",
"1101 455 LINE SMOOTH",
"1101 263 OFFCURVE",
"1004 207 OFFCURVE",
"796 207 CURVE SMOOTH",
"591 207 OFFCURVE",
"473 260 OFFCURVE",
"473 455 CURVE SMOOTH",
"473 1477 LINE",
"176 1477 LINE",
"176 468 LINE SMOOTH",
"176 186 OFFCURVE",
"291 -26 OFFCURVE",
"796 -26 CURVE SMOOTH"
);
},
{
closed = 1;
nodes = (
"1314 1282 LINE",
"1344 1282 LINE SMOOTH",
"1534 1282 OFFCURVE",
"1688 1387 OFFCURVE",
"1688 1621 CURVE SMOOTH",
"1688 1745 LINE",
"1465 1745 LINE",
"1465 1604 LINE SMOOTH",
"1465 1523 OFFCURVE",
"1410 1476 OFFCURVE",
"1344 1476 CURVE SMOOTH",
"1314 1476 LINE"
);
}
);
width = 1638;
}
);
leftKerningGroup = U;
unicode = 01AF;
},
{
glyphname = Upsilonafrican;
layers = (
{
background = {
components = (
{
name = O;
}
);
};
layerId = "F85E8FEC-B3CD-4A54-BF30-AB1986ECE904";
paths = (
{
closed = 1;
nodes = (
"1179 -22 OFFCURVE",
"1360 159 OFFCURVE",
"1360 641 CURVE SMOOTH",
"1360 990 OFFCURVE",
"1184 1248 OFFCURVE",
"994 1330 CURVE",
"994 1281 LINE",
"1352 1281 LINE",
"1352 1446 LINE",
"881 1446 LINE",
"881 1275 LINE",
"1026 1160 OFFCURVE",
"1157 972 OFFCURVE",
"1157 643 CURVE SMOOTH",
"1157 281 OFFCURVE",
"1071 140 OFFCURVE",
"773 140 CURVE SMOOTH",
"475 140 OFFCURVE",
"389 281 OFFCURVE",
"389 643 CURVE SMOOTH",
"389 972 OFFCURVE",
"519 1160 OFFCURVE",
"664 1275 CURVE",
"664 1446 LINE",
"193 1446 LINE",
"193 1281 LINE",
"540 1281 LINE",
"540 1330 LINE",
"353 1244 OFFCURVE",
"186 990 OFFCURVE",
"186 641 CURVE SMOOTH",
"186 159 OFFCURVE",
"367 -22 OFFCURVE",
"773 -22 CURVE SMOOTH"
);
}
);
width = 1546;
},
{
background = {
components = (
{
name = O;
}
);
};
layerId = "C6C96970-2BBD-4A47-8C90-C83F37B7F23D";
paths = (
{
closed = 1;
nodes = (
"1258 -22 OFFCURVE",
"1446 153 OFFCURVE",
"1446 665 CURVE SMOOTH",
"1446 1000 OFFCURVE",
"1290 1201 OFFCURVE",
"1090 1300 CURVE",
"1090 1250 LINE",
"1437 1250 LINE",
"1437 1476 LINE",
"922 1476 LINE",
"922 1271 LINE",
"1081 1154 OFFCURVE",
"1148 982 OFFCURVE",
"1148 667 CURVE SMOOTH",
"1148 318 OFFCURVE",
"1039 207 OFFCURVE",
"803 207 CURVE SMOOTH",
"567 207 OFFCURVE",
"458 318 OFFCURVE",
"458 667 CURVE SMOOTH",
"458 982 OFFCURVE",
"524 1154 OFFCURVE",
"683 1271 CURVE",
"683 1476 LINE",
"168 1476 LINE",
"168 1250 LINE",
"516 1250 LINE",
"516 1300 LINE",
"315 1201 OFFCURVE",
"160 1000 OFFCURVE",
"160 665 CURVE SMOOTH",
"160 153 OFFCURVE",
"348 -22 OFFCURVE",
"803 -22 CURVE SMOOTH"
);
}
);
width = 1606;
}
);
unicode = 01B1;
},
{
glyphname = V;
layers = (
{
anchors = (
{
name = bottom;
position = "{693, 0}";
},
{
name = top;
position = "{693, 1446}";
}
);
guideLines = (
{
angle = 19.6388;
position = "{219, 1343}";
showMeasurement = 1;
}
);
layerId = "F85E8FEC-B3CD-4A54-BF30-AB1986ECE904";
paths = (
{
closed = 1;
nodes = (
"602 0 LINE",
"779 0 LINE",
"1300 1446 LINE",
"1091 1446 LINE",
"692 294 LINE",
"293 1446 LINE",
"86 1446 LINE"
);
}
);
width = 1386;
},
{
anchors = (
{
name = bottom;
position = "{742, 0}";
},
{
name = top;
position = "{742, 1476}";
}
);
layerId = "C6C96970-2BBD-4A47-8C90-C83F37B7F23D";
paths = (
{
closed = 1;
nodes = (
"564 0 LINE",
"924 0 LINE",
"1444 1476 LINE",
"1126 1476 LINE",
"748 283 LINE",
"358 1476 LINE",
"40 1476 LINE"
);
}
);
width = 1484;
}
);
leftKerningGroup = V;
rightKerningGroup = V;
unicode = 0056;
},
{
glyphname = Gammaafrican;
layers = (
{
background = {
components = (
{
name = V;
}
);
};
layerId = "F85E8FEC-B3CD-4A54-BF30-AB1986ECE904";
paths = (
{
closed = 1;
nodes = (
"952 -420 OFFCURVE",
"1068 -295 OFFCURVE",
"1068 -79 CURVE SMOOTH",
"1068 75 OFFCURVE",
"1013 192 OFFCURVE",
"845 493 CURVE SMOOTH",
"313 1446 LINE",
"86 1446 LINE",
"708 361 LINE SMOOTH",
"836 137 OFFCURVE",
"854 54 OFFCURVE",
"854 -74 CURVE SMOOTH",
"854 -192 OFFCURVE",
"803 -253 OFFCURVE",
"694 -253 CURVE SMOOTH",
"585 -253 OFFCURVE",
"533 -192 OFFCURVE",
"533 -74 CURVE SMOOTH",
"533 54 OFFCURVE",
"551 136 OFFCURVE",
"680 361 CURVE SMOOTH",
"1301 1446 LINE",
"1077 1446 LINE",
"544 493 LINE SMOOTH",
"378 196 OFFCURVE",
"319 75 OFFCURVE",
"319 -79 CURVE SMOOTH",
"319 -295 OFFCURVE",
"436 -420 OFFCURVE",
"694 -420 CURVE SMOOTH"
);
}
);
width = 1386;
},
{
background = {
paths = (
{
closed = 0;
nodes = (
"860 690 LINE",
"354 1476 LINE",
"40 1476 LINE",
"593 602 LINE SMOOTH"
);
},
{
closed = 0;
nodes = (
"482 300 LINE",
"390 141 OFFCURVE",
"336 8 OFFCURVE",
"336 -118 CURVE SMOOTH",
"336 -307 OFFCURVE",
"477 -420 OFFCURVE",
"730 -420 CURVE SMOOTH",
"1003 -420 OFFCURVE",
"1125 -307 OFFCURVE",
"1125 -118 CURVE SMOOTH",
"1125 8 OFFCURVE",
"1071 143 OFFCURVE",
"980 300 CURVE SMOOTH"
);
},
{
closed = 0;
nodes = (
"736 212 LINE",
"823 68 OFFCURVE",
"844 -18 OFFCURVE",
"844 -98 CURVE SMOOTH",
"844 -178 OFFCURVE",
"812 -220 OFFCURVE",
"730 -220 CURVE SMOOTH",
"650 -220 OFFCURVE",
"617 -178 OFFCURVE",
"617 -98 CURVE SMOOTH",
"617 -18 OFFCURVE",
"638 69 OFFCURVE",
"724 212 CURVE SMOOTH"
);
},
{
closed = 0;
nodes = (
"891 602 LINE",
"1444 1476 LINE",
"1130 1476 LINE",
"624 690 LINE"
);
}
);
};
layerId = "C6C96970-2BBD-4A47-8C90-C83F37B7F23D";
paths = (
{
closed = 1;
nodes = (
"1045 -420 OFFCURVE",
"1146 -257 OFFCURVE",
"1146 -58 CURVE SMOOTH",
"1146 98 OFFCURVE",
"1101 229 OFFCURVE",
"931 508 CURVE SMOOTH",
"342 1476 LINE",
"28 1476 LINE",
"700 374 LINE SMOOTH",
"842 141 OFFCURVE",
"860 62 OFFCURVE",
"860 -68 CURVE SMOOTH",
"860 -138 OFFCURVE",
"822 -190 OFFCURVE",
"742 -190 CURVE SMOOTH",
"662 -190 OFFCURVE",
"624 -138 OFFCURVE",
"624 -68 CURVE SMOOTH",
"624 62 OFFCURVE",
"642 141 OFFCURVE",
"784 374 CURVE SMOOTH",
"1456 1476 LINE",
"1142 1476 LINE",
"553 508 LINE SMOOTH",
"383 229 OFFCURVE",
"338 98 OFFCURVE",
"338 -58 CURVE SMOOTH",
"338 -257 OFFCURVE",
"439 -420 OFFCURVE",
"742 -420 CURVE SMOOTH"
);
}
);
width = 1484;
}
);
unicode = 0194;
},
{
glyphname = Vhook;
layers = (
{
layerId = "F85E8FEC-B3CD-4A54-BF30-AB1986ECE904";
paths = (
{
closed = 1;
nodes = (
"1108 -23 OFFCURVE",
"1310 205 OFFCURVE",
"1310 552 CURVE SMOOTH",
"1310 1049 LINE SMOOTH",
"1310 1283 OFFCURVE",
"1215 1456 OFFCURVE",
"902 1456 CURVE",
"902 1291 LINE",
"1036 1291 OFFCURVE",
"1108 1227 OFFCURVE",
"1108 1061 CURVE SMOOTH",
"1108 537 LINE SMOOTH",
"1108 291 OFFCURVE",
"983 140 OFFCURVE",
"728 140 CURVE SMOOTH",
"483 140 OFFCURVE",
"402 251 OFFCURVE",
"402 417 CURVE SMOOTH",
"402 1446 LINE",
"200 1446 LINE",
"200 413 LINE SMOOTH",
"200 150 OFFCURVE",
"315 -23 OFFCURVE",
"728 -23 CURVE SMOOTH"
);
}
);
width = 1510;
},
{
layerId = "C6C96970-2BBD-4A47-8C90-C83F37B7F23D";
paths = (
{
closed = 1;
nodes = (
"1160 -23 OFFCURVE",
"1379 199 OFFCURVE",
"1379 574 CURVE SMOOTH",
"1379 1009 LINE SMOOTH",
"1379 1309 OFFCURVE",
"1199 1486 OFFCURVE",
"860 1486 CURVE",
"860 1260 LINE",
"1005 1260 OFFCURVE",
"1083 1195 OFFCURVE",
"1083 1026 CURVE SMOOTH",
"1083 558 LINE SMOOTH",
"1083 318 OFFCURVE",
"937 207 OFFCURVE",
"748 207 CURVE SMOOTH",
"562 207 OFFCURVE",
"475 267 OFFCURVE",
"475 405 CURVE SMOOTH",
"475 1476 LINE",
"176 1476 LINE",
"176 422 LINE SMOOTH",
"176 153 OFFCURVE",
"301 -23 OFFCURVE",
"748 -23 CURVE SMOOTH"
);
}
);
width = 1555;
}
);
unicode = 01B2;
},
{
glyphname = Vturned;
layers = (
{
layerId = "F85E8FEC-B3CD-4A54-BF30-AB1986ECE904";
paths = (
{
closed = 1;
nodes = (
"784 1446 LINE",
"607 1446 LINE",
"86 0 LINE",
"295 0 LINE",
"694 1152 LINE",
"1093 0 LINE",
"1300 0 LINE"
);
}
);
width = 1386;
},
{
layerId = "C6C96970-2BBD-4A47-8C90-C83F37B7F23D";
paths = (
{
closed = 1;
nodes = (
"920 1476 LINE",
"560 1476 LINE",
"40 0 LINE",
"358 0 LINE",
"736 1193 LINE",
"1126 0 LINE",
"1444 0 LINE"
);
}
);
width = 1484;
}
);
unicode = 0245;
},
{
glyphname = W;
layers = (
{
anchors = (
{
name = bottom;
position = "{1024, 0}";
},
{
name = top;
position = "{1024, 1446}";
}
);
layerId = "F85E8FEC-B3CD-4A54-BF30-AB1986ECE904";
paths = (
{
closed = 1;
nodes = (
"522 0 LINE",
"674 0 LINE",
"1037 1232 LINE",
"1390 0 LINE",
"1542 0 LINE",
"1936 1446 LINE",
"1753 1446 LINE",
"1462 346 LINE",
"1133 1446 LINE",
"918 1446 LINE",
"603 346 LINE",
"296 1446 LINE",
"112 1446 LINE"
);
}
);
width = 2048;
},
{
anchors = (
{
name = bottom;
position = "{977, 0}";
},
{
name = top;
position = "{977, 1476}";
}
);
layerId = "C6C96970-2BBD-4A47-8C90-C83F37B7F23D";
paths = (
{
closed = 1;
nodes = (
"423 0 LINE",
"689 0 LINE",
"973 1053 LINE",
"1283 0 LINE",
"1532 0 LINE",
"1914 1476 LINE",
"1629 1476 LINE",
"1389 466 LINE",
"1093 1476 LINE",
"842 1476 LINE",
"583 455 LINE",
"328 1476 LINE",
"40 1476 LINE"
);
}
);
width = 1954;
}
);
leftKerningGroup = W;
rightKerningGroup = W;
unicode = 0057;
},
{
glyphname = Whook;
layers = (
{
background = {
paths = (
{
closed = 1;
nodes = (
"674 0 LINE",
"1037 1232 LINE",
"1390 0 LINE",
"1542 0 LINE",
"1864 1180 LINE SMOOTH",
"1888 1266 OFFCURVE",
"1919 1294 OFFCURVE",
"2007 1294 CURVE SMOOTH",
"2063 1294 LINE",
"2049 1446 LINE",
"1969 1446 LINE SMOOTH",
"1810 1446 OFFCURVE",
"1735 1376 OFFCURVE",
"1686 1190 CURVE SMOOTH",
"1462 346 LINE",
"1133 1446 LINE",
"918 1446 LINE",
"603 346 LINE",
"296 1446 LINE",
"112 1446 LINE",
"522 0 LINE"
);
}
);
};
layerId = "F85E8FEC-B3CD-4A54-BF30-AB1986ECE904";
paths = (
{
closed = 1;
nodes = (
"674 0 LINE",
"1037 1232 LINE",
"1390 0 LINE",
"1542 0 LINE",
"1867 1190 LINE SMOOTH",
"1890 1276 OFFCURVE",
"1922 1304 OFFCURVE",
"2010 1304 CURVE SMOOTH",
"2066 1304 LINE",
"2052 1456 LINE",
"1972 1456 LINE SMOOTH",
"1813 1456 OFFCURVE",
"1738 1386 OFFCURVE",
"1689 1200 CURVE SMOOTH",
"1462 346 LINE",
"1133 1446 LINE",
"918 1446 LINE",
"603 346 LINE",
"296 1446 LINE",
"112 1446 LINE",
"522 0 LINE"
);
}
);
width = 2048;
},
{
background = {
paths = (
{
closed = 1;
nodes = (
"689 0 LINE",
"973 1053 LINE",
"1283 0 LINE",
"1532 0 LINE",
"1816 1110 LINE SMOOTH",
"1843 1217 OFFCURVE",
"1885 1251 OFFCURVE",
"1970 1251 CURVE SMOOTH",
"2014 1251 LINE",
"2006 1476 LINE",
"1898 1476 LINE SMOOTH",
"1687 1476 OFFCURVE",
"1610 1393 OFFCURVE",
"1544 1116 CURVE SMOOTH",
"1389 466 LINE",
"1093 1476 LINE",
"842 1476 LINE",
"583 455 LINE",
"328 1476 LINE",
"40 1476 LINE",
"423 0 LINE"
);
}
);
};
layerId = "C6C96970-2BBD-4A47-8C90-C83F37B7F23D";
paths = (
{
closed = 1;
nodes = (
"689 0 LINE",
"973 1053 LINE",
"1283 0 LINE",
"1532 0 LINE",
"1819 1120 LINE SMOOTH",
"1846 1227 OFFCURVE",
"1888 1261 OFFCURVE",
"1973 1261 CURVE SMOOTH",
"2017 1261 LINE",
"2009 1486 LINE",
"1901 1486 LINE SMOOTH",
"1690 1486 OFFCURVE",
"1613 1403 OFFCURVE",
"1547 1126 CURVE SMOOTH",
"1389 466 LINE",
"1093 1476 LINE",
"842 1476 LINE",
"583 455 LINE",
"328 1476 LINE",
"40 1476 LINE",
"423 0 LINE"
);
}
);
width = 1974;
}
);
leftKerningGroup = W;
rightKerningGroup = W;
unicode = 2C72;
},
{
glyphname = X;
layers = (
{
anchors = (
{
name = bottom;
position = "{668, 0}";
},
{
name = top;
position = "{668, 1446}";
}
);
background = {
paths = (
{
closed = 1;
nodes = (
"94 0 LINE",
"306 0 LINE",
"667 568 LINE",
"1024 0 LINE",
"1242 0 LINE",
"773 734 LINE",
"1227 1446 LINE",
"1010 1446 LINE",
"669 898 LINE",
"319 1446 LINE",
"116 1446 LINE",
"565 731 LINE"
);
}
);
};
layerId = "F85E8FEC-B3CD-4A54-BF30-AB1986ECE904";
paths = (
{
closed = 1;
nodes = (
"1022 0 LINE",
"1242 0 LINE",
"333 1446 LINE",
"116 1446 LINE"
);
},
{
closed = 1;
nodes = (
"1233 1446 LINE",
"1017 1446 LINE",
"639 836 LINE",
"755 696 LINE"
);
},
{
closed = 1;
nodes = (
"94 0 LINE",
"310 0 LINE",
"693 630 LINE",
"577 770 LINE"
);
}
);
width = 1336;
},
{
anchors = (
{
name = bottom;
position = "{676, 0}";
},
{
name = top;
position = "{676, 1476}";
}
);
background = {
paths = (
{
closed = 1;
nodes = (
"993 0 LINE",
"1314 0 LINE",
"371 1476 LINE",
"50 1476 LINE"
);
},
{
closed = 1;
nodes = (
"1297 1476 LINE",
"969 1476 LINE",
"661 983 LINE",
"821 736 LINE"
);
},
{
closed = 1;
nodes = (
"38 0 LINE",
"348 0 LINE",
"678 514 LINE",
"522 762 LINE"
);
}
);
};
layerId = "C6C96970-2BBD-4A47-8C90-C83F37B7F23D";
paths = (
{
closed = 1;
nodes = (
"993 0 LINE",
"1314 0 LINE",
"371 1476 LINE",
"50 1476 LINE"
);
},
{
closed = 1;
nodes = (
"1297 1476 LINE",
"979 1476 LINE",
"669 978 LINE",
"816 736 LINE"
);
},
{
closed = 1;
nodes = (
"30 0 LINE",
"348 0 LINE",
"670 551 LINE",
"523 793 LINE"
);
}
);
width = 1352;
}
);
leftKerningGroup = X;
rightKerningGroup = X;
unicode = 0058;
},
{
glyphname = Y;
layers = (
{
anchors = (
{
name = bottom;
position = "{659, 0}";
},
{
name = top;
position = "{659, 1446}";
},
{
name = topleft;
position = "{20, 1446}";
}
);
layerId = "F85E8FEC-B3CD-4A54-BF30-AB1986ECE904";
paths = (
{
closed = 1;
nodes = (
"560 0 LINE",
"761 0 LINE",
"761 568 LINE",
"1270 1446 LINE",
"1063 1446 LINE",
"639 705 LINE",
"683 705 LINE",
"261 1446 LINE",
"48 1446 LINE",
"560 568 LINE"
);
}
);
width = 1318;
},
{
anchors = (
{
name = bottom;
position = "{652, 0}";
},
{
name = top;
position = "{652, 1476}";
},
{
name = topleft;
position = "{20, 1476}";
}
);
layerId = "C6C96970-2BBD-4A47-8C90-C83F37B7F23D";
paths = (
{
closed = 1;
nodes = (
"509 0 LINE",
"805 0 LINE",
"805 567 LINE",
"1304 1476 LINE",
"1004 1476 LINE",
"637 802 LINE",
"681 802 LINE",
"313 1476 LINE",
"0 1476 LINE",
"509 567 LINE"
);
}
);
width = 1304;
}
);
leftKerningGroup = Y;
rightKerningGroup = Y;
unicode = 0059;
},
{
glyphname = Yhook;
layers = (
{
anchors = (
{
name = bottom;
position = "{659, 0}";
},
{
name = top;
position = "{659, 1446}";
},
{
name = topleft;
position = "{20, 1446}";
}
);
layerId = "F85E8FEC-B3CD-4A54-BF30-AB1986ECE904";
paths = (
{
closed = 1;
nodes = (
"761 0 LINE",
"761 568 LINE",
"1086 1192 LINE SMOOTH",
"1134 1283 OFFCURVE",
"1169 1304 OFFCURVE",
"1256 1304 CURVE SMOOTH",
"1287 1304 LINE",
"1276 1456 LINE",
"1220 1456 LINE SMOOTH",
"1083 1456 OFFCURVE",
"997 1407 OFFCURVE",
"895 1206 CURVE SMOOTH",
"641 704 LINE",
"683 704 LINE",
"261 1446 LINE",
"48 1446 LINE",
"560 568 LINE",
"560 0 LINE"
);
}
);
width = 1318;
},
{
anchors = (
{
name = bottom;
position = "{652, 0}";
},
{
name = top;
position = "{652, 1476}";
},
{
name = topleft;
position = "{20, 1476}";
}
);
layerId = "C6C96970-2BBD-4A47-8C90-C83F37B7F23D";
paths = (
{
closed = 1;
nodes = (
"805 0 LINE",
"805 567 LINE",
"1085 1128 LINE SMOOTH",
"1135 1228 OFFCURVE",
"1179 1261 OFFCURVE",
"1262 1261 CURVE SMOOTH",
"1307 1261 LINE",
"1287 1486 LINE",
"1181 1486 LINE SMOOTH",
"1009 1486 OFFCURVE",
"908 1410 OFFCURVE",
"778 1125 CURVE SMOOTH",
"639 820 LINE",
"681 820 LINE",
"313 1476 LINE",
"0 1476 LINE",
"509 567 LINE",
"509 0 LINE"
);
}
);
width = 1327;
}
);
leftKerningGroup = Y;
rightKerningGroup = Y;
unicode = 01B3;
},
{
glyphname = Ystroke;
layers = (
{
components = (
{
name = Y;
}
);
layerId = "F85E8FEC-B3CD-4A54-BF30-AB1986ECE904";
paths = (
{
closed = 1;
nodes = (
"30 1078 LINE",
"1288 1078 LINE",
"1288 1222 LINE",
"30 1222 LINE"
);
}
);
width = 1318;
},
{
components = (
{
name = Y;
}
);
layerId = "C6C96970-2BBD-4A47-8C90-C83F37B7F23D";
paths = (
{
closed = 1;
nodes = (
"10 1113 LINE",
"1294 1113 LINE",
"1294 1303 LINE",
"10 1303 LINE"
);
}
);
width = 1304;
}
);
leftKerningGroup = Y;
rightKerningGroup = Y;
unicode = 024E;
},
{
glyphname = Z;
layers = (
{
anchors = (
{
name = bottom;
position = "{621, 0}";
},
{
name = center;
position = "{621, 723}";
},
{
name = top;
position = "{663, 1446}";
}
);
layerId = "F85E8FEC-B3CD-4A54-BF30-AB1986ECE904";
paths = (
{
closed = 1;
nodes = (
"180 0 LINE",
"1096 0 LINE",
"1096 165 LINE",
"402 165 LINE",
"1083 1295 LINE",
"1083 1446 LINE",
"211 1446 LINE",
"211 1281 LINE",
"862 1281 LINE",
"180 150 LINE"
);
}
);
width = 1242;
},
{
anchors = (
{
name = bottom;
position = "{592, 0}";
},
{
name = center;
position = "{592, 738}";
},
{
name = top;
position = "{656, 1476}";
}
);
layerId = "C6C96970-2BBD-4A47-8C90-C83F37B7F23D";
paths = (
{
closed = 1;
nodes = (
"126 0 LINE",
"1102 0 LINE",
"1102 210 LINE",
"472 210 LINE",
"1090 1297 LINE",
"1090 1476 LINE",
"154 1476 LINE",
"154 1258 LINE",
"746 1258 LINE",
"126 177 LINE"
);
}
);
width = 1184;
}
);
unicode = 005A;
},
{
glyphname = Zstroke;
layers = (
{
components = (
{
name = Z;
}
);
layerId = "F85E8FEC-B3CD-4A54-BF30-AB1986ECE904";
paths = (
{
closed = 1;
nodes = (
"270 671 LINE",
"1019 671 LINE",
"1019 815 LINE",
"270 815 LINE"
);
}
);
width = 1242;
},
{
components = (
{
name = Z;
}
);
layerId = "C6C96970-2BBD-4A47-8C90-C83F37B7F23D";
paths = (
{
closed = 1;
nodes = (
"200 663 LINE",
"1046 663 LINE",
"1046 853 LINE",
"200 853 LINE"
);
}
);
width = 1184;
}
);
unicode = 01B5;
},
{
glyphname = Ismall;
layers = (
{
layerId = "F85E8FEC-B3CD-4A54-BF30-AB1986ECE904";
paths = (
{
closed = 1;
nodes = (
"305 142 LINE",
"88 142 LINE",
"88 0 LINE",
"710 0 LINE",
"710 142 LINE",
"493 142 LINE",
"493 918 LINE",
"710 918 LINE",
"710 1060 LINE",
"88 1060 LINE",
"88 918 LINE",
"305 918 LINE"
);
}
);
width = 798;
},
{
layerId = "C6C96970-2BBD-4A47-8C90-C83F37B7F23D";
paths = (
{
closed = 1;
nodes = (
"258 173 LINE",
"79 173 LINE",
"79 0 LINE",
"709 0 LINE",
"709 173 LINE",
"530 173 LINE",
"530 901 LINE",
"709 901 LINE",
"709 1074 LINE",
"79 1074 LINE",
"79 901 LINE",
"258 901 LINE"
);
}
);
width = 788;
}
);
unicode = 026A;
},
{
glyphname = a;
layers = (
{
anchors = (
{
name = bottom;
position = "{586, 0}";
},
{
name = ogonek;
position = "{1058, 0}";
},
{
name = top;
position = "{577, 1060}";
}
);
layerId = "F85E8FEC-B3CD-4A54-BF30-AB1986ECE904";
paths = (
{
closed = 1;
nodes = (
"660 -22 OFFCURVE",
"749 78 OFFCURVE",
"796 150 CURVE",
"828 50 OFFCURVE",
"879 -8 OFFCURVE",
"1020 -8 CURVE SMOOTH",
"1058 -8 LINE",
"1080 136 LINE",
"989 136 OFFCURVE",
"969 156 OFFCURVE",
"969 268 CURVE SMOOTH",
"969 720 LINE SMOOTH",
"969 938 OFFCURVE",
"872 1080 OFFCURVE",
"592 1080 CURVE SMOOTH",
"314 1080 OFFCURVE",
"174 988 OFFCURVE",
"174 779 CURVE SMOOTH",
"174 731 LINE",
"355 731 LINE",
"355 778 LINE SMOOTH",
"355 863 OFFCURVE",
"373 936 OFFCURVE",
"586 936 CURVE SMOOTH",
"755 936 OFFCURVE",
"781 867 OFFCURVE",
"781 781 CURVE SMOOTH",
"781 665 OFFCURVE",
"715 646 OFFCURVE",
"539 595 CURVE SMOOTH",
"201 497 OFFCURVE",
"132 428 OFFCURVE",
"132 268 CURVE SMOOTH",
"132 115 OFFCURVE",
"230 -22 OFFCURVE",
"465 -22 CURVE SMOOTH"
);
},
{
closed = 1;
nodes = (
"362 118 OFFCURVE",
"311 167 OFFCURVE",
"311 274 CURVE SMOOTH",
"311 369 OFFCURVE",
"385 407 OFFCURVE",
"549 454 CURVE SMOOTH",
"683 492 OFFCURVE",
"752 547 OFFCURVE",
"781 576 CURVE",
"781 297 LINE",
"751 199 OFFCURVE",
"601 118 OFFCURVE",
"488 118 CURVE SMOOTH"
);
}
);
width = 1172;
},
{
anchors = (
{
name = bottom;
position = "{587, 0}";
},
{
name = ogonek;
position = "{1079, 0}";
},
{
name = top;
position = "{572, 1074}";
}
);
layerId = "C6C96970-2BBD-4A47-8C90-C83F37B7F23D";
paths = (
{
closed = 1;
nodes = (
"580 -23 OFFCURVE",
"699 43 OFFCURVE",
"757 119 CURVE",
"796 32 OFFCURVE",
"873 -8 OFFCURVE",
"1022 -8 CURVE SMOOTH",
"1079 -8 LINE",
"1090 190 LINE",
"1023 190 OFFCURVE",
"1003 210 OFFCURVE",
"1003 308 CURVE SMOOTH",
"1003 733 LINE SMOOTH",
"1003 955 OFFCURVE",
"893 1097 OFFCURVE",
"572 1097 CURVE SMOOTH",
"278 1097 OFFCURVE",
"144 963 OFFCURVE",
"144 755 CURVE SMOOTH",
"144 723 LINE",
"399 723 LINE",
"399 765 LINE SMOOTH",
"399 848 OFFCURVE",
"430 907 OFFCURVE",
"566 907 CURVE SMOOTH",
"688 907 OFFCURVE",
"735 863 OFFCURVE",
"735 777 CURVE",
"735 702 OFFCURVE",
"658 666 OFFCURVE",
"491 613 CURVE SMOOTH",
"185 516 OFFCURVE",
"112 422 OFFCURVE",
"112 270 CURVE SMOOTH",
"112 92 OFFCURVE",
"239 -23 OFFCURVE",
"423 -23 CURVE SMOOTH"
);
},
{
closed = 1;
nodes = (
"432 158 OFFCURVE",
"377 198 OFFCURVE",
"377 285 CURVE SMOOTH",
"377 346 OFFCURVE",
"403 400 OFFCURVE",
"522 444 CURVE SMOOTH",
"612 477 OFFCURVE",
"699 515 OFFCURVE",
"735 544 CURVE",
"735 272 LINE",
"685 194 OFFCURVE",
"580 158 OFFCURVE",
"514 158 CURVE SMOOTH"
);
}
);
width = 1174.37;
}
);
leftKerningGroup = a;
rightKerningGroup = a;
unicode = 0061;
userData = {
com.typemytype.robofont.layerData = {
};
};
},
{
glyphname = aacute;
layers = (
{
components = (
{
name = a;
},
{
name = acutecomb;
transform = "{1, 0, 0, 1, 577, 0}";
}
);
layerId = "F85E8FEC-B3CD-4A54-BF30-AB1986ECE904";
width = 1172;
},
{
background = {
paths = (
{
closed = 1;
nodes = (
"908 1646 LINE",
"640 1646 LINE",
"526 1281 LINE",
"675 1281 LINE"
);
},
{
closed = 1;
nodes = (
"445 416 OFFCURVE",
"687 505 OFFCURVE",
"735 544 QCURVE",
"735 276 LINE",
"700 223 OFFCURVE",
"578 165 OFFCURVE",
"523 165 QCURVE SMOOTH",
"383 165 OFFCURVE",
"383 294 QCURVE SMOOTH",
"383 341 OFFCURVE"
);
},
{
closed = 1;
nodes = (
"787 53 OFFCURVE",
"911 -8 OFFCURVE",
"1022 -8 QCURVE SMOOTH",
"1079 -8 LINE",
"1090 190 LINE",
"1039 190 OFFCURVE",
"1003 236 OFFCURVE",
"1003 308 QCURVE SMOOTH",
"1003 733 LINE SMOOTH",
"1003 909 OFFCURVE",
"802 1097 OFFCURVE",
"358 1097 OFFCURVE",
"144 916 OFFCURVE",
"144 755 QCURVE SMOOTH",
"144 723 LINE",
"399 723 LINE",
"399 765 LINE SMOOTH",
"399 834 OFFCURVE",
"471 907 OFFCURVE",
"566 907 QCURVE SMOOTH",
"735 908 OFFCURVE",
"735 784 QCURVE SMOOTH",
"735 724 OFFCURVE",
"626 656 OFFCURVE",
"491 613 QCURVE SMOOTH",
"269 543 OFFCURVE",
"112 391 OFFCURVE",
"112 139 OFFCURVE",
"285 -23 OFFCURVE",
"535 -23 OFFCURVE",
"710 58 OFFCURVE",
"757 119 QCURVE"
);
}
);
};
components = (
{
name = a;
},
{
name = acutecomb;
transform = "{1, 0, 0, 1, 572, 0}";
}
);
layerId = "C6C96970-2BBD-4A47-8C90-C83F37B7F23D";
width = 1174;
}
);
leftKerningGroup = a;
rightKerningGroup = a;
unicode = 00E1;
userData = {
com.typemytype.robofont.layerData = {
};
};
},
{
glyphname = ainvertedbreve;
layers = (
{
background = {
paths = (
{
closed = 1;
nodes = (
"485 1295 OFFCURVE",
"551 1359 OFFCURVE",
"658 1359 OFFCURVE",
"727 1293 OFFCURVE",
"727 1243 QCURVE",
"832 1243 LINE",
"832 1332 OFFCURVE",
"707 1455 OFFCURVE",
"505 1455 OFFCURVE",
"380 1332 OFFCURVE",
"380 1243 QCURVE",
"485 1243 LINE"
);
},
{
closed = 1;
nodes = (
"596 -6 QCURVE SMOOTH",
"713 26 OFFCURVE",
"796 150 QCURVE",
"822 69 OFFCURVE",
"920 -8 OFFCURVE",
"1020 -8 QCURVE SMOOTH",
"1058 -8 LINE",
"1080 136 LINE",
"1011 136 OFFCURVE",
"969 185 OFFCURVE",
"969 268 QCURVE SMOOTH",
"969 720 LINE SMOOTH",
"969 893 OFFCURVE",
"793 1080 OFFCURVE",
"381 1080 OFFCURVE",
"174 934 OFFCURVE",
"174 779 QCURVE SMOOTH",
"174 731 LINE",
"355 731 LINE",
"355 778 LINE SMOOTH",
"355 836 OFFCURVE",
"375 870 QCURVE SMOOTH",
"414 936 OFFCURVE",
"586 936 QCURVE SMOOTH",
"708 936 OFFCURVE",
"781 850 OFFCURVE",
"781 760 OFFCURVE",
"775 719 OFFCURVE",
"720 647 OFFCURVE",
"539 597 QCURVE SMOOTH",
"226 506 OFFCURVE",
"163 406 QCURVE SMOOTH",
"132 357 OFFCURVE",
"132 283 QCURVE SMOOTH",
"132 153 OFFCURVE",
"310 -22 OFFCURVE",
"471 -22 QCURVE SMOOTH",
"540 -22 OFFCURVE"
);
},
{
closed = 1;
nodes = (
"781 583 OFFCURVE",
"781 277 LINE",
"767 230 OFFCURVE",
"674 157 OFFCURVE",
"558 120 OFFCURVE",
"415 120 OFFCURVE",
"314 196 OFFCURVE",
"314 345 OFFCURVE",
"423 427 OFFCURVE",
"708 510 OFFCURVE"
);
}
);
};
components = (
{
name = a;
},
{
name = breveinvertedcomb;
transform = "{1, 0, 0, 1, 577, 0}";
}
);
layerId = "F85E8FEC-B3CD-4A54-BF30-AB1986ECE904";
width = 1172;
},
{
components = (
{
name = a;
},
{
name = breveinvertedcomb;
transform = "{1, 0, 0, 1, 572, 0}";
}
);
layerId = "C6C96970-2BBD-4A47-8C90-C83F37B7F23D";
width = 1174;
}
);
leftKerningGroup = a;
rightKerningGroup = a;
unicode = 0203;
userData = {
com.typemytype.robofont.layerData = {
};
};
},
{
glyphname = "alpha-latin";
layers = (
{
background = {
paths = (
{
closed = 1;
nodes = (
"693 -22 OFFCURVE",
"798 11 OFFCURVE",
"920 134 CURVE",
"837 150 LINE",
"869 50 OFFCURVE",
"920 -8 OFFCURVE",
"1061 -8 CURVE SMOOTH",
"1099 -8 LINE",
"1121 136 LINE",
"1030 136 OFFCURVE",
"1010 156 OFFCURVE",
"1010 268 CURVE SMOOTH",
"1010 1060 LINE",
"822 1060 LINE",
"822 885 LINE",
"826 946 LINE",
"847 1001 OFFCURVE",
"680 1080 OFFCURVE",
"550 1080 CURVE SMOOTH",
"274 1080 OFFCURVE",
"148 941 OFFCURVE",
"148 728 CURVE SMOOTH",
"148 317 LINE SMOOTH",
"148 97 OFFCURVE",
"279 -22 OFFCURVE",
"550 -22 CURVE SMOOTH"
);
},
{
closed = 1;
nodes = (
"441 122 OFFCURVE",
"336 161 OFFCURVE",
"336 288 CURVE SMOOTH",
"336 748 LINE SMOOTH",
"336 878 OFFCURVE",
"430 936 OFFCURVE",
"578 936 CURVE SMOOTH",
"745 936 OFFCURVE",
"822 882 OFFCURVE",
"822 790 CURVE SMOOTH",
"822 202 LINE",
"792 178 OFFCURVE",
"719 122 OFFCURVE",
"579 122 CURVE SMOOTH"
);
}
);
};
layerId = "F85E8FEC-B3CD-4A54-BF30-AB1986ECE904";
paths = (
{
closed = 1;
nodes = (
"693 -22 OFFCURVE",
"798 11 OFFCURVE",
"920 134 CURVE",
"837 150 LINE",
"869 50 OFFCURVE",
"920 -8 OFFCURVE",
"1061 -8 CURVE SMOOTH",
"1099 -8 LINE",
"1121 136 LINE",
"1030 136 OFFCURVE",
"1010 156 OFFCURVE",
"1010 268 CURVE SMOOTH",
"1010 1060 LINE",
"822 1060 LINE",
"822 885 LINE",
"856 916 LINE",
"837 1010 OFFCURVE",
"680 1080 OFFCURVE",
"550 1080 CURVE SMOOTH",
"274 1080 OFFCURVE",
"148 941 OFFCURVE",
"148 728 CURVE SMOOTH",
"148 317 LINE SMOOTH",
"148 97 OFFCURVE",
"279 -22 OFFCURVE",
"550 -22 CURVE SMOOTH"
);
},
{
closed = 1;
nodes = (
"441 122 OFFCURVE",
"336 161 OFFCURVE",
"336 288 CURVE SMOOTH",
"336 748 LINE SMOOTH",
"336 878 OFFCURVE",
"430 936 OFFCURVE",
"578 936 CURVE SMOOTH",
"745 936 OFFCURVE",
"822 882 OFFCURVE",
"822 790 CURVE SMOOTH",
"822 202 LINE",
"792 178 OFFCURVE",
"719 122 OFFCURVE",
"579 122 CURVE SMOOTH"
);
}
);
width = 1213;
},
{
background = {
paths = (
{
closed = 1;
nodes = (
"661 -23 OFFCURVE",
"759 6 OFFCURVE",
"894 108 CURVE",
"796 119 LINE",
"835 32 OFFCURVE",
"912 -8 OFFCURVE",
"1061 -8 CURVE SMOOTH",
"1118 -8 LINE",
"1129 190 LINE",
"1062 190 OFFCURVE",
"1042 210 OFFCURVE",
"1042 308 CURVE SMOOTH",
"1042 1074 LINE",
"840 1074 LINE",
"804 954 LINE",
"836 980 LINE",
"775 1042 OFFCURVE",
"643 1097 OFFCURVE",
"543 1097 CURVE SMOOTH",
"257 1097 OFFCURVE",
"124 951 OFFCURVE",
"124 753 CURVE SMOOTH",
"124 324 LINE SMOOTH",
"124 108 OFFCURVE",
"260 -23 OFFCURVE",
"551 -23 CURVE SMOOTH"
);
},
{
closed = 1;
nodes = (
"463 168 OFFCURVE",
"396 211 OFFCURVE",
"396 320 CURVE SMOOTH",
"396 759 LINE SMOOTH",
"396 868 OFFCURVE",
"469 907 OFFCURVE",
"593 907 CURVE SMOOTH",
"669 907 OFFCURVE",
"734 887 OFFCURVE",
"770 870 CURVE",
"770 211 LINE",
"728 186 OFFCURVE",
"658 168 OFFCURVE",
"583 168 CURVE SMOOTH"
);
}
);
};
layerId = "C6C96970-2BBD-4A47-8C90-C83F37B7F23D";
paths = (
{
closed = 1;
nodes = (
"661 -23 OFFCURVE",
"759 6 OFFCURVE",
"894 108 CURVE",
"796 119 LINE",
"835 32 OFFCURVE",
"912 -8 OFFCURVE",
"1061 -8 CURVE SMOOTH",
"1118 -8 LINE",
"1129 190 LINE",
"1062 190 OFFCURVE",
"1042 210 OFFCURVE",
"1042 308 CURVE SMOOTH",
"1042 1074 LINE",
"840 1074 LINE",
"804 954 LINE",
"836 980 LINE",
"775 1042 OFFCURVE",
"643 1097 OFFCURVE",
"543 1097 CURVE SMOOTH",
"257 1097 OFFCURVE",
"124 951 OFFCURVE",
"124 753 CURVE SMOOTH",
"124 324 LINE SMOOTH",
"124 108 OFFCURVE",
"260 -23 OFFCURVE",
"551 -23 CURVE SMOOTH"
);
},
{
closed = 1;
nodes = (
"463 168 OFFCURVE",
"396 211 OFFCURVE",
"396 320 CURVE SMOOTH",
"396 759 LINE SMOOTH",
"396 868 OFFCURVE",
"469 907 OFFCURVE",
"593 907 CURVE SMOOTH",
"678 907 OFFCURVE",
"770 881 OFFCURVE",
"770 859 CURVE SMOOTH",
"770 211 LINE",
"728 186 OFFCURVE",
"658 168 OFFCURVE",
"583 168 CURVE SMOOTH"
);
}
);
width = 1213;
}
);
leftKerningGroup = c;
unicode = 0251;
},
{
glyphname = astroke;
layers = (
{
components = (
{
name = a;
}
);
layerId = "F85E8FEC-B3CD-4A54-BF30-AB1986ECE904";
paths = (
{
closed = 1;
nodes = (
"331 -195 LINE",
"423 -226 LINE",
"723 581 LINE",
"621 581 LINE"
);
},
{
closed = 1;
nodes = (
"961 1220 LINE",
"871 1251 LINE",
"760 952 LINE",
"861 952 LINE"
);
}
);
width = 1172;
},
{
background = {
components = (
{
name = a;
}
);
};
components = (
{
name = a;
}
);
layerId = "C6C96970-2BBD-4A47-8C90-C83F37B7F23D";
paths = (
{
closed = 1;
nodes = (
"339 -187 LINE",
"432 -214 LINE",
"724 600 LINE",
"623 600 LINE"
);
},
{
closed = 1;
nodes = (
"961 1260 LINE",
"870 1287 LINE",
"743 934 LINE",
"844 934 LINE"
);
}
);
width = 1174;
}
);
leftKerningGroup = a;
rightKerningGroup = a;
unicode = 2C65;
},
{
glyphname = ae;
layers = (
{
anchors = (
{
name = top;
position = "{896, 1060}";
}
);
background = {
paths = (
{
closed = 1;
nodes = (
"725 644 QCURVE SMOOTH",
"685 632 OFFCURVE",
"506 604 QCURVE SMOOTH",
"326 576 OFFCURVE",
"131 440 OFFCURVE",
"131 153 OFFCURVE",
"308 -20 OFFCURVE",
"469 -20 QCURVE SMOOTH",
"731 -20 OFFCURVE",
"878 158 QCURVE",
"913 72 OFFCURVE",
"1054 -20 OFFCURVE",
"1189 -20 QCURVE SMOOTH",
"1408 -20 OFFCURVE",
"1587 125 OFFCURVE",
"1603 318 QCURVE",
"1433 318 LINE",
"1425 187 OFFCURVE",
"1368 151 QCURVE SMOOTH",
"1352 141 OFFCURVE",
"1299 121 OFFCURVE",
"1079 121 OFFCURVE",
"973 222 OFFCURVE",
"973 328 QCURVE SMOOTH",
"973 511 LINE",
"1609 511 LINE",
"1609 758 LINE SMOOTH",
"1609 912 OFFCURVE",
"1401 1080 OFFCURVE",
"976 1080 OFFCURVE",
"887 939 QCURVE",
"860 1008 OFFCURVE",
"699 1080 OFFCURVE",
"590 1080 QCURVE SMOOTH",
"384 1080 OFFCURVE",
"172 905 OFFCURVE",
"172 746 QCURVE SMOOTH",
"172 718 LINE",
"353 718 LINE",
"353 745 LINE SMOOTH",
"353 806 OFFCURVE",
"377 856 QCURVE SMOOTH",
"416 940 OFFCURVE",
"785 940 OFFCURVE",
"785 759 QCURVE SMOOTH",
"785 660 OFFCURVE"
);
},
{
closed = 1;
nodes = (
"382 425 OFFCURVE",
"437 455 OFFCURVE",
"518 478 OFFCURVE",
"730 514 OFFCURVE",
"785 547 QCURVE",
"785 273 LINE",
"771 226 OFFCURVE",
"723 188 QCURVE SMOOTH",
"626 112 OFFCURVE",
"504 113 QCURVE SMOOTH",
"382 113 OFFCURVE",
"336 187 QCURVE SMOOTH",
"312 226 OFFCURVE",
"312 309 OFFCURVE",
"322 350 OFFCURVE",
"343 391 OFFCURVE"
);
},
{
closed = 1;
nodes = (
"973 856 OFFCURVE",
"1081 938 OFFCURVE",
"1315 938 OFFCURVE",
"1437 868 OFFCURVE",
"1437 778 QCURVE SMOOTH",
"1437 633 LINE",
"973 633 LINE",
"973 760 LINE SMOOTH"
);
}
);
};
layerId = "F85E8FEC-B3CD-4A54-BF30-AB1986ECE904";
paths = (
{
closed = 1;
nodes = (
"710 -20 OFFCURVE",
"819 80 OFFCURVE",
"911 200 CURVE",
"864 201 LINE",
"902 70 OFFCURVE",
"982 -21 OFFCURVE",
"1189 -21 CURVE SMOOTH",
"1479 -21 OFFCURVE",
"1582 60 OFFCURVE",
"1603 318 CURVE",
"1433 318 LINE",
"1420 135 OFFCURVE",
"1355 121 OFFCURVE",
"1189 121 CURVE SMOOTH",
"1042 121 OFFCURVE",
"973 186 OFFCURVE",
"973 328 CURVE SMOOTH",
"973 511 LINE",
"1609 511 LINE",
"1609 758 LINE SMOOTH",
"1609 959 OFFCURVE",
"1473 1080 OFFCURVE",
"1197 1080 CURVE SMOOTH",
"1052 1080 OFFCURVE",
"949 1037 OFFCURVE",
"887 939 CURVE",
"850 1035 OFFCURVE",
"728 1080 OFFCURVE",
"590 1080 CURVE SMOOTH",
"312 1080 OFFCURVE",
"172 961 OFFCURVE",
"172 746 CURVE SMOOTH",
"172 718 LINE",
"353 718 LINE",
"353 742 LINE SMOOTH",
"353 841 OFFCURVE",
"376 940 OFFCURVE",
"589 940 CURVE SMOOTH",
"748 940 OFFCURVE",
"784 860 OFFCURVE",
"784 761 CURVE SMOOTH",
"784 655 OFFCURVE",
"764 646 OFFCURVE",
"539 610 CURVE SMOOTH",
"164 549 OFFCURVE",
"131 423 OFFCURVE",
"131 283 CURVE SMOOTH",
"131 120 OFFCURVE",
"244 -20 OFFCURVE",
"469 -20 CURVE SMOOTH"
);
},
{
closed = 1;
nodes = (
"392 113 OFFCURVE",
"312 165 OFFCURVE",
"312 284 CURVE SMOOTH",
"312 378 OFFCURVE",
"364 446 OFFCURVE",
"532 479 CURVE SMOOTH",
"741 520 OFFCURVE",
"785 540 OFFCURVE",
"785 560 CURVE",
"785 275 LINE",
"755 177 OFFCURVE",
"618 113 OFFCURVE",
"502 113 CURVE SMOOTH"
);
},
{
closed = 1;
nodes = (
"973 760 LINE SMOOTH",
"973 891 OFFCURVE",
"1046 938 OFFCURVE",
"1196 938 CURVE SMOOTH",
"1341 938 OFFCURVE",
"1437 906 OFFCURVE",
"1437 778 CURVE SMOOTH",
"1437 633 LINE",
"973 633 LINE"
);
}
);
width = 1741;
},
{
anchors = (
{
name = top;
position = "{890, 1074}";
}
);
layerId = "C6C96970-2BBD-4A47-8C90-C83F37B7F23D";
paths = (
{
closed = 1;
nodes = (
"634 -23 OFFCURVE",
"748 38 OFFCURVE",
"869 150 CURVE",
"836 154 LINE",
"884 37 OFFCURVE",
"1004 -23 OFFCURVE",
"1186 -23 CURVE SMOOTH",
"1476 -23 OFFCURVE",
"1616 41 OFFCURVE",
"1622 353 CURVE",
"1370 353 LINE",
"1366 184 OFFCURVE",
"1313 166 OFFCURVE",
"1190 166 CURVE SMOOTH",
"1077 166 OFFCURVE",
"1012 203 OFFCURVE",
"1012 321 CURVE SMOOTH",
"1012 514 LINE",
"1624 514 LINE",
"1624 745 LINE SMOOTH",
"1624 961 OFFCURVE",
"1513 1097 OFFCURVE",
"1187 1097 CURVE SMOOTH",
"1056 1097 OFFCURVE",
"950 1055 OFFCURVE",
"878 967 CURVE",
"831 1056 OFFCURVE",
"707 1097 OFFCURVE",
"573 1097 CURVE SMOOTH",
"278 1097 OFFCURVE",
"144 953 OFFCURVE",
"144 745 CURVE SMOOTH",
"144 719 LINE",
"400 719 LINE",
"400 755 LINE SMOOTH",
"400 838 OFFCURVE",
"430 908 OFFCURVE",
"567 908 CURVE SMOOTH",
"695 908 OFFCURVE",
"739 852 OFFCURVE",
"739 770 CURVE SMOOTH",
"739 631 OFFCURVE",
"657 640 OFFCURVE",
"448 586 CURVE SMOOTH",
"141 508 OFFCURVE",
"107 420 OFFCURVE",
"112 268 CURVE SMOOTH",
"117 90 OFFCURVE",
"236 -23 OFFCURVE",
"420 -23 CURVE SMOOTH"
);
},
{
closed = 1;
nodes = (
"425 157 OFFCURVE",
"375 206 OFFCURVE",
"373 290 CURVE SMOOTH",
"372 351 OFFCURVE",
"396 418 OFFCURVE",
"527 447 CURVE SMOOTH",
"626 470 OFFCURVE",
"714 499 OFFCURVE",
"739 520 CURVE",
"739 259 LINE",
"689 183 OFFCURVE",
"581 157 OFFCURVE",
"515 157 CURVE SMOOTH"
);
},
{
closed = 1;
nodes = (
"1012 760 LINE SMOOTH",
"1012 874 OFFCURVE",
"1084 907 OFFCURVE",
"1193 907 CURVE SMOOTH",
"1302 907 OFFCURVE",
"1371 884 OFFCURVE",
"1371 765 CURVE SMOOTH",
"1371 655 LINE",
"1012 655 LINE"
);
}
);
width = 1734;
}
);
leftKerningGroup = a;
rightKerningGroup = e;
unicode = 00E6;
},
{
glyphname = b;
layers = (
{
anchors = (
{
name = bottom;
position = "{633, 0}";
},
{
name = top;
position = "{664, 1060}";
}
);
layerId = "F85E8FEC-B3CD-4A54-BF30-AB1986ECE904";
paths = (
{
closed = 1;
nodes = (
"902 -22 OFFCURVE",
"1056 139 OFFCURVE",
"1056 352 CURVE SMOOTH",
"1056 736 LINE SMOOTH",
"1056 936 OFFCURVE",
"925 1080 OFFCURVE",
"664 1080 CURVE SMOOTH",
"551 1080 OFFCURVE",
"442 1049 OFFCURVE",
"374 1010 CURVE",
"374 1505 LINE",
"186 1505 LINE",
"186 0 LINE",
"325 0 LINE",
"349 71 LINE",
"405 36 OFFCURVE",
"500 -22 OFFCURVE",
"626 -22 CURVE SMOOTH"
);
},
{
closed = 1;
nodes = (
"509 126 OFFCURVE",
"429 157 OFFCURVE",
"374 188 CURVE",
"374 870 LINE",
"444 902 OFFCURVE",
"553 936 OFFCURVE",
"641 936 CURVE SMOOTH",
"779 936 OFFCURVE",
"868 877 OFFCURVE",
"868 750 CURVE SMOOTH",
"868 332 LINE SMOOTH",
"868 202 OFFCURVE",
"746 126 OFFCURVE",
"598 126 CURVE SMOOTH"
);
}
);
width = 1204;
},
{
anchors = (
{
name = bottom;
position = "{642, 0}";
},
{
name = top;
position = "{732, 1074}";
}
);
layerId = "C6C96970-2BBD-4A47-8C90-C83F37B7F23D";
paths = (
{
closed = 1;
nodes = (
"916 -23 OFFCURVE",
"1082 120 OFFCURVE",
"1082 329 CURVE SMOOTH",
"1082 753 LINE SMOOTH",
"1082 935 OFFCURVE",
"973 1097 OFFCURVE",
"661 1097 CURVE SMOOTH",
"570 1097 OFFCURVE",
"497 1074 OFFCURVE",
"432 1040 CURVE",
"432 1516 LINE",
"160 1516 LINE",
"160 0 LINE",
"347 0 LINE",
"374 65 LINE",
"443 19 OFFCURVE",
"538 -23 OFFCURVE",
"655 -23 CURVE SMOOTH"
);
},
{
closed = 1;
nodes = (
"537 168 OFFCURVE",
"473 185 OFFCURVE",
"432 216 CURVE",
"432 857 LINE",
"453 869 OFFCURVE",
"525 907 OFFCURVE",
"623 907 CURVE SMOOTH",
"744 907 OFFCURVE",
"810 865 OFFCURVE",
"810 758 CURVE SMOOTH",
"810 323 LINE SMOOTH",
"810 215 OFFCURVE",
"727 168 OFFCURVE",
"610 168 CURVE SMOOTH"
);
}
);
width = 1206;
}
);
rightKerningGroup = b;
unicode = 0062;
},
{
glyphname = "beta-latin";
layers = (
{
background = {
paths = (
{
closed = 1;
nodes = (
"190 0 LINE",
"378 0 LINE",
"378 1131 LINE SMOOTH",
"378 1305 OFFCURVE",
"497 1332 OFFCURVE",
"643 1332 CURVE SMOOTH",
"781 1332 OFFCURVE",
"869 1296 OFFCURVE",
"869 1119 CURVE SMOOTH",
"869 989 OFFCURVE",
"818 912 OFFCURVE",
"600 912 CURVE",
"600 770 LINE",
"838 770 OFFCURVE",
"991 743 OFFCURVE",
"991 485 CURVE SMOOTH",
"991 182 OFFCURVE",
"786 168 OFFCURVE",
"518 148 CURVE",
"536 0 LINE",
"942 0 OFFCURVE",
"1166 119 OFFCURVE",
"1166 488 CURVE SMOOTH",
"1166 786 OFFCURVE",
"1019 829 OFFCURVE",
"902 878 CURVE",
"1010 908 OFFCURVE",
"1057 979 OFFCURVE",
"1057 1135 CURVE SMOOTH",
"1057 1347 OFFCURVE",
"933 1483 OFFCURVE",
"652 1483 CURVE SMOOTH",
"396 1483 OFFCURVE",
"190 1401 OFFCURVE",
"190 1103 CURVE SMOOTH"
);
}
);
};
layerId = "F85E8FEC-B3CD-4A54-BF30-AB1986ECE904";
paths = (
{
closed = 1;
nodes = (
"415 16 OFFCURVE",
"554 -22 OFFCURVE",
"686 -22 CURVE SMOOTH",
"967 -22 OFFCURVE",
"1146 132 OFFCURVE",
"1146 382 CURVE SMOOTH",
"1146 454 LINE SMOOTH",
"1146 672 OFFCURVE",
"1071 796 OFFCURVE",
"832 851 CURVE",
"832 815 LINE",
"1002 849 OFFCURVE",
"1057 937 OFFCURVE",
"1057 1110 CURVE SMOOTH",
"1057 1367 OFFCURVE",
"921 1483 OFFCURVE",
"639 1483 CURVE SMOOTH",
"344 1483 OFFCURVE",
"190 1353 OFFCURVE",
"190 1103 CURVE SMOOTH",
"190 -408 LINE",
"378 -408 LINE",
"378 1131 LINE SMOOTH",
"378 1271 OFFCURVE",
"456 1332 OFFCURVE",
"633 1332 CURVE SMOOTH",
"805 1332 OFFCURVE",
"869 1275 OFFCURVE",
"869 1104 CURVE SMOOTH",
"869 936 OFFCURVE",
"794 878 OFFCURVE",
"600 878 CURVE",
"600 736 LINE",
"896 736 OFFCURVE",
"971 657 OFFCURVE",
"971 451 CURVE SMOOTH",
"971 372 LINE SMOOTH",
"971 208 OFFCURVE",
"887 126 OFFCURVE",
"679 126 CURVE SMOOTH",
"556 126 OFFCURVE",
"425 157 OFFCURVE",
"374 198 CURVE",
"329 71 LINE"
);
}
);
width = 1261;
},
{
background = {
components = (
{
name = germandbls;
transform = "{1, 0, 0, 1, -40, 0}";
}
);
};
layerId = "C6C96970-2BBD-4A47-8C90-C83F37B7F23D";
paths = (
{
closed = 1;
nodes = (
"432 6 OFFCURVE",
"508 -22 OFFCURVE",
"676 -22 CURVE SMOOTH",
"955 -22 OFFCURVE",
"1155 132 OFFCURVE",
"1155 382 CURVE SMOOTH",
"1155 434 LINE SMOOTH",
"1155 652 OFFCURVE",
"1031 813 OFFCURVE",
"770 838 CURVE",
"770 802 LINE",
"931 816 OFFCURVE",
"1064 937 OFFCURVE",
"1064 1130 CURVE SMOOTH",
"1064 1386 OFFCURVE",
"919 1525 OFFCURVE",
"604 1525 CURVE SMOOTH",
"273 1525 OFFCURVE",
"140 1372 OFFCURVE",
"140 1103 CURVE SMOOTH",
"140 -408 LINE",
"410 -408 LINE",
"410 1137 LINE SMOOTH",
"410 1278 OFFCURVE",
"468 1329 OFFCURVE",
"598 1329 CURVE SMOOTH",
"725 1329 OFFCURVE",
"796 1272 OFFCURVE",
"796 1104 CURVE SMOOTH",
"796 951 OFFCURVE",
"713 893 OFFCURVE",
"579 893 CURVE",
"579 701 LINE",
"798 701 OFFCURVE",
"883 647 OFFCURVE",
"883 451 CURVE SMOOTH",
"883 372 LINE SMOOTH",
"883 256 OFFCURVE",
"788 174 OFFCURVE",
"648 174 CURVE SMOOTH",
"510 174 OFFCURVE",
"462 205 OFFCURVE",
"405 246 CURVE",
"355 71 LINE"
);
}
);
width = 1229;
}
);
unicode = A7B5;
},
{
glyphname = bhook;
layers = (
{
layerId = "F85E8FEC-B3CD-4A54-BF30-AB1986ECE904";
paths = (
{
closed = 1;
nodes = (
"902 -22 OFFCURVE",
"1056 139 OFFCURVE",
"1056 352 CURVE SMOOTH",
"1056 736 LINE SMOOTH",
"1056 940 OFFCURVE",
"921 1080 OFFCURVE",
"650 1080 CURVE SMOOTH",
"551 1080 OFFCURVE",
"442 1049 OFFCURVE",
"374 1010 CURVE",
"374 1166 LINE SMOOTH",
"374 1336 OFFCURVE",
"431 1363 OFFCURVE",
"534 1363 CURVE SMOOTH",
"567 1363 LINE",
"554 1505 LINE",
"498 1505 LINE SMOOTH",
"276 1505 OFFCURVE",
"186 1413 OFFCURVE",
"186 1145 CURVE SMOOTH",
"186 0 LINE",
"325 0 LINE",
"349 71 LINE",
"405 36 OFFCURVE",
"500 -22 OFFCURVE",
"626 -22 CURVE SMOOTH"
);
},
{
closed = 1;
nodes = (
"509 126 OFFCURVE",
"429 157 OFFCURVE",
"374 188 CURVE",
"374 870 LINE",
"444 902 OFFCURVE",
"553 936 OFFCURVE",
"641 936 CURVE SMOOTH",
"779 936 OFFCURVE",
"868 877 OFFCURVE",
"868 750 CURVE SMOOTH",
"868 332 LINE SMOOTH",
"868 202 OFFCURVE",
"746 126 OFFCURVE",
"598 126 CURVE SMOOTH"
);
}
);
width = 1204;
},
{
layerId = "C6C96970-2BBD-4A47-8C90-C83F37B7F23D";
paths = (
{
closed = 1;
nodes = (
"916 -23 OFFCURVE",
"1082 120 OFFCURVE",
"1082 329 CURVE SMOOTH",
"1082 753 LINE SMOOTH",
"1082 934 OFFCURVE",
"974 1097 OFFCURVE",
"672 1097 CURVE SMOOTH",
"582 1097 OFFCURVE",
"497 1074 OFFCURVE",
"432 1040 CURVE",
"432 1186 LINE SMOOTH",
"432 1283 OFFCURVE",
"469 1327 OFFCURVE",
"548 1327 CURVE SMOOTH",
"605 1327 LINE",
"598 1515 LINE",
"504 1515 LINE SMOOTH",
"241 1515 OFFCURVE",
"160 1403 OFFCURVE",
"160 1155 CURVE SMOOTH",
"160 0 LINE",
"347 0 LINE",
"374 65 LINE",
"443 19 OFFCURVE",
"538 -23 OFFCURVE",
"655 -23 CURVE SMOOTH"
);
},
{
closed = 1;
nodes = (
"537 168 OFFCURVE",
"473 185 OFFCURVE",
"432 216 CURVE",
"432 857 LINE",
"453 869 OFFCURVE",
"525 907 OFFCURVE",
"623 907 CURVE SMOOTH",
"744 907 OFFCURVE",
"810 865 OFFCURVE",
"810 758 CURVE SMOOTH",
"810 323 LINE SMOOTH",
"810 215 OFFCURVE",
"727 168 OFFCURVE",
"610 168 CURVE SMOOTH"
);
}
);
width = 1206;
}
);
unicode = 0253;
},
{
glyphname = bilabialclick;
layers = (
{
layerId = "F85E8FEC-B3CD-4A54-BF30-AB1986ECE904";
paths = (
{
closed = 1;
nodes = (
"1214 -22 OFFCURVE",
"1327 203 OFFCURVE",
"1327 500 CURVE SMOOTH",
"1327 928 LINE SMOOTH",
"1327 1234 OFFCURVE",
"1216 1468 OFFCURVE",
"772 1468 CURVE SMOOTH",
"311 1468 OFFCURVE",
"200 1247 OFFCURVE",
"200 941 CURVE SMOOTH",
"200 486 LINE SMOOTH",
"200 185 OFFCURVE",
"313 -22 OFFCURVE",
"772 -22 CURVE SMOOTH"
);
},
{
closed = 1;
nodes = (
"526 129 OFFCURVE",
"388 199 OFFCURVE",
"388 455 CURVE SMOOTH",
"388 978 LINE SMOOTH",
"388 1235 OFFCURVE",
"528 1317 OFFCURVE",
"772 1317 CURVE SMOOTH",
"1018 1317 OFFCURVE",
"1139 1235 OFFCURVE",
"1139 978 CURVE SMOOTH",
"1139 455 LINE SMOOTH",
"1139 199 OFFCURVE",
"1020 129 OFFCURVE",
"772 129 CURVE SMOOTH"
);
},
{
closed = 1;
nodes = (
"866 620 LINE",
"866 826 LINE",
"661 826 LINE",
"661 620 LINE"
);
}
);
width = 1526;
},
{
layerId = "C6C96970-2BBD-4A47-8C90-C83F37B7F23D";
paths = (
{
closed = 1;
nodes = (
"1262 -26 OFFCURVE",
"1386 227 OFFCURVE",
"1386 517 CURVE SMOOTH",
"1386 948 LINE SMOOTH",
"1386 1247 OFFCURVE",
"1264 1501 OFFCURVE",
"780 1501 CURVE SMOOTH",
"273 1501 OFFCURVE",
"152 1262 OFFCURVE",
"152 963 CURVE SMOOTH",
"152 501 LINE SMOOTH",
"152 209 OFFCURVE",
"275 -26 OFFCURVE",
"780 -26 CURVE SMOOTH"
);
},
{
closed = 1;
nodes = (
"558 167 OFFCURVE",
"424 225 OFFCURVE",
"424 468 CURVE SMOOTH",
"424 1003 LINE SMOOTH",
"424 1245 OFFCURVE",
"560 1308 OFFCURVE",
"780 1308 CURVE SMOOTH",
"1002 1308 OFFCURVE",
"1114 1241 OFFCURVE",
"1114 1003 CURVE SMOOTH",
"1114 468 LINE SMOOTH",
"1114 226 OFFCURVE",
"1004 167 OFFCURVE",
"780 167 CURVE SMOOTH"
);
},
{
closed = 1;
nodes = (
"893 615 LINE",
"893 860 LINE",
"645 860 LINE",
"645 615 LINE"
);
}
);
width = 1538;
}
);
unicode = 0298;
},
{
glyphname = bstroke;
layers = (
{
components = (
{
name = b;
}
);
layerId = "F85E8FEC-B3CD-4A54-BF30-AB1986ECE904";
paths = (
{
closed = 1;
nodes = (
"30 1205 LINE",
"701 1205 LINE",
"701 1349 LINE",
"30 1349 LINE"
);
}
);
width = 1204;
},
{
components = (
{
name = b;
}
);
layerId = "C6C96970-2BBD-4A47-8C90-C83F37B7F23D";
paths = (
{
closed = 1;
nodes = (
"30 1209 LINE",
"716 1209 LINE",
"716 1399 LINE",
"30 1399 LINE"
);
}
);
width = 1206;
}
);
unicode = 0180;
},
{
glyphname = c;
layers = (
{
anchors = (
{
name = bottom;
position = "{573, 0}";
},
{
name = top;
position = "{573, 1060}";
}
);
layerId = "F85E8FEC-B3CD-4A54-BF30-AB1986ECE904";
paths = (
{
closed = 1;
nodes = (
"867 -22 OFFCURVE",
"969 66 OFFCURVE",
"990 310 CURVE",
"816 310 LINE",
"802 150 OFFCURVE",
"765 122 OFFCURVE",
"579 122 CURVE SMOOTH",
"427 122 OFFCURVE",
"336 176 OFFCURVE",
"336 328 CURVE SMOOTH",
"336 743 LINE SMOOTH",
"336 884 OFFCURVE",
"417 936 OFFCURVE",
"579 936 CURVE SMOOTH",
"755 936 OFFCURVE",
"813 901 OFFCURVE",
"813 707 CURVE",
"992 724 LINE",
"992 1009 OFFCURVE",
"828 1080 OFFCURVE",
"574 1080 CURVE SMOOTH",
"311 1080 OFFCURVE",
"148 948 OFFCURVE",
"148 748 CURVE SMOOTH",
"148 344 LINE SMOOTH",
"148 148 OFFCURVE",
"263 -22 OFFCURVE",
"579 -22 CURVE SMOOTH"
);
}
);
width = 1106;
},
{
anchors = (
{
name = bottom;
position = "{574, 0}";
},
{
name = top;
position = "{574, 1074}";
}
);
layerId = "C6C96970-2BBD-4A47-8C90-C83F37B7F23D";
paths = (
{
closed = 1;
nodes = (
"915 -23 OFFCURVE",
"1008 83 OFFCURVE",
"1008 380 CURVE",
"754 380 LINE",
"754 197 OFFCURVE",
"721 168 OFFCURVE",
"579 168 CURVE SMOOTH",
"455 168 OFFCURVE",
"396 207 OFFCURVE",
"396 322 CURVE SMOOTH",
"396 756 LINE SMOOTH",
"396 867 OFFCURVE",
"463 907 OFFCURVE",
"579 907 CURVE SMOOTH",
"719 907 OFFCURVE",
"753 874 OFFCURVE",
"753 679 CURVE",
"1009 699 LINE",
"1009 1007 OFFCURVE",
"858 1097 OFFCURVE",
"569 1097 CURVE SMOOTH",
"288 1097 OFFCURVE",
"124 972 OFFCURVE",
"124 757 CURVE SMOOTH",
"124 327 LINE SMOOTH",
"124 140 OFFCURVE",
"206 -23 OFFCURVE",
"573 -23 CURVE SMOOTH"
);
}
);
width = 1111;
}
);
leftKerningGroup = c;
unicode = 0063;
},
{
glyphname = "chi-latin";
layers = (
{
background = {
paths = (
{
closed = 1;
nodes = (
"802 -408 LINE",
"1000 -408 LINE",
"268 1060 LINE",
"70 1060 LINE"
);
},
{
closed = 1;
nodes = (
"995 1060 LINE",
"804 1060 LINE",
"516 481 LINE",
"617 310 LINE"
);
},
{
closed = 1;
nodes = (
"64 -408 LINE",
"257 -408 LINE",
"541 198 LINE",
"440 368 LINE"
);
}
);
};
layerId = "F85E8FEC-B3CD-4A54-BF30-AB1986ECE904";
paths = (
{
closed = 1;
nodes = (
"1040 -408 LINE",
"1053 -266 LINE",
"1020 -266 LINE SMOOTH",
"952 -266 OFFCURVE",
"916 -240 OFFCURVE",
"873 -153 CURVE SMOOTH",
"366 864 LINE SMOOTH",
"287 1023 OFFCURVE",
"222 1060 OFFCURVE",
"86 1060 CURVE SMOOTH",
"30 1060 LINE",
"17 918 LINE",
"50 918 LINE SMOOTH",
"118 918 OFFCURVE",
"154 892 OFFCURVE",
"197 805 CURVE SMOOTH",
"704 -212 LINE SMOOTH",
"783 -370 OFFCURVE",
"848 -408 OFFCURVE",
"984 -408 CURVE SMOOTH"
);
},
{
closed = 1;
nodes = (
"257 -408 LINE",
"541 198 LINE",
"440 368 LINE",
"64 -408 LINE"
);
},
{
closed = 1;
nodes = (
"995 1060 LINE",
"804 1060 LINE",
"516 481 LINE",
"617 310 LINE"
);
}
);
width = 1056;
},
{
layerId = "C6C96970-2BBD-4A47-8C90-C83F37B7F23D";
paths = (
{
closed = 1;
nodes = (
"1027 -410 LINE",
"1037 -222 LINE",
"1000 -222 LINE SMOOTH",
"931 -222 OFFCURVE",
"906 -201 OFFCURVE",
"870 -125 CURVE SMOOTH",
"408 865 LINE SMOOTH",
"334 1024 OFFCURVE",
"275 1074 OFFCURVE",
"111 1074 CURVE SMOOTH",
"20 1074 LINE",
"10 886 LINE",
"47 886 LINE SMOOTH",
"116 886 OFFCURVE",
"142 864 OFFCURVE",
"177 789 CURVE SMOOTH",
"639 -201 LINE SMOOTH",
"714 -361 OFFCURVE",
"772 -410 OFFCURVE",
"936 -410 CURVE SMOOTH"
);
},
{
closed = 1;
nodes = (
"301 -410 LINE",
"524 115 LINE",
"404 374 LINE",
"36 -410 LINE"
);
},
{
closed = 1;
nodes = (
"1002 1074 LINE",
"739 1074 LINE",
"516 552 LINE",
"639 293 LINE"
);
}
);
width = 1040;
}
);
leftKerningGroup = x;
rightKerningGroup = x;
unicode = AB53;
},
{
glyphname = chook;
layers = (
{
layerId = "F85E8FEC-B3CD-4A54-BF30-AB1986ECE904";
paths = (
{
closed = 1;
nodes = (
"867 -22 OFFCURVE",
"969 66 OFFCURVE",
"990 310 CURVE",
"816 310 LINE",
"802 150 OFFCURVE",
"765 122 OFFCURVE",
"579 122 CURVE SMOOTH",
"427 122 OFFCURVE",
"336 176 OFFCURVE",
"336 328 CURVE SMOOTH",
"336 743 LINE SMOOTH",
"336 884 OFFCURVE",
"417 936 OFFCURVE",
"579 936 CURVE SMOOTH",
"755 936 OFFCURVE",
"813 901 OFFCURVE",
"813 707 CURVE",
"992 724 LINE",
"992 1107 LINE SMOOTH",
"992 1254 OFFCURVE",
"1032 1294 OFFCURVE",
"1152 1294 CURVE SMOOTH",
"1185 1294 LINE",
"1172 1436 LINE",
"1116 1436 LINE SMOOTH",
"906 1436 OFFCURVE",
"826 1344 OFFCURVE",
"826 1106 CURVE SMOOTH",
"826 971 LINE",
"846 1000 LINE",
"782 1055 OFFCURVE",
"698 1080 OFFCURVE",
"574 1080 CURVE SMOOTH",
"311 1080 OFFCURVE",
"148 948 OFFCURVE",
"148 748 CURVE SMOOTH",
"148 344 LINE SMOOTH",
"148 148 OFFCURVE",
"263 -22 OFFCURVE",
"579 -22 CURVE SMOOTH"
);
}
);
width = 1106;
},
{
layerId = "C6C96970-2BBD-4A47-8C90-C83F37B7F23D";
paths = (
{
closed = 1;
nodes = (
"915 -23 OFFCURVE",
"1008 83 OFFCURVE",
"1008 380 CURVE",
"754 380 LINE",
"754 197 OFFCURVE",
"721 168 OFFCURVE",
"579 168 CURVE SMOOTH",
"455 168 OFFCURVE",
"396 207 OFFCURVE",
"396 322 CURVE SMOOTH",
"396 756 LINE SMOOTH",
"396 867 OFFCURVE",
"463 907 OFFCURVE",
"579 907 CURVE SMOOTH",
"719 907 OFFCURVE",
"753 874 OFFCURVE",
"753 679 CURVE",
"1009 699 LINE",
"1009 1137 LINE SMOOTH",
"1009 1234 OFFCURVE",
"1046 1278 OFFCURVE",
"1125 1278 CURVE SMOOTH",
"1152 1278 LINE",
"1145 1466 LINE",
"1081 1466 LINE SMOOTH",
"864 1466 OFFCURVE",
"783 1354 OFFCURVE",
"783 1126 CURVE SMOOTH",
"783 999 LINE",
"803 1030 LINE",
"750 1073 OFFCURVE",
"672 1097 OFFCURVE",
"569 1097 CURVE SMOOTH",
"288 1097 OFFCURVE",
"124 972 OFFCURVE",
"124 757 CURVE SMOOTH",
"124 327 LINE SMOOTH",
"124 140 OFFCURVE",
"206 -23 OFFCURVE",
"573 -23 CURVE SMOOTH"
);
}
);
width = 1111;
}
);
leftKerningGroup = c;
unicode = 0188;
},
{
glyphname = cstroke;
layers = (
{
components = (
{
name = c;
}
);
layerId = "F85E8FEC-B3CD-4A54-BF30-AB1986ECE904";
paths = (
{
closed = 1;
nodes = (
"333 -226 LINE",
"871 1220 LINE",
"781 1251 LINE",
"241 -195 LINE"
);
}
);
width = 1106;
},
{
components = (
{
name = c;
}
);
layerId = "C6C96970-2BBD-4A47-8C90-C83F37B7F23D";
paths = (
{
closed = 1;
nodes = (
"342 -214 LINE",
"871 1260 LINE",
"780 1287 LINE",
"249 -187 LINE"
);
}
);
width = 1111;
}
);
leftKerningGroup = c;
unicode = 023C;
},
{
glyphname = d;
layers = (
{
anchors = (
{
name = bottom;
position = "{600, 0}";
},
{
name = caron.alt;
position = "{826, 773}";
},
{
name = center;
position = "{600, 530}";
},
{
name = mid;
position = "{917, 1275}";
},
{
name = top;
position = "{564, 1060}";
}
);
layerId = "F85E8FEC-B3CD-4A54-BF30-AB1986ECE904";
paths = (
{
closed = 1;
nodes = (
"148 131 OFFCURVE",
"263 -22 OFFCURVE",
"568 -22 CURVE SMOOTH",
"677 -22 OFFCURVE",
"793 22 OFFCURVE",
"855 70 CURVE",
"886 0 LINE",
"1014 0 LINE",
"1014 1505 LINE",
"826 1505 LINE",
"826 1040 LINE",
"760 1064 OFFCURVE",
"658 1080 OFFCURVE",
"591 1080 CURVE SMOOTH",
"283 1080 OFFCURVE",
"148 948 OFFCURVE",
"148 735 CURVE SMOOTH",
"148 335 LINE SMOOTH"
);
},
{
closed = 1;
nodes = (
"783 163 OFFCURVE",
"687 126 OFFCURVE",
"580 126 CURVE SMOOTH",
"442 126 OFFCURVE",
"336 189 OFFCURVE",
"336 321 CURVE SMOOTH",
"336 756 LINE SMOOTH",
"336 886 OFFCURVE",
"445 936 OFFCURVE",
"593 936 CURVE SMOOTH",
"681 936 OFFCURVE",
"770 919 OFFCURVE",
"826 892 CURVE",
"826 189 LINE"
);
}
);
width = 1200;
},
{
anchors = (
{
name = bottom;
position = "{599, 0}";
},
{
name = caron.alt;
position = "{933, 731}";
},
{
name = center;
position = "{599, 537}";
},
{
name = mid;
position = "{910, 1313}";
},
{
name = top;
position = "{482, 1074}";
}
);
guideLines = (
{
position = "{2274, 1515}";
}
);
layerId = "C6C96970-2BBD-4A47-8C90-C83F37B7F23D";
paths = (
{
closed = 1;
nodes = (
"124 108 OFFCURVE",
"260 -23 OFFCURVE",
"551 -23 CURVE SMOOTH",
"661 -23 OFFCURVE",
"759 14 OFFCURVE",
"829 63 CURVE",
"858 0 LINE",
"1042 0 LINE",
"1042 1515 LINE",
"770 1515 LINE",
"770 1059 LINE",
"707 1082 OFFCURVE",
"631 1097 OFFCURVE",
"570 1097 CURVE SMOOTH",
"257 1097 OFFCURVE",
"124 951 OFFCURVE",
"124 753 CURVE SMOOTH",
"124 324 LINE SMOOTH"
);
},
{
closed = 1;
nodes = (
"728 186 OFFCURVE",
"658 168 OFFCURVE",
"583 168 CURVE SMOOTH",
"463 168 OFFCURVE",
"396 211 OFFCURVE",
"396 320 CURVE SMOOTH",
"396 759 LINE SMOOTH",
"396 868 OFFCURVE",
"469 907 OFFCURVE",
"593 907 CURVE SMOOTH",
"669 907 OFFCURVE",
"734 887 OFFCURVE",
"770 870 CURVE",
"770 211 LINE"
);
}
);
width = 1198;
}
);
leftKerningGroup = c;
unicode = 0064;
},
{
glyphname = eth;
layers = (
{
layerId = "F85E8FEC-B3CD-4A54-BF30-AB1986ECE904";
paths = (
{
closed = 1;
nodes = (
"970 -20 OFFCURVE",
"1010 170 OFFCURVE",
"1010 365 CURVE SMOOTH",
"1010 736 LINE SMOOTH",
"1010 1058 OFFCURVE",
"924 1312 OFFCURVE",
"693 1427 CURVE",
"792 1565 LINE",
"697 1617 LINE",
"595 1466 LINE",
"463 1501 OFFCURVE",
"365 1512 OFFCURVE",
"239 1512 CURVE",
"210 1384 LINE",
"329 1384 OFFCURVE",
"410 1371 OFFCURVE",
"506 1341 CURVE",
"376 1152 LINE",
"471 1100 LINE",
"612 1304 LINE",
"734 1238 OFFCURVE",
"822 1112 OFFCURVE",
"822 911 CURVE",
"795 934 OFFCURVE",
"693 975 OFFCURVE",
"577 975 CURVE SMOOTH",
"314 975 OFFCURVE",
"150 846 OFFCURVE",
"150 646 CURVE SMOOTH",
"150 314 LINE SMOOTH",
"150 118 OFFCURVE",
"271 -20 OFFCURVE",
"587 -20 CURVE SMOOTH"
);
},
{
closed = 1;
nodes = (
"440 121 OFFCURVE",
"337 166 OFFCURVE",
"337 308 CURVE SMOOTH",
"337 652 LINE SMOOTH",
"337 783 OFFCURVE",
"441 833 OFFCURVE",
"587 833 CURVE SMOOTH",
"647 833 OFFCURVE",
"778 813 OFFCURVE",
"825 783 CURVE",
"825 642 OFFCURVE",
"825 500 OFFCURVE",
"825 359 CURVE SMOOTH",
"825 175 OFFCURVE",
"758 121 OFFCURVE",
"587 121 CURVE SMOOTH"
);
}
);
width = 1158;
},
{
background = {
paths = (
{
closed = 1;
nodes = (
"166 342 LINE SMOOTH",
"166 118 OFFCURVE",
"326 -23 OFFCURVE",
"677 -23 CURVE SMOOTH",
"1060 -23 OFFCURVE",
"1180 195 OFFCURVE",
"1180 460 CURVE SMOOTH",
"1180 536 LINE SMOOTH",
"1180 1137 OFFCURVE",
"933 1376 OFFCURVE",
"684 1448 CURVE",
"758 1598 LINE",
"638 1655 LINE",
"553 1485 LINE",
"438 1509 OFFCURVE",
"331 1507 OFFCURVE",
"257 1502 CURVE",
"233 1335 LINE",
"302 1334 OFFCURVE",
"386 1333 OFFCURVE",
"471 1318 CURVE",
"394 1167 LINE",
"513 1110 LINE",
"602 1284 LINE",
"720 1250 OFFCURVE",
"841 1138 OFFCURVE",
"864 921 CURVE",
"837 944 OFFCURVE",
"687 975 OFFCURVE",
"621 975 CURVE SMOOTH",
"358 975 OFFCURVE",
"166 846 OFFCURVE",
"166 618 CURVE SMOOTH"
);
},
{
closed = 1;
nodes = (
"910 258 OFFCURVE",
"890 178 OFFCURVE",
"677 178 CURVE SMOOTH",
"510 178 OFFCURVE",
"444 221 OFFCURVE",
"444 333 CURVE SMOOTH",
"444 612 LINE SMOOTH",
"444 743 OFFCURVE",
"531 793 OFFCURVE",
"677 793 CURVE SMOOTH",
"737 793 OFFCURVE",
"844 766 OFFCURVE",
"887 736 CURVE",
"902 654 OFFCURVE",
"910 497 OFFCURVE",
"910 428 CURVE SMOOTH"
);
}
);
};
layerId = "C6C96970-2BBD-4A47-8C90-C83F37B7F23D";
paths = (
{
closed = 1;
nodes = (
"1004 -23 OFFCURVE",
"1124 195 OFFCURVE",
"1124 460 CURVE SMOOTH",
"1124 636 LINE SMOOTH",
"1124 1077 OFFCURVE",
"927 1376 OFFCURVE",
"678 1448 CURVE",
"752 1598 LINE",
"632 1655 LINE",
"546 1483 LINE",
"432 1498 OFFCURVE",
"361 1502 OFFCURVE",
"257 1502 CURVE",
"233 1335 LINE",
"302 1335 OFFCURVE",
"380 1333 OFFCURVE",
"465 1318 CURVE",
"388 1167 LINE",
"507 1110 LINE",
"596 1284 LINE",
"714 1250 OFFCURVE",
"785 1138 OFFCURVE",
"808 961 CURVE",
"776 988 OFFCURVE",
"701 1015 OFFCURVE",
"585 1015 CURVE SMOOTH",
"352 1015 OFFCURVE",
"166 886 OFFCURVE",
"166 658 CURVE SMOOTH",
"166 342 LINE SMOOTH",
"166 118 OFFCURVE",
"326 -23 OFFCURVE",
"641 -23 CURVE SMOOTH"
);
},
{
closed = 1;
nodes = (
"504 178 OFFCURVE",
"438 221 OFFCURVE",
"438 333 CURVE SMOOTH",
"438 652 LINE SMOOTH",
"438 783 OFFCURVE",
"525 833 OFFCURVE",
"641 833 CURVE SMOOTH",
"721 833 OFFCURVE",
"788 806 OFFCURVE",
"831 776 CURVE",
"846 654 OFFCURVE",
"854 497 OFFCURVE",
"854 428 CURVE SMOOTH",
"854 258 OFFCURVE",
"834 178 OFFCURVE",
"641 178 CURVE SMOOTH"
);
}
);
width = 1256;
}
);
leftKerningGroup = c;
unicode = 00F0;
},
{
glyphname = dcroat;
layers = (
{
components = (
{
name = d;
}
);
layerId = "F85E8FEC-B3CD-4A54-BF30-AB1986ECE904";
paths = (
{
closed = 1;
nodes = (
"630 1213 LINE",
"1159 1213 LINE",
"1159 1360 LINE",
"630 1360 LINE"
);
}
);
width = 1200;
},
{
components = (
{
name = d;
}
);
layerId = "C6C96970-2BBD-4A47-8C90-C83F37B7F23D";
paths = (
{
closed = 1;
nodes = (
"563 1224 LINE",
"1187 1224 LINE",
"1187 1381 LINE",
"563 1381 LINE"
);
}
);
width = 1198;
}
);
leftKerningGroup = c;
unicode = 0111;
},
{
glyphname = dhook;
layers = (
{
layerId = "F85E8FEC-B3CD-4A54-BF30-AB1986ECE904";
paths = (
{
closed = 1;
nodes = (
"677 -22 OFFCURVE",
"793 22 OFFCURVE",
"855 70 CURVE",
"886 0 LINE",
"1014 0 LINE",
"1014 1166 LINE SMOOTH",
"1014 1317 OFFCURVE",
"1054 1363 OFFCURVE",
"1154 1363 CURVE SMOOTH",
"1187 1363 LINE",
"1174 1505 LINE",
"1118 1505 LINE SMOOTH",
"916 1505 OFFCURVE",
"826 1413 OFFCURVE",
"826 1165 CURVE SMOOTH",
"826 1040 LINE",
"760 1064 OFFCURVE",
"658 1080 OFFCURVE",
"591 1080 CURVE SMOOTH",
"283 1080 OFFCURVE",
"148 948 OFFCURVE",
"148 735 CURVE SMOOTH",
"148 335 LINE SMOOTH",
"148 131 OFFCURVE",
"263 -22 OFFCURVE",
"568 -22 CURVE SMOOTH"
);
},
{
closed = 1;
nodes = (
"442 126 OFFCURVE",
"336 189 OFFCURVE",
"336 321 CURVE SMOOTH",
"336 756 LINE SMOOTH",
"336 886 OFFCURVE",
"445 936 OFFCURVE",
"593 936 CURVE SMOOTH",
"681 936 OFFCURVE",
"770 919 OFFCURVE",
"826 892 CURVE",
"826 189 LINE",
"783 163 OFFCURVE",
"687 126 OFFCURVE",
"580 126 CURVE SMOOTH"
);
}
);
width = 1200;
},
{
layerId = "C6C96970-2BBD-4A47-8C90-C83F37B7F23D";
paths = (
{
closed = 1;
nodes = (
"661 -23 OFFCURVE",
"759 14 OFFCURVE",
"829 63 CURVE",
"858 0 LINE",
"1042 0 LINE",
"1042 1186 LINE SMOOTH",
"1042 1283 OFFCURVE",
"1069 1327 OFFCURVE",
"1138 1327 CURVE SMOOTH",
"1185 1327 LINE",
"1178 1515 LINE",
"1094 1515 LINE SMOOTH",
"851 1515 OFFCURVE",
"770 1403 OFFCURVE",
"770 1185 CURVE SMOOTH",
"770 1059 LINE",
"707 1082 OFFCURVE",
"631 1097 OFFCURVE",
"570 1097 CURVE SMOOTH",
"257 1097 OFFCURVE",
"124 951 OFFCURVE",
"124 753 CURVE SMOOTH",
"124 324 LINE SMOOTH",
"124 108 OFFCURVE",
"260 -23 OFFCURVE",
"551 -23 CURVE SMOOTH"
);
},
{
closed = 1;
nodes = (
"463 168 OFFCURVE",
"396 211 OFFCURVE",
"396 320 CURVE SMOOTH",
"396 759 LINE SMOOTH",
"396 868 OFFCURVE",
"469 907 OFFCURVE",
"593 907 CURVE SMOOTH",
"669 907 OFFCURVE",
"734 887 OFFCURVE",
"770 870 CURVE",
"770 211 LINE",
"728 186 OFFCURVE",
"658 168 OFFCURVE",
"583 168 CURVE SMOOTH"
);
}
);
width = 1198;
}
);
leftKerningGroup = c;
unicode = 0257;
},
{
glyphname = dtail;
layers = (
{
background = {
paths = (
{
closed = 0;
nodes = (
"841 -250 LINE",
"873 -350 OFFCURVE",
"924 -408 OFFCURVE",
"1065 -408 CURVE SMOOTH",
"1103 -408 LINE",
"1125 -264 LINE",
"1034 -264 OFFCURVE",
"1014 -244 OFFCURVE",
"1014 -132 CURVE SMOOTH"
);
}
);
};
layerId = "F85E8FEC-B3CD-4A54-BF30-AB1986ECE904";
paths = (
{
closed = 1;
nodes = (
"1103 -408 LINE",
"1125 -264 LINE",
"1034 -264 OFFCURVE",
"1014 -244 OFFCURVE",
"1014 -132 CURVE SMOOTH",
"1014 1505 LINE",
"826 1505 LINE",
"826 1040 LINE",
"760 1064 OFFCURVE",
"658 1080 OFFCURVE",
"591 1080 CURVE SMOOTH",
"283 1080 OFFCURVE",
"148 948 OFFCURVE",
"148 735 CURVE SMOOTH",
"148 335 LINE SMOOTH",
"148 131 OFFCURVE",
"263 -22 OFFCURVE",
"568 -22 CURVE SMOOTH",
"688 -22 OFFCURVE",
"816 31 OFFCURVE",
"872 94 CURVE",
"826 111 LINE",
"826 -180 LINE SMOOTH",
"826 -320 OFFCURVE",
"909 -408 OFFCURVE",
"1050 -408 CURVE SMOOTH"
);
},
{
closed = 1;
nodes = (
"442 126 OFFCURVE",
"336 189 OFFCURVE",
"336 321 CURVE SMOOTH",
"336 756 LINE SMOOTH",
"336 886 OFFCURVE",
"445 936 OFFCURVE",
"593 936 CURVE SMOOTH",
"681 936 OFFCURVE",
"770 919 OFFCURVE",
"826 892 CURVE",
"826 189 LINE",
"783 163 OFFCURVE",
"687 126 OFFCURVE",
"580 126 CURVE SMOOTH"
);
}
);
width = 1200;
},
{
background = {
paths = (
{
closed = 0;
nodes = (
"796 -283 LINE",
"835 -370 OFFCURVE",
"912 -410 OFFCURVE",
"1061 -410 CURVE SMOOTH",
"1118 -410 LINE",
"1129 -212 LINE",
"1062 -212 OFFCURVE",
"1042 -192 OFFCURVE",
"1042 -94 CURVE SMOOTH"
);
}
);
};
layerId = "C6C96970-2BBD-4A47-8C90-C83F37B7F23D";
paths = (
{
closed = 1;
nodes = (
"1118 -410 LINE",
"1129 -212 LINE",
"1062 -212 OFFCURVE",
"1042 -192 OFFCURVE",
"1042 -94 CURVE SMOOTH",
"1042 1515 LINE",
"770 1515 LINE",
"770 1059 LINE",
"707 1082 OFFCURVE",
"631 1097 OFFCURVE",
"570 1097 CURVE SMOOTH",
"257 1097 OFFCURVE",
"124 951 OFFCURVE",
"124 753 CURVE SMOOTH",
"124 324 LINE SMOOTH",
"124 108 OFFCURVE",
"260 -23 OFFCURVE",
"551 -23 CURVE SMOOTH",
"672 -23 OFFCURVE",
"779 22 OFFCURVE",
"849 98 CURVE",
"770 104 LINE",
"770 -123 LINE SMOOTH",
"770 -293 OFFCURVE",
"866 -410 OFFCURVE",
"1041 -410 CURVE SMOOTH"
);
},
{
closed = 1;
nodes = (
"463 168 OFFCURVE",
"396 211 OFFCURVE",
"396 320 CURVE SMOOTH",
"396 759 LINE SMOOTH",
"396 868 OFFCURVE",
"469 907 OFFCURVE",
"593 907 CURVE SMOOTH",
"669 907 OFFCURVE",
"734 887 OFFCURVE",
"770 870 CURVE",
"770 211 LINE",
"728 186 OFFCURVE",
"658 168 OFFCURVE",
"583 168 CURVE SMOOTH"
);
}
);
width = 1198;
}
);
leftKerningGroup = c;
unicode = 0256;
},
{
glyphname = e;
layers = (
{
anchors = (
{
name = bottom;
position = "{589, 0}";
},
{
name = ogonek;
position = "{806, 8}";
},
{
name = top;
position = "{584, 1060}";
}
);
layerId = "F85E8FEC-B3CD-4A54-BF30-AB1986ECE904";
paths = (
{
closed = 1;
nodes = (
"148 110 OFFCURVE",
"273 -22 OFFCURVE",
"589 -22 CURVE SMOOTH",
"883 -22 OFFCURVE",
"978 32 OFFCURVE",
"1004 282 CURVE",
"838 282 LINE",
"822 122 OFFCURVE",
"766 122 OFFCURVE",
"589 122 CURVE SMOOTH",
"389 122 OFFCURVE",
"336 185 OFFCURVE",
"336 357 CURVE SMOOTH",
"336 506 LINE",
"1006 506 LINE",
"1006 758 LINE SMOOTH",
"1006 959 OFFCURVE",
"873 1080 OFFCURVE",
"582 1080 CURVE SMOOTH",
"278 1080 OFFCURVE",
"148 943 OFFCURVE",
"148 743 CURVE SMOOTH",
"148 374 LINE SMOOTH"
);
},
{
closed = 1;
nodes = (
"336 633 LINE",
"336 760 LINE SMOOTH",
"336 891 OFFCURVE",
"432 936 OFFCURVE",
"582 936 CURVE SMOOTH",
"727 936 OFFCURVE",
"824 906 OFFCURVE",
"824 778 CURVE SMOOTH",
"824 633 LINE"
);
}
);
width = 1138;
},
{
anchors = (
{
name = bottom;
position = "{586, 0}";
},
{
name = ogonek;
position = "{806, 8}";
},
{
name = top;
position = "{592, 1074}";
}
);
layerId = "C6C96970-2BBD-4A47-8C90-C83F37B7F23D";
paths = (
{
closed = 1;
nodes = (
"124 60 OFFCURVE",
"323 -23 OFFCURVE",
"586 -23 CURVE SMOOTH",
"890 -23 OFFCURVE",
"1038 64 OFFCURVE",
"1038 330 CURVE",
"786 330 LINE",
"786 198 OFFCURVE",
"746 166 OFFCURVE",
"591 166 CURVE SMOOTH",
"461 166 OFFCURVE",
"396 183 OFFCURVE",
"396 310 CURVE SMOOTH",
"396 485 LINE",
"1039 485 LINE",
"1039 745 LINE SMOOTH",
"1039 961 OFFCURVE",
"913 1097 OFFCURVE",
"582 1097 CURVE SMOOTH",
"303 1097 OFFCURVE",
"124 974 OFFCURVE",
"124 755 CURVE SMOOTH",
"124 336 LINE SMOOTH"
);
},
{
closed = 1;
nodes = (
"396 651 LINE",
"396 772 LINE SMOOTH",
"396 886 OFFCURVE",
"480 907 OFFCURVE",
"589 907 CURVE SMOOTH",
"698 907 OFFCURVE",
"782 896 OFFCURVE",
"782 777 CURVE SMOOTH",
"782 651 LINE"
);
}
);
width = 1149;
}
);
leftKerningGroup = c;
rightKerningGroup = e;
unicode = 0065;
},
{
glyphname = eopen;
layers = (
{
background = {
components = (
{
name = e;
transform = "{1, 0, 0, 1, -24, 0}";
}
);
};
layerId = "F85E8FEC-B3CD-4A54-BF30-AB1986ECE904";
paths = (
{
closed = 1;
nodes = (
"840 -22 OFFCURVE",
"947 61 OFFCURVE",
"978 312 CURVE",
"798 312 LINE",
"783 158 OFFCURVE",
"725 122 OFFCURVE",
"540 122 CURVE SMOOTH",
"389 122 OFFCURVE",
"312 189 OFFCURVE",
"312 318 CURVE SMOOTH",
"312 454 OFFCURVE",
"366 505 OFFCURVE",
"626 505 CURVE",
"626 634 LINE",
"383 634 OFFCURVE",
"336 668 OFFCURVE",
"336 799 CURVE SMOOTH",
"336 875 OFFCURVE",
"393 936 OFFCURVE",
"543 936 CURVE SMOOTH",
"748 936 OFFCURVE",
"789 877 OFFCURVE",
"789 735 CURVE",
"969 752 LINE",
"969 1025 OFFCURVE",
"783 1080 OFFCURVE",
"544 1080 CURVE SMOOTH",
"312 1080 OFFCURVE",
"151 996 OFFCURVE",
"151 801 CURVE SMOOTH",
"151 648 OFFCURVE",
"221 559 OFFCURVE",
"405 559 CURVE",
"405 568 LINE",
"226 568 OFFCURVE",
"124 482 OFFCURVE",
"124 288 CURVE SMOOTH",
"124 84 OFFCURVE",
"276 -22 OFFCURVE",
"540 -22 CURVE SMOOTH"
);
}
);
width = 1092;
},
{
layerId = "C6C96970-2BBD-4A47-8C90-C83F37B7F23D";
paths = (
{
closed = 1;
nodes = (
"905 -23 OFFCURVE",
"1025 100 OFFCURVE",
"1025 314 CURVE",
"771 314 LINE",
"771 205 OFFCURVE",
"712 166 OFFCURVE",
"565 166 CURVE SMOOTH",
"424 166 OFFCURVE",
"380 207 OFFCURVE",
"380 316 CURVE SMOOTH",
"380 440 OFFCURVE",
"436 476 OFFCURVE",
"623 476 CURVE",
"623 642 LINE",
"420 642 OFFCURVE",
"387 685 OFFCURVE",
"387 777 CURVE SMOOTH",
"387 855 OFFCURVE",
"428 907 OFFCURVE",
"570 907 CURVE SMOOTH",
"724 907 OFFCURVE",
"766 871 OFFCURVE",
"766 731 CURVE",
"1020 751 LINE",
"1020 1003 OFFCURVE",
"845 1097 OFFCURVE",
"572 1097 CURVE SMOOTH",
"304 1097 OFFCURVE",
"119 990 OFFCURVE",
"119 791 CURVE SMOOTH",
"119 690 OFFCURVE",
"155 551 OFFCURVE",
"353 551 CURVE",
"353 564 LINE",
"165 564 OFFCURVE",
"108 439 OFFCURVE",
"108 306 CURVE SMOOTH",
"108 115 OFFCURVE",
"238 -23 OFFCURVE",
"572 -23 CURVE SMOOTH"
);
}
);
width = 1127;
}
);
unicode = 025B;
},
{
glyphname = esh;
layers = (
{
layerId = "F85E8FEC-B3CD-4A54-BF30-AB1986ECE904";
paths = (
{
closed = 1;
nodes = (
"141 -408 LINE SMOOTH",
"359 -408 OFFCURVE",
"467 -322 OFFCURVE",
"467 -124 CURVE SMOOTH",
"467 1239 LINE SMOOTH",
"467 1315 OFFCURVE",
"505 1372 OFFCURVE",
"620 1372 CURVE SMOOTH",
"736 1372 LINE",
"724 1505 LINE",
"605 1505 LINE SMOOTH",
"387 1505 OFFCURVE",
"279 1419 OFFCURVE",
"279 1221 CURVE SMOOTH",
"279 -142 LINE SMOOTH",
"279 -218 OFFCURVE",
"241 -275 OFFCURVE",
"126 -275 CURVE SMOOTH",
"10 -275 LINE",
"22 -408 LINE"
);
}
);
width = 746;
},
{
layerId = "C6C96970-2BBD-4A47-8C90-C83F37B7F23D";
paths = (
{
closed = 1;
nodes = (
"139 -410 LINE SMOOTH",
"394 -410 OFFCURVE",
"501 -274 OFFCURVE",
"501 -19 CURVE SMOOTH",
"501 1186 LINE SMOOTH",
"501 1258 OFFCURVE",
"522 1327 OFFCURVE",
"640 1327 CURVE SMOOTH",
"724 1327 LINE",
"717 1516 LINE",
"591 1516 LINE SMOOTH",
"336 1516 OFFCURVE",
"229 1380 OFFCURVE",
"229 1125 CURVE SMOOTH",
"229 -80 LINE SMOOTH",
"229 -152 OFFCURVE",
"208 -221 OFFCURVE",
"90 -221 CURVE SMOOTH",
"6 -221 LINE",
"13 -410 LINE"
);
}
);
width = 730;
}
);
unicode = 0283;
},
{
glyphname = estroke;
layers = (
{
components = (
{
name = e;
}
);
layerId = "F85E8FEC-B3CD-4A54-BF30-AB1986ECE904";
paths = (
{
closed = 1;
nodes = (
"332 -226 LINE",
"870 1220 LINE",
"780 1251 LINE",
"240 -195 LINE"
);
}
);
width = 1138;
},
{
components = (
{
name = e;
}
);
layerId = "C6C96970-2BBD-4A47-8C90-C83F37B7F23D";
paths = (
{
closed = 1;
nodes = (
"355 -214 LINE",
"884 1260 LINE",
"793 1287 LINE",
"262 -187 LINE"
);
}
);
width = 1149;
}
);
leftKerningGroup = c;
rightKerningGroup = e;
unicode = 0247;
},
{
glyphname = eturned;
layers = (
{
layerId = "F85E8FEC-B3CD-4A54-BF30-AB1986ECE904";
paths = (
{
closed = 1;
nodes = (
"860 -20 OFFCURVE",
"990 117 OFFCURVE",
"990 317 CURVE SMOOTH",
"990 686 LINE SMOOTH",
"990 950 OFFCURVE",
"865 1082 OFFCURVE",
"549 1082 CURVE SMOOTH",
"255 1082 OFFCURVE",
"160 1028 OFFCURVE",
"134 778 CURVE",
"300 778 LINE",
"316 938 OFFCURVE",
"372 938 OFFCURVE",
"549 938 CURVE SMOOTH",
"749 938 OFFCURVE",
"802 875 OFFCURVE",
"802 703 CURVE SMOOTH",
"802 554 LINE",
"132 554 LINE",
"132 302 LINE SMOOTH",
"132 101 OFFCURVE",
"265 -20 OFFCURVE",
"556 -20 CURVE SMOOTH"
);
},
{
closed = 1;
nodes = (
"411 124 OFFCURVE",
"314 154 OFFCURVE",
"314 282 CURVE SMOOTH",
"314 427 LINE",
"802 427 LINE",
"802 300 LINE SMOOTH",
"802 169 OFFCURVE",
"706 124 OFFCURVE",
"556 124 CURVE SMOOTH"
);
}
);
width = 1138;
},
{
layerId = "C6C96970-2BBD-4A47-8C90-C83F37B7F23D";
paths = (
{
closed = 1;
nodes = (
"846 -23 OFFCURVE",
"1025 100 OFFCURVE",
"1025 319 CURVE SMOOTH",
"1025 738 LINE SMOOTH",
"1025 1014 OFFCURVE",
"826 1097 OFFCURVE",
"563 1097 CURVE SMOOTH",
"259 1097 OFFCURVE",
"111 1010 OFFCURVE",
"111 744 CURVE",
"363 744 LINE",
"363 876 OFFCURVE",
"403 908 OFFCURVE",
"558 908 CURVE SMOOTH",
"688 908 OFFCURVE",
"753 891 OFFCURVE",
"753 764 CURVE SMOOTH",
"753 589 LINE",
"110 589 LINE",
"110 329 LINE SMOOTH",
"110 113 OFFCURVE",
"236 -23 OFFCURVE",
"567 -23 CURVE SMOOTH"
);
},
{
closed = 1;
nodes = (
"451 167 OFFCURVE",
"367 178 OFFCURVE",
"367 297 CURVE SMOOTH",
"367 423 LINE",
"753 423 LINE",
"753 302 LINE SMOOTH",
"753 188 OFFCURVE",
"669 167 OFFCURVE",
"560 167 CURVE SMOOTH"
);
}
);
width = 1149;
}
);
unicode = 01DD;
},
{
glyphname = schwa;
layers = (
{
background = {
paths = (
{
closed = 1;
nodes = (
"860 -20 OFFCURVE",
"990 117 OFFCURVE",
"990 317 CURVE SMOOTH",
"990 686 LINE SMOOTH",
"990 950 OFFCURVE",
"865 1082 OFFCURVE",
"539 1082 CURVE SMOOTH",
"255 1082 OFFCURVE",
"134 991 OFFCURVE",
"134 758 CURVE",
"300 758 LINE",
"300 899 OFFCURVE",
"343 938 OFFCURVE",
"539 938 CURVE SMOOTH",
"749 938 OFFCURVE",
"802 875 OFFCURVE",
"802 703 CURVE SMOOTH",
"802 599 LINE",
"132 599 LINE",
"132 302 LINE SMOOTH",
"132 101 OFFCURVE",
"265 -20 OFFCURVE",
"556 -20 CURVE SMOOTH"
);
},
{
closed = 1;
nodes = (
"411 124 OFFCURVE",
"314 154 OFFCURVE",
"314 282 CURVE SMOOTH",
"314 472 LINE",
"802 472 LINE",
"802 300 LINE SMOOTH",
"802 169 OFFCURVE",
"706 124 OFFCURVE",
"556 124 CURVE SMOOTH"
);
}
);
};
layerId = "F85E8FEC-B3CD-4A54-BF30-AB1986ECE904";
paths = (
{
closed = 1;
nodes = (
"860 -20 OFFCURVE",
"990 117 OFFCURVE",
"990 317 CURVE SMOOTH",
"990 686 LINE SMOOTH",
"990 950 OFFCURVE",
"865 1082 OFFCURVE",
"549 1082 CURVE SMOOTH",
"255 1082 OFFCURVE",
"160 1028 OFFCURVE",
"134 778 CURVE",
"300 778 LINE",
"316 938 OFFCURVE",
"372 938 OFFCURVE",
"549 938 CURVE SMOOTH",
"749 938 OFFCURVE",
"802 875 OFFCURVE",
"802 703 CURVE SMOOTH",
"802 554 LINE",
"132 554 LINE",
"132 302 LINE SMOOTH",
"132 101 OFFCURVE",
"265 -20 OFFCURVE",
"556 -20 CURVE SMOOTH"
);
},
{
closed = 1;
nodes = (
"411 124 OFFCURVE",
"314 154 OFFCURVE",
"314 282 CURVE SMOOTH",
"314 427 LINE",
"802 427 LINE",
"802 300 LINE SMOOTH",
"802 169 OFFCURVE",
"706 124 OFFCURVE",
"556 124 CURVE SMOOTH"
);
}
);
width = 1138;
},
{
background = {
paths = (
{
closed = 1;
nodes = (
"846 -23 OFFCURVE",
"1025 100 OFFCURVE",
"1025 319 CURVE SMOOTH",
"1025 738 LINE SMOOTH",
"1025 1014 OFFCURVE",
"826 1097 OFFCURVE",
"563 1097 CURVE SMOOTH",
"259 1097 OFFCURVE",
"111 1010 OFFCURVE",
"111 744 CURVE",
"363 744 LINE",
"363 876 OFFCURVE",
"403 908 OFFCURVE",
"558 908 CURVE SMOOTH",
"688 908 OFFCURVE",
"753 891 OFFCURVE",
"753 764 CURVE SMOOTH",
"753 623 LINE",
"110 623 LINE",
"110 329 LINE SMOOTH",
"110 113 OFFCURVE",
"236 -23 OFFCURVE",
"567 -23 CURVE SMOOTH"
);
},
{
closed = 1;
nodes = (
"451 167 OFFCURVE",
"367 178 OFFCURVE",
"367 297 CURVE SMOOTH",
"367 457 LINE",
"753 457 LINE",
"753 302 LINE SMOOTH",
"753 188 OFFCURVE",
"669 167 OFFCURVE",
"560 167 CURVE SMOOTH"
);
}
);
};
layerId = "C6C96970-2BBD-4A47-8C90-C83F37B7F23D";
paths = (
{
closed = 1;
nodes = (
"846 -23 OFFCURVE",
"1025 100 OFFCURVE",
"1025 319 CURVE SMOOTH",
"1025 738 LINE SMOOTH",
"1025 1014 OFFCURVE",
"826 1097 OFFCURVE",
"563 1097 CURVE SMOOTH",
"259 1097 OFFCURVE",
"111 1010 OFFCURVE",
"111 744 CURVE",
"363 744 LINE",
"363 876 OFFCURVE",
"403 908 OFFCURVE",
"558 908 CURVE SMOOTH",
"688 908 OFFCURVE",
"753 891 OFFCURVE",
"753 764 CURVE SMOOTH",
"753 589 LINE",
"110 589 LINE",
"110 329 LINE SMOOTH",
"110 113 OFFCURVE",
"236 -23 OFFCURVE",
"567 -23 CURVE SMOOTH"
);
},
{
closed = 1;
nodes = (
"451 167 OFFCURVE",
"367 178 OFFCURVE",
"367 297 CURVE SMOOTH",
"367 423 LINE",
"753 423 LINE",
"753 302 LINE SMOOTH",
"753 188 OFFCURVE",
"669 167 OFFCURVE",
"560 167 CURVE SMOOTH"
);
}
);
width = 1149;
}
);
unicode = 0259;
},
{
glyphname = ezh;
layers = (
{
anchors = (
{
name = bottom;
position = "{515, 0}";
},
{
name = top;
position = "{515, 1060}";
}
);
background = {
paths = (
{
closed = 1;
nodes = (
"113 -293 OFFCURVE",
"223 -406 OFFCURVE",
"531 -406 CURVE SMOOTH",
"802 -406 OFFCURVE",
"958 -262 OFFCURVE",
"958 14 CURVE SMOOTH",
"958 258 OFFCURVE",
"866 350 OFFCURVE",
"709 384 CURVE",
"869 411 OFFCURVE",
"931 517 OFFCURVE",
"931 707 CURVE SMOOTH",
"931 970 OFFCURVE",
"765 1084 OFFCURVE",
"527 1084 CURVE SMOOTH",
"281 1084 OFFCURVE",
"90 1009 OFFCURVE",
"90 641 CURVE",
"273 641 LINE",
"273 889 OFFCURVE",
"357 922 OFFCURVE",
"528 922 CURVE SMOOTH",
"692 922 OFFCURVE",
"751 840 OFFCURVE",
"751 704 CURVE SMOOTH",
"751 540 OFFCURVE",
"738 456 OFFCURVE",
"443 456 CURVE",
"443 307 LINE",
"730 307 OFFCURVE",
"776 238 OFFCURVE",
"776 15 CURVE SMOOTH",
"776 -154 OFFCURVE",
"707 -244 OFFCURVE",
"541 -244 CURVE SMOOTH",
"351 -244 OFFCURVE",
"279 -195 OFFCURVE",
"264 47 CURVE",
"80 47 LINE"
);
}
);
};
layerId = "F85E8FEC-B3CD-4A54-BF30-AB1986ECE904";
paths = (
{
closed = 1;
nodes = (
"802 -406 OFFCURVE",
"958 -262 OFFCURVE",
"958 34 CURVE SMOOTH",
"958 337 OFFCURVE",
"816 475 OFFCURVE",
"557 475 CURVE",
"580 415 LINE",
"921 935 LINE",
"921 1060 LINE",
"120 1060 LINE",
"120 924 LINE",
"762 924 LINE",
"742 962 LINE",
"423 475 LINE",
"423 327 LINE",
"487 327 LINE SMOOTH",
"708 327 OFFCURVE",
"776 241 OFFCURVE",
"776 35 CURVE SMOOTH",
"776 -154 OFFCURVE",
"707 -244 OFFCURVE",
"541 -244 CURVE SMOOTH",
"351 -244 OFFCURVE",
"279 -195 OFFCURVE",
"264 47 CURVE",
"80 47 LINE",
"113 -293 OFFCURVE",
"223 -406 OFFCURVE",
"531 -406 CURVE SMOOTH"
);
}
);
width = 1090;
},
{
anchors = (
{
name = bottom;
position = "{519, 0}";
},
{
name = top;
position = "{519, 1074}";
}
);
background = {
paths = (
{
closed = 1;
nodes = (
"61 -255 OFFCURVE",
"193 -428 OFFCURVE",
"519 -428 CURVE SMOOTH",
"854 -428 OFFCURVE",
"986 -234 OFFCURVE",
"986 25 CURVE SMOOTH",
"986 192 OFFCURVE",
"936 331 OFFCURVE",
"781 379 CURVE",
"945 419 OFFCURVE",
"975 561 OFFCURVE",
"975 700 CURVE SMOOTH",
"975 956 OFFCURVE",
"787 1102 OFFCURVE",
"514 1102 CURVE SMOOTH",
"237 1102 OFFCURVE",
"61 986 OFFCURVE",
"59 632 CURVE",
"291 632 LINE",
"290 817 OFFCURVE",
"344 878 OFFCURVE",
"517 878 CURVE SMOOTH",
"683 878 OFFCURVE",
"735 809 OFFCURVE",
"735 686 CURVE SMOOTH",
"735 541 OFFCURVE",
"711 476 OFFCURVE",
"462 476 CURVE",
"462 277 LINE",
"685 277 OFFCURVE",
"742 220 OFFCURVE",
"742 38 CURVE SMOOTH",
"742 -120 OFFCURVE",
"676 -203 OFFCURVE",
"522 -203 CURVE SMOOTH",
"356 -203 OFFCURVE",
"288 -150 OFFCURVE",
"286 35 CURVE",
"54 35 LINE"
);
}
);
};
layerId = "C6C96970-2BBD-4A47-8C90-C83F37B7F23D";
paths = (
{
closed = 1;
nodes = (
"854 -428 OFFCURVE",
"986 -234 OFFCURVE",
"986 25 CURVE SMOOTH",
"986 281 OFFCURVE",
"866 474 OFFCURVE",
"587 474 CURVE",
"614 368 LINE",
"950 910 LINE",
"950 1074 LINE",
"96 1074 LINE",
"96 888 LINE",
"683 888 LINE",
"681 927 LINE",
"397 476 LINE",
"397 277 LINE",
"509 277 LINE SMOOTH",
"697 277 OFFCURVE",
"742 195 OFFCURVE",
"742 32 CURVE SMOOTH",
"742 -126 OFFCURVE",
"676 -203 OFFCURVE",
"522 -203 CURVE SMOOTH",
"356 -203 OFFCURVE",
"286 -150 OFFCURVE",
"286 35 CURVE",
"54 35 LINE",
"54 -255 OFFCURVE",
"193 -428 OFFCURVE",
"519 -428 CURVE SMOOTH"
);
}
);
width = 1098;
}
);
unicode = 0292;
},
{
glyphname = ezhreversed;
layers = (
{
layerId = "F85E8FEC-B3CD-4A54-BF30-AB1986ECE904";
paths = (
{
closed = 1;
nodes = (
"867 -406 OFFCURVE",
"977 -293 OFFCURVE",
"1010 47 CURVE",
"826 47 LINE",
"811 -195 OFFCURVE",
"739 -244 OFFCURVE",
"549 -244 CURVE SMOOTH",
"383 -244 OFFCURVE",
"314 -154 OFFCURVE",
"314 35 CURVE SMOOTH",
"314 241 OFFCURVE",
"382 327 OFFCURVE",
"603 327 CURVE SMOOTH",
"667 327 LINE",
"667 475 LINE",
"348 962 LINE",
"328 924 LINE",
"970 924 LINE",
"970 1060 LINE",
"169 1060 LINE",
"169 935 LINE",
"510 415 LINE",
"533 475 LINE",
"274 475 OFFCURVE",
"132 337 OFFCURVE",
"132 34 CURVE SMOOTH",
"132 -262 OFFCURVE",
"288 -406 OFFCURVE",
"559 -406 CURVE SMOOTH"
);
}
);
width = 1090;
},
{
layerId = "C6C96970-2BBD-4A47-8C90-C83F37B7F23D";
paths = (
{
closed = 1;
nodes = (
"905 -428 OFFCURVE",
"1044 -255 OFFCURVE",
"1044 35 CURVE",
"812 35 LINE",
"812 -150 OFFCURVE",
"742 -203 OFFCURVE",
"576 -203 CURVE SMOOTH",
"422 -203 OFFCURVE",
"356 -126 OFFCURVE",
"356 32 CURVE SMOOTH",
"356 195 OFFCURVE",
"401 277 OFFCURVE",
"589 277 CURVE SMOOTH",
"701 277 LINE",
"701 476 LINE",
"417 927 LINE",
"415 888 LINE",
"1002 888 LINE",
"1002 1074 LINE",
"148 1074 LINE",
"148 910 LINE",
"484 368 LINE",
"511 474 LINE",
"232 474 OFFCURVE",
"112 281 OFFCURVE",
"112 25 CURVE SMOOTH",
"112 -234 OFFCURVE",
"244 -428 OFFCURVE",
"579 -428 CURVE SMOOTH"
);
}
);
width = 1098;
}
);
unicode = 01B9;
},
{
glyphname = f;
layers = (
{
anchors = (
{
name = top;
position = "{546, 1446}";
}
);
layerId = "F85E8FEC-B3CD-4A54-BF30-AB1986ECE904";
paths = (
{
closed = 1;
nodes = (
"287 0 LINE",
"475 0 LINE",
"475 918 LINE",
"732 918 LINE",
"732 1060 LINE",
"475 1060 LINE",
"475 1239 LINE SMOOTH",
"475 1315 OFFCURVE",
"513 1372 OFFCURVE",
"628 1372 CURVE SMOOTH",
"744 1372 LINE",
"732 1505 LINE",
"613 1505 LINE SMOOTH",
"395 1505 OFFCURVE",
"287 1419 OFFCURVE",
"287 1221 CURVE SMOOTH",
"287 1060 LINE",
"110 1060 LINE",
"110 918 LINE",
"287 918 LINE"
);
}
);
width = 790;
},
{
anchors = (
{
name = top;
position = "{532, 1476}";
}
);
layerId = "C6C96970-2BBD-4A47-8C90-C83F37B7F23D";
paths = (
{
closed = 1;
nodes = (
"229 0 LINE",
"501 0 LINE",
"501 901 LINE",
"715 901 LINE",
"715 1074 LINE",
"501 1074 LINE",
"501 1186 LINE SMOOTH",
"501 1258 OFFCURVE",
"522 1327 OFFCURVE",
"640 1327 CURVE SMOOTH",
"724 1327 LINE",
"717 1516 LINE",
"591 1516 LINE SMOOTH",
"336 1516 OFFCURVE",
"229 1380 OFFCURVE",
"229 1125 CURVE SMOOTH",
"229 1074 LINE",
"86 1074 LINE",
"86 901 LINE",
"229 901 LINE"
);
}
);
width = 770;
}
);
unicode = 0066;
},
{
glyphname = g;
layers = (
{
anchors = (
{
name = bottom;
position = "{591, -408}";
},
{
name = top;
position = "{565, 1060}";
}
);
layerId = "F85E8FEC-B3CD-4A54-BF30-AB1986ECE904";
paths = (
{
closed = 1;
nodes = (
"903 -408 OFFCURVE",
"1010 -223 OFFCURVE",
"1010 25 CURVE SMOOTH",
"1010 1060 LINE",
"822 1060 LINE",
"822 975 LINE",
"792 1025 OFFCURVE",
"658 1080 OFFCURVE",
"550 1080 CURVE SMOOTH",
"274 1080 OFFCURVE",
"148 941 OFFCURVE",
"148 728 CURVE SMOOTH",
"148 379 LINE SMOOTH",
"148 159 OFFCURVE",
"279 40 OFFCURVE",
"550 40 CURVE SMOOTH",
"623 40 OFFCURVE",
"762 60 OFFCURVE",
"822 116 CURVE",
"822 -31 LINE SMOOTH",
"822 -188 OFFCURVE",
"746 -265 OFFCURVE",
"564 -265 CURVE SMOOTH",
"465 -265 OFFCURVE",
"352 -248 OFFCURVE",
"295 -227 CURVE",
"253 -368 LINE",
"331 -397 OFFCURVE",
"430 -408 OFFCURVE",
"573 -408 CURVE SMOOTH"
);
},
{
closed = 1;
nodes = (
"441 184 OFFCURVE",
"336 223 OFFCURVE",
"336 350 CURVE SMOOTH",
"336 748 LINE SMOOTH",
"336 878 OFFCURVE",
"430 936 OFFCURVE",
"578 936 CURVE SMOOTH",
"745 936 OFFCURVE",
"822 882 OFFCURVE",
"822 790 CURVE SMOOTH",
"822 264 LINE",
"792 240 OFFCURVE",
"719 184 OFFCURVE",
"579 184 CURVE SMOOTH"
);
}
);
width = 1182;
},
{
anchors = (
{
name = bottom;
position = "{606, -410}";
},
{
name = top;
position = "{582, 1074}";
}
);
layerId = "C6C96970-2BBD-4A47-8C90-C83F37B7F23D";
paths = (
{
closed = 1;
nodes = (
"919 -441 OFFCURVE",
"1059 -277 OFFCURVE",
"1059 -12 CURVE SMOOTH",
"1059 1075 LINE",
"857 1075 LINE",
"834 997 LINE",
"767 1052 OFFCURVE",
"651 1097 OFFCURVE",
"533 1097 CURVE SMOOTH",
"230 1097 OFFCURVE",
"124 935 OFFCURVE",
"124 751 CURVE SMOOTH",
"124 366 LINE SMOOTH",
"124 155 OFFCURVE",
"284 32 OFFCURVE",
"543 32 CURVE SMOOTH",
"625 32 OFFCURVE",
"723 50 OFFCURVE",
"787 88 CURVE",
"787 -30 LINE SMOOTH",
"787 -178 OFFCURVE",
"720 -242 OFFCURVE",
"564 -242 CURVE SMOOTH",
"481 -242 OFFCURVE",
"376 -228 OFFCURVE",
"275 -200 CURVE",
"219 -385 LINE",
"294 -421 OFFCURVE",
"441 -441 OFFCURVE",
"574 -441 CURVE SMOOTH"
);
},
{
closed = 1;
nodes = (
"475 213 OFFCURVE",
"396 248 OFFCURVE",
"396 356 CURVE SMOOTH",
"396 757 LINE SMOOTH",
"396 865 OFFCURVE",
"464 907 OFFCURVE",
"588 907 CURVE SMOOTH",
"711 907 OFFCURVE",
"787 860 OFFCURVE",
"787 832 CURVE SMOOTH",
"787 261 LINE",
"750 234 OFFCURVE",
"680 213 OFFCURVE",
"588 213 CURVE SMOOTH"
);
}
);
width = 1211;
}
);
unicode = 0067;
},
{
glyphname = "gamma-latin";
layers = (
{
layerId = "F85E8FEC-B3CD-4A54-BF30-AB1986ECE904";
paths = (
{
closed = 1;
nodes = (
"741 -418 OFFCURVE",
"836 -307 OFFCURVE",
"836 -122 CURVE SMOOTH",
"836 2 OFFCURVE",
"773 136 OFFCURVE",
"686 289 CURVE SMOOTH",
"248 1060 LINE",
"44 1060 LINE",
"542 202 LINE SMOOTH",
"623 62 OFFCURVE",
"648 -23 OFFCURVE",
"648 -122 CURVE SMOOTH",
"648 -220 OFFCURVE",
"616 -261 OFFCURVE",
"532 -261 CURVE SMOOTH",
"448 -261 OFFCURVE",
"416 -220 OFFCURVE",
"416 -122 CURVE SMOOTH",
"416 -23 OFFCURVE",
"441 62 OFFCURVE",
"522 202 CURVE SMOOTH",
"1020 1060 LINE",
"816 1060 LINE",
"378 289 LINE SMOOTH",
"291 136 OFFCURVE",
"228 2 OFFCURVE",
"228 -122 CURVE SMOOTH",
"228 -307 OFFCURVE",
"323 -418 OFFCURVE",
"532 -418 CURVE SMOOTH"
);
}
);
width = 1064;
},
{
background = {
paths = (
{
closed = 1;
nodes = (
"486 100 LINE",
"635 100 LINE",
"1069 1074 LINE",
"812 1074 LINE",
"478 323 LINE",
"645 323 LINE",
"305 1074 LINE",
"34 1074 LINE"
);
}
);
};
layerId = "C6C96970-2BBD-4A47-8C90-C83F37B7F23D";
paths = (
{
closed = 1;
nodes = (
"784 -432 OFFCURVE",
"906 -319 OFFCURVE",
"906 -130 CURVE SMOOTH",
"906 -4 OFFCURVE",
"852 131 OFFCURVE",
"761 288 CURVE SMOOTH",
"305 1074 LINE",
"31 1074 LINE",
"557 200 LINE SMOOTH",
"644 56 OFFCURVE",
"665 -30 OFFCURVE",
"665 -110 CURVE SMOOTH",
"665 -190 OFFCURVE",
"633 -232 OFFCURVE",
"551 -232 CURVE SMOOTH",
"471 -232 OFFCURVE",
"438 -190 OFFCURVE",
"438 -110 CURVE SMOOTH",
"438 -30 OFFCURVE",
"459 57 OFFCURVE",
"545 200 CURVE SMOOTH",
"1072 1074 LINE",
"800 1074 LINE",
"343 288 LINE SMOOTH",
"251 129 OFFCURVE",
"197 -4 OFFCURVE",
"197 -130 CURVE SMOOTH",
"197 -319 OFFCURVE",
"318 -432 OFFCURVE",
"551 -432 CURVE SMOOTH"
);
}
);
width = 1103;
}
);
unicode = 0263;
},
{
glyphname = ghook;
layers = (
{
background = {
paths = (
{
closed = 1;
nodes = (
"903 -424 OFFCURVE",
"1010 -239 OFFCURVE",
"1010 9 CURVE SMOOTH",
"1010 1166 LINE SMOOTH",
"1010 1317 OFFCURVE",
"1050 1363 OFFCURVE",
"1150 1363 CURVE SMOOTH",
"1183 1363 LINE",
"1170 1505 LINE",
"1114 1505 LINE SMOOTH",
"912 1505 OFFCURVE",
"822 1413 OFFCURVE",
"822 1165 CURVE SMOOTH",
"822 885 LINE",
"826 946 LINE",
"847 1001 OFFCURVE",
"680 1080 OFFCURVE",
"550 1080 CURVE SMOOTH",
"274 1080 OFFCURVE",
"148 941 OFFCURVE",
"148 728 CURVE SMOOTH",
"148 363 LINE SMOOTH",
"148 143 OFFCURVE",
"279 24 OFFCURVE",
"550 24 CURVE SMOOTH",
"623 24 OFFCURVE",
"762 44 OFFCURVE",
"822 100 CURVE",
"822 -47 LINE SMOOTH",
"822 -204 OFFCURVE",
"746 -281 OFFCURVE",
"564 -281 CURVE SMOOTH",
"465 -281 OFFCURVE",
"352 -264 OFFCURVE",
"295 -243 CURVE",
"253 -384 LINE",
"331 -413 OFFCURVE",
"430 -424 OFFCURVE",
"573 -424 CURVE SMOOTH"
);
},
{
closed = 1;
nodes = (
"441 168 OFFCURVE",
"336 207 OFFCURVE",
"336 334 CURVE SMOOTH",
"336 748 LINE SMOOTH",
"336 878 OFFCURVE",
"430 936 OFFCURVE",
"578 936 CURVE SMOOTH",
"745 936 OFFCURVE",
"822 882 OFFCURVE",
"822 790 CURVE SMOOTH",
"822 248 LINE",
"792 224 OFFCURVE",
"719 168 OFFCURVE",
"579 168 CURVE SMOOTH"
);
}
);
};
layerId = "F85E8FEC-B3CD-4A54-BF30-AB1986ECE904";
paths = (
{
closed = 1;
nodes = (
"903 -424 OFFCURVE",
"1010 -239 OFFCURVE",
"1010 9 CURVE SMOOTH",
"1010 1166 LINE SMOOTH",
"1010 1317 OFFCURVE",
"1050 1363 OFFCURVE",
"1150 1363 CURVE SMOOTH",
"1183 1363 LINE",
"1170 1505 LINE",
"1114 1505 LINE SMOOTH",
"912 1505 OFFCURVE",
"822 1413 OFFCURVE",
"822 1165 CURVE SMOOTH",
"822 885 LINE",
"855 911 LINE",
"855 1001 OFFCURVE",
"688 1080 OFFCURVE",
"550 1080 CURVE SMOOTH",
"274 1080 OFFCURVE",
"148 941 OFFCURVE",
"148 728 CURVE SMOOTH",
"148 363 LINE SMOOTH",
"148 143 OFFCURVE",
"279 24 OFFCURVE",
"550 24 CURVE SMOOTH",
"623 24 OFFCURVE",
"762 44 OFFCURVE",
"822 100 CURVE",
"822 -47 LINE SMOOTH",
"822 -204 OFFCURVE",
"746 -281 OFFCURVE",
"564 -281 CURVE SMOOTH",
"465 -281 OFFCURVE",
"352 -264 OFFCURVE",
"295 -243 CURVE",
"253 -384 LINE",
"331 -413 OFFCURVE",
"430 -424 OFFCURVE",
"573 -424 CURVE SMOOTH"
);
},
{
closed = 1;
nodes = (
"441 168 OFFCURVE",
"336 207 OFFCURVE",
"336 334 CURVE SMOOTH",
"336 748 LINE SMOOTH",
"336 878 OFFCURVE",
"430 936 OFFCURVE",
"578 936 CURVE SMOOTH",
"745 936 OFFCURVE",
"822 882 OFFCURVE",
"822 790 CURVE SMOOTH",
"822 248 LINE",
"792 224 OFFCURVE",
"719 168 OFFCURVE",
"579 168 CURVE SMOOTH"
);
}
);
width = 1182;
},
{
layerId = "C6C96970-2BBD-4A47-8C90-C83F37B7F23D";
paths = (
{
closed = 1;
nodes = (
"919 -429 OFFCURVE",
"1059 -265 OFFCURVE",
"1059 0 CURVE SMOOTH",
"1059 1186 LINE SMOOTH",
"1059 1283 OFFCURVE",
"1085 1327 OFFCURVE",
"1154 1327 CURVE SMOOTH",
"1201 1327 LINE",
"1194 1515 LINE",
"1110 1515 LINE SMOOTH",
"867 1515 OFFCURVE",
"786 1403 OFFCURVE",
"786 1185 CURVE SMOOTH",
"786 954 LINE",
"851 981 LINE",
"789 1043 OFFCURVE",
"662 1097 OFFCURVE",
"533 1097 CURVE SMOOTH",
"230 1097 OFFCURVE",
"124 935 OFFCURVE",
"124 751 CURVE SMOOTH",
"124 366 LINE SMOOTH",
"124 155 OFFCURVE",
"284 32 OFFCURVE",
"543 32 CURVE SMOOTH",
"625 32 OFFCURVE",
"723 50 OFFCURVE",
"787 88 CURVE",
"787 -18 LINE SMOOTH",
"787 -166 OFFCURVE",
"720 -230 OFFCURVE",
"564 -230 CURVE SMOOTH",
"481 -230 OFFCURVE",
"376 -216 OFFCURVE",
"275 -188 CURVE",
"219 -373 LINE",
"294 -409 OFFCURVE",
"441 -429 OFFCURVE",
"574 -429 CURVE SMOOTH"
);
},
{
closed = 1;
nodes = (
"475 213 OFFCURVE",
"396 248 OFFCURVE",
"396 356 CURVE SMOOTH",
"396 757 LINE SMOOTH",
"396 865 OFFCURVE",
"464 907 OFFCURVE",
"588 907 CURVE SMOOTH",
"711 907 OFFCURVE",
"787 860 OFFCURVE",
"787 832 CURVE SMOOTH",
"787 261 LINE",
"750 234 OFFCURVE",
"680 213 OFFCURVE",
"588 213 CURVE SMOOTH"
);
}
);
width = 1211;
}
);
unicode = 0260;
},
{
glyphname = glottalstop;
layers = (
{
layerId = "F85E8FEC-B3CD-4A54-BF30-AB1986ECE904";
paths = (
{
closed = 1;
nodes = (
"678 0 LINE",
"678 486 LINE",
"648 407 LINE",
"855 641 LINE SMOOTH",
"1004 809 OFFCURVE",
"1096 931 OFFCURVE",
"1096 1114 CURVE SMOOTH",
"1096 1277 OFFCURVE",
"1005 1468 OFFCURVE",
"657 1468 CURVE SMOOTH",
"316 1468 OFFCURVE",
"179 1374 OFFCURVE",
"179 1071 CURVE SMOOTH",
"179 1039 LINE",
"376 1039 LINE",
"376 1092 LINE SMOOTH",
"376 1225 OFFCURVE",
"441 1306 OFFCURVE",
"657 1306 CURVE SMOOTH",
"836 1306 OFFCURVE",
"883 1222 OFFCURVE",
"883 1103 CURVE SMOOTH",
"883 986 OFFCURVE",
"852 895 OFFCURVE",
"760 785 CURVE SMOOTH",
"490 461 LINE",
"490 0 LINE"
);
}
);
width = 1240;
},
{
background = {
paths = (
{
closed = 1;
nodes = (
"445 431 LINE",
"674 431 LINE",
"856 582 LINE SMOOTH",
"1038 733 OFFCURVE",
"1118 862 OFFCURVE",
"1118 1067 CURVE SMOOTH",
"1118 1289 OFFCURVE",
"1047 1501 OFFCURVE",
"619 1501 CURVE SMOOTH",
"186 1501 OFFCURVE",
"130 1309 OFFCURVE",
"130 1036 CURVE SMOOTH",
"130 962 LINE",
"404 962 LINE",
"404 1047 LINE SMOOTH",
"404 1188 OFFCURVE",
"417 1279 OFFCURVE",
"619 1279 CURVE SMOOTH",
"805 1279 OFFCURVE",
"826 1166 OFFCURVE",
"826 1056 CURVE SMOOTH",
"826 936 OFFCURVE",
"789 860 OFFCURVE",
"693 740 CURVE SMOOTH"
);
}
);
};
layerId = "C6C96970-2BBD-4A47-8C90-C83F37B7F23D";
paths = (
{
closed = 1;
nodes = (
"717 0 LINE",
"717 494 LINE",
"683 419 LINE",
"861 577 LINE SMOOTH",
"1032 729 OFFCURVE",
"1118 862 OFFCURVE",
"1118 1067 CURVE SMOOTH",
"1118 1289 OFFCURVE",
"1047 1501 OFFCURVE",
"619 1501 CURVE SMOOTH",
"186 1501 OFFCURVE",
"130 1309 OFFCURVE",
"130 1036 CURVE SMOOTH",
"130 962 LINE",
"404 962 LINE",
"404 1047 LINE SMOOTH",
"404 1188 OFFCURVE",
"417 1279 OFFCURVE",
"619 1279 CURVE SMOOTH",
"805 1279 OFFCURVE",
"826 1166 OFFCURVE",
"826 1056 CURVE SMOOTH",
"826 936 OFFCURVE",
"791 856 OFFCURVE",
"690 740 CURVE SMOOTH",
"445 461 LINE",
"445 0 LINE"
);
}
);
width = 1244;
}
);
unicode = 0294;
},
{
glyphname = glottalstopreversed;
layers = (
{
layerId = "F85E8FEC-B3CD-4A54-BF30-AB1986ECE904";
paths = (
{
closed = 1;
nodes = (
"750 461 LINE",
"480 785 LINE SMOOTH",
"388 895 OFFCURVE",
"357 986 OFFCURVE",
"357 1103 CURVE SMOOTH",
"357 1222 OFFCURVE",
"404 1306 OFFCURVE",
"583 1306 CURVE SMOOTH",
"799 1306 OFFCURVE",
"864 1225 OFFCURVE",
"864 1092 CURVE SMOOTH",
"864 1039 LINE",
"1061 1039 LINE",
"1061 1071 LINE SMOOTH",
"1061 1374 OFFCURVE",
"924 1468 OFFCURVE",
"583 1468 CURVE SMOOTH",
"235 1468 OFFCURVE",
"144 1277 OFFCURVE",
"144 1114 CURVE SMOOTH",
"144 931 OFFCURVE",
"236 809 OFFCURVE",
"385 641 CURVE SMOOTH",
"592 407 LINE",
"562 486 LINE",
"562 0 LINE",
"750 0 LINE"
);
}
);
width = 1240;
},
{
layerId = "C6C96970-2BBD-4A47-8C90-C83F37B7F23D";
paths = (
{
closed = 1;
nodes = (
"799 461 LINE",
"554 740 LINE SMOOTH",
"453 856 OFFCURVE",
"418 936 OFFCURVE",
"418 1056 CURVE SMOOTH",
"418 1166 OFFCURVE",
"439 1279 OFFCURVE",
"625 1279 CURVE SMOOTH",
"827 1279 OFFCURVE",
"840 1188 OFFCURVE",
"840 1047 CURVE SMOOTH",
"840 962 LINE",
"1114 962 LINE",
"1114 1036 LINE SMOOTH",
"1114 1309 OFFCURVE",
"1058 1501 OFFCURVE",
"625 1501 CURVE SMOOTH",
"197 1501 OFFCURVE",
"126 1289 OFFCURVE",
"126 1067 CURVE SMOOTH",
"126 862 OFFCURVE",
"212 729 OFFCURVE",
"383 577 CURVE SMOOTH",
"561 419 LINE",
"527 494 LINE",
"527 0 LINE",
"799 0 LINE"
);
}
);
width = 1244;
}
);
unicode = 0295;
},
